<svg width="335" height="280" viewBox="0 0 335 280" fill="none" xmlns="http://www.w3.org/2000/svg">
<path d="M159.693 201.933L159.205 201.654L164.806 198.449L159.693 201.933" fill="url(#paint0_radial_72_62)"/>
<path d="M148.248 209.733L146.668 208.829L152.911 205.255L153.947 205.849L148.248 209.733Z" fill="url(#paint1_radial_72_62)"/>
<path d="M103.048 279.768L335 82.4639L123.257 226.765L103.048 279.768Z" fill="#262864"/>
<path d="M82.8401 203.635L0 156.229L335 82.4639L146.648 172.973L139.861 176.235L133.018 179.523L126.231 182.785L119.388 186.072L112.601 189.334L105.759 192.622L98.9713 195.884L93.0111 198.748L86.2238 202.009L82.8401 203.635V203.635ZM85.0353 142.359C76.9914 142.359 68.9451 144.117 62.8078 147.629C50.532 154.654 50.532 166.043 62.809 173.068C68.9475 176.582 76.9914 178.338 85.0376 178.338C93.0815 178.338 101.128 176.58 107.265 173.068C119.541 166.043 119.541 154.654 107.264 147.629C101.125 144.115 93.0815 142.359 85.0353 142.359Z" fill="#F1B7FF"/>
<path d="M206.096 274.169L148.427 241.168L123.257 226.765L175.781 190.97C176.52 193.901 177.391 196.548 178.405 198.451C179.099 199.757 179.708 201.233 180.243 202.804C174.025 203.404 168.058 205.076 163.259 207.822C150.983 214.847 150.984 226.237 163.26 233.262C169.399 236.775 177.443 238.531 185.489 238.531C193.533 238.531 201.579 236.775 207.716 233.263C219.992 226.238 219.992 214.848 207.715 207.823C206.287 207.006 204.756 206.283 203.145 205.656C203.362 201.982 203.6 198.278 203.68 197.454C203.847 195.751 203.105 186.504 201.755 181.924C201.138 179.831 200.952 176.653 200.932 173.829L335 82.4639L266.585 184.21L263.115 189.37L262.15 190.806L252.075 205.789L248.606 210.949L237.368 227.662L234.671 231.673L231.172 236.876L229.558 239.278L221.747 250.893L220.735 252.399L217.237 257.6L213.938 262.508L206.096 274.169" fill="#F1B7FF"/>
<path d="M123.257 226.765L335 82.4639L82.8401 203.635L103.048 279.768L123.257 226.765Z" fill="url(#paint2_linear_72_62)"/>
<path d="M123.257 226.765L335 82.4639L126.569 228.659L123.257 226.765Z" fill="white"/>
<path d="M185.634 173.751C195.553 174.128 200.997 169.918 200.997 169.918C201.049 168.57 201.111 167.691 201.111 167.691L186.163 165.529L172.385 169.111C172.385 169.111 172.73 173.328 173.49 178.718C175.926 178.991 178.419 173.224 178.419 173.224L185.232 173.7C185.232 173.7 175.7 173.374 185.634 173.751" fill="#202152"/>
<path d="M191.622 114.653C194.91 125.151 185.835 141.201 184.489 145.883C183.133 150.603 169.502 172.281 169.5 172.286C169.866 172.618 170.204 172.909 170.468 173.131C170.811 173.421 171.31 173.37 171.599 173.004C174.759 169.006 183.729 152.243 184.015 151.522C184.319 150.756 190.082 137.231 191.531 134.223C192.688 131.822 196.631 120.214 191.622 114.653" fill="#262864"/>
<path d="M85.0376 178.338C76.9914 178.338 68.9475 176.582 62.809 173.068C50.532 166.043 50.532 154.654 62.8078 147.629C68.9451 144.117 76.9914 142.359 85.0353 142.359C93.0815 142.359 101.125 144.115 107.264 147.629C119.541 154.654 119.541 166.043 107.265 173.068C101.128 176.58 93.0815 178.338 85.0376 178.338" fill="url(#paint3_linear_72_62)"/>
<path d="M185.489 238.531C177.443 238.531 169.399 236.775 163.26 233.262C150.984 226.237 150.983 214.847 163.259 207.822C168.058 205.076 174.025 203.404 180.243 202.804C180.432 203.361 180.613 203.93 180.784 204.507C179.439 204.75 177.966 205.408 177.781 207.113C177.434 210.316 182.653 213.057 182.746 213.105C183.524 217.493 183.976 221.407 184.367 223.351C183.262 223.568 181.137 223.934 179.064 224.004C176.077 224.105 167.93 225.632 168.088 228.525C168.245 231.43 172.418 235.6 177.708 236.228C178.663 236.341 179.668 236.388 180.695 236.388C182.93 236.388 185.267 236.169 187.406 235.95C189.545 235.732 191.485 235.513 192.928 235.513C193.052 235.513 193.171 235.515 193.286 235.519C193.337 235.52 193.386 235.521 193.435 235.521C196.805 235.521 199.15 232.219 197.894 229.037C197.93 228.703 197.927 228.379 197.895 228.086C197.711 226.319 196.516 223.456 196.541 221.536C196.553 220.651 196.662 219.984 196.786 219.435C196.786 219.435 196.786 219.435 196.786 219.436C198.268 220.242 199.438 220.542 200.366 220.542C202.435 220.542 203.295 219.044 203.696 218.303C204.275 217.233 203.183 215.476 203.183 215.476C203.183 215.476 202.787 214.349 202.731 213.774C202.703 213.476 202.913 209.584 203.145 205.655C204.756 206.283 206.287 207.006 207.715 207.823C219.992 214.848 219.992 226.238 207.716 233.263C201.579 236.775 193.533 238.531 185.489 238.531" fill="url(#paint4_linear_72_62)"/>
<path d="M185.143 223.189C185.143 223.189 182.05 223.903 179.064 224.004C176.077 224.105 167.93 225.632 168.088 228.525C168.245 231.43 172.417 235.6 177.708 236.228C180.742 236.588 184.285 236.269 187.406 235.95C189.727 235.713 191.814 235.476 193.286 235.519C196.738 235.617 199.173 232.26 197.891 229.031C196.616 225.817 185.143 223.189 185.143 223.189" fill="#202152"/>
<path d="M203.183 215.476C203.183 215.476 204.275 217.233 203.695 218.303C203.115 219.375 201.572 222.038 196.786 219.436C192.014 216.84 182.747 213.106 182.747 213.106C182.747 213.106 177.431 210.344 177.78 207.113C178.129 203.897 183.066 204.404 183.066 204.404L203.183 215.476" fill="#202152"/>
<path d="M172.385 169.111C172.385 169.111 174.123 190.411 178.405 198.451C182.735 206.585 183.691 221.365 184.568 224.177C185.448 227.001 188.246 231.057 192.761 231.928C197.277 232.799 198.08 229.857 197.895 228.086C197.711 226.319 196.516 223.456 196.541 221.536C196.566 219.621 197.05 218.727 197.139 217.846C197.139 217.846 202.304 219.335 203.183 215.476C203.183 215.476 202.787 214.349 202.731 213.774C202.676 213.198 203.514 199.159 203.68 197.453C203.847 195.751 203.105 186.504 201.755 181.924C200.414 177.374 201.111 167.691 201.111 167.691L186.163 165.529L172.385 169.111" fill="#262864"/>
<path d="M196.644 169.199C196.644 169.199 196.51 172.527 195.02 175.311C195.02 175.311 194.81 186.594 193.494 192.279C193.494 192.279 195.18 203.676 196.313 207.258C197.454 210.858 197.139 217.846 197.139 217.846C197.139 217.846 197.726 218.059 198.574 218.092C199.421 218.125 199.791 204.267 198.539 201.805C197.291 199.351 196.539 188.456 197.103 185.13C197.665 181.822 197.704 172.311 198.39 170.634C199.075 168.962 197.63 168.057 197.63 168.057L196.644 169.199" fill="#202152"/>
<path d="M180.695 236.388C179.668 236.388 178.663 236.341 177.708 236.228C172.417 235.6 168.245 231.43 168.088 228.525C167.93 225.632 176.077 224.105 179.064 224.004C181.137 223.934 183.262 223.568 184.367 223.351C184.435 223.689 184.502 223.967 184.568 224.177C185.448 227.001 188.246 231.057 192.761 231.928C193.321 232.036 193.826 232.085 194.278 232.085C196.86 232.085 197.74 230.474 197.894 229.037C199.15 232.219 196.805 235.521 193.435 235.521C193.386 235.521 193.337 235.52 193.286 235.519C193.171 235.515 193.052 235.513 192.928 235.513C191.485 235.513 189.545 235.732 187.406 235.95C185.267 236.169 182.93 236.388 180.695 236.388Z" fill="#1E204E"/>
<path d="M200.366 220.542C199.438 220.542 198.268 220.242 196.786 219.436C196.786 219.435 196.786 219.435 196.786 219.435C196.929 218.797 197.091 218.32 197.139 217.846C197.139 217.846 197.697 218.049 198.51 218.089C198.755 218.113 199.021 218.129 199.298 218.129C200.826 218.129 202.687 217.654 203.183 215.476C203.183 215.476 204.275 217.233 203.696 218.303C203.295 219.044 202.435 220.542 200.366 220.542V220.542ZM182.746 213.105C182.653 213.057 177.434 210.316 177.781 207.113C177.966 205.408 179.439 204.75 180.784 204.507C181.617 207.306 182.248 210.302 182.746 213.105" fill="#1E204E"/>
<path d="M194.278 232.085C193.826 232.085 193.322 232.036 192.761 231.928C188.246 231.057 185.448 227.001 184.568 224.177C184.502 223.967 184.435 223.689 184.367 223.351C183.976 221.407 183.524 217.493 182.746 213.105C182.248 210.302 181.617 207.306 180.784 204.507C180.613 203.93 180.432 203.361 180.243 202.804C181.977 202.638 183.732 202.554 185.486 202.554C188.84 202.554 192.193 202.859 195.408 203.469C195.721 205.015 196.034 206.374 196.313 207.258C197.454 210.858 197.139 217.846 197.139 217.846C197.091 218.32 196.929 218.798 196.786 219.435C196.662 219.984 196.553 220.651 196.541 221.536C196.516 223.456 197.711 226.319 197.895 228.086C197.927 228.379 197.93 228.703 197.894 229.037C197.74 230.474 196.86 232.085 194.278 232.085V232.085ZM199.298 218.129C199.021 218.129 198.755 218.113 198.51 218.089C198.531 218.09 198.552 218.092 198.574 218.092C198.575 218.092 198.577 218.092 198.577 218.092C199.259 218.093 199.63 209.088 199.09 204.32C200.485 204.703 201.842 205.148 203.145 205.655C202.913 209.584 202.703 213.476 202.731 213.774C202.787 214.349 203.183 215.476 203.183 215.476C202.687 217.654 200.826 218.129 199.298 218.129Z" fill="#23255B"/>
<path d="M198.577 218.092C198.577 218.092 198.575 218.092 198.574 218.092C198.552 218.092 198.531 218.09 198.51 218.089C197.697 218.049 197.139 217.846 197.139 217.846C197.139 217.846 197.454 210.858 196.313 207.258C196.034 206.374 195.721 205.015 195.408 203.469C196.659 203.706 197.889 203.99 199.09 204.32C199.63 209.088 199.259 218.093 198.577 218.092Z" fill="#1E204E"/>
<path d="M68.3491 156.119C68.3491 156.119 67.5641 159.854 67.9936 160.578C68.423 161.302 73.3225 166.79 73.8411 167.527C74.3608 168.266 76.8845 172.758 81.5271 173.855C86.1768 174.952 89.3376 174.667 89.9676 172.503C90.5953 170.346 87.8675 166.762 86.605 165.605C85.3438 164.449 80.0383 158.193 79.0692 157.284C78.1 156.378 76.6968 156.237 76.6968 156.237L70.6428 157.28L68.3491 156.119" fill="#202152"/>
<path d="M78.45 147.399C78.45 147.399 77.6651 151.134 78.0945 151.857C78.5239 152.582 83.4235 158.07 83.942 158.807C84.4618 159.545 86.9855 164.038 91.6281 165.134C96.2777 166.232 99.4385 165.947 100.069 163.783C100.696 161.626 97.9684 158.042 96.706 156.885C95.4447 155.729 90.1392 149.472 89.1701 148.564C88.201 147.658 86.7978 147.516 86.7978 147.516L80.7437 148.559L78.45 147.399" fill="#202152"/>
<path d="M79.1537 201.526L335 82.4639L82.8401 203.635L79.1537 201.526Z" fill="white"/>
<path d="M149.917 99.3493C149.917 99.3493 146.761 99.39 145.369 98.7667C143.978 98.1434 139.937 96.8293 139.686 96.6967C139.436 96.5653 137.209 96.42 136.188 95.7711C136.188 95.7711 135.05 96.3223 135.95 97.2351C136.85 98.1492 138.551 98.4469 138.551 98.4469L140.152 99.3726C140.152 99.3726 136.91 101.022 136.617 101.145C136.324 101.268 133.61 103.315 133.335 103.442C133.059 103.567 131.85 104.503 132.319 105.331C132.319 105.331 132.366 105.52 132.971 105.648C132.971 105.648 131.236 106.429 131.664 107.276C132.093 108.122 133.193 107.756 133.193 107.756C133.193 107.756 133.611 109.274 135.704 108.098C135.704 108.098 135.949 109.981 140.595 108.013C140.595 108.013 142.472 107.523 143.846 107.618C145.219 107.713 148.961 106.755 150.964 105.356C152.965 103.961 149.917 99.3493 149.917 99.3493" fill="#FBC9C2"/>
<path d="M143.846 107.618C145.219 107.713 148.961 106.755 150.964 105.356C152.311 104.416 151.368 102.018 150.609 100.553C149.662 100.097 148.828 99.7249 148.828 99.7249C148.828 99.7249 148.97 104.288 148.865 104.973C148.762 105.659 144.603 106.473 141.937 106.861C139.268 107.248 135.767 108.272 135.766 108.272C135.972 108.69 136.863 109.593 140.595 108.013C140.595 108.013 142.472 107.523 143.846 107.618" fill="#E2A79F"/>
<path d="M186.483 90.4833C186.483 90.4833 179.912 91.623 177.676 92.33C175.507 93.015 156.677 96.7084 149.781 98.3806C149.345 98.4865 149.007 98.8377 148.904 99.283C148.82 99.6401 148.767 100.066 148.856 100.42C149.05 101.191 149.71 108.921 153.536 107.658C154.685 107.278 158.06 106.58 160.759 106.227C163.454 105.874 174.966 104.998 174.966 104.998L194.436 93.9523L186.483 90.4833" fill="#4641A1"/>
<path d="M185.488 90.6601C185.488 90.6601 180.995 93.7476 181.122 99.1993L184.427 98.5539C184.427 98.5539 183.558 92.5068 185.488 90.6601" fill="#202152"/>
<path d="M174.302 169.446C174.302 169.446 195.743 178.154 206.527 162.067C206.834 161.608 206.987 161.044 206.98 160.474L206.937 156.684C206.931 156.203 207.014 155.726 207.179 155.281C207.537 154.32 207.637 153.275 207.466 152.251C206.758 147.994 204.831 136.373 204.39 133.136C203.85 129.185 206.359 113.357 210.143 106.509C213.881 99.7435 205.052 84.1803 205.052 84.1803C205.052 84.1803 202.872 80.5253 198.409 81.6905C198.409 81.6905 202.574 84.6838 200.192 87.7272C197.798 90.7879 190.805 93.1475 190.805 93.1475C190.805 93.1475 177.834 99.5063 173.305 107.404C173.305 107.404 171.728 111.512 171.513 116.725C171.296 121.984 171.692 134.568 171.441 136.307C171.19 138.051 170.327 149.943 170.39 150.498C170.452 151.053 174.302 169.446 174.302 169.446" fill="#42399B"/>
<path d="M180.833 171.25C180.833 171.25 194.252 137.879 193.898 125.594C193.549 113.55 174.723 149.585 174.723 149.585L174.302 169.446C174.302 169.446 178.365 170.939 180.833 171.25" fill="#262864"/>
<path d="M174.606 131.508C175.117 128.749 175.435 125.972 175.513 123.192C175.65 118.35 177.179 110.316 186.125 111.844C198.735 113.997 192.973 131.23 191.531 134.223C190.082 137.231 184.319 150.756 184.015 151.522C183.729 152.243 174.759 169.006 171.599 173.004C171.31 173.37 170.811 173.421 170.467 173.131C169.229 172.089 166.443 169.602 166.097 168.04C165.651 166.028 167.574 158.753 167.574 158.753C167.574 158.753 172.766 140.487 173.193 139.636C173.513 138.998 173.777 135.976 174.606 131.508Z" fill="#4641A1"/>
<path d="M185.699 91.059C185.699 91.059 184.73 88.7773 182.396 88.504C180.062 88.2307 178.746 87.5691 178.526 86.712C178.305 85.8549 178.311 84.8223 177.765 83.5396C177.221 82.2604 176.794 79.1275 176.803 79.0519C176.813 78.9763 175.041 78.417 174.967 77.6413C174.892 76.8656 175.861 74.1165 175.764 73.9002C175.666 73.6851 174.737 71.971 174.887 70.6522C175.037 69.3358 175.242 67.4263 175.982 65.818C176.72 64.2144 181.876 54.4425 194.741 59.7767C207.689 65.1435 197.534 75.8016 198.672 82.8244C198.672 82.8244 199.797 84.3153 197.624 86.7783C195.442 89.253 189.276 89.696 185.699 91.059" fill="#FBC9C2"/>
<path d="M197.624 86.7783C199.797 84.3153 198.672 82.8244 198.672 82.8244C198.514 81.8499 198.579 80.8021 198.765 79.7101L193.649 80.5835C193.649 80.5835 186.24 73.8235 186.709 77.3855C187.181 80.9696 185.339 81.5534 185.339 81.5534L186.847 83.521C187.235 84.0269 186.988 84.6083 186.655 85.1514C184.439 88.7587 179.238 87.5784 179.226 87.5795C179.87 88.0086 180.933 88.3331 182.396 88.504C184.73 88.7773 185.699 91.059 185.699 91.059C189.276 89.696 195.442 89.253 197.624 86.7783Z" fill="#E2A79F"/>
<path d="M175.483 62.0641C175.483 62.0641 174.533 64.683 175.982 65.818C177.433 66.9553 178.746 68.0252 178.746 68.0252L178.682 71.358C178.672 71.8395 178.805 72.3116 179.061 72.7175L180.857 75.5585C181.203 76.1062 181.384 76.7458 181.377 77.3982L181.361 78.7553C181.357 79.1542 181.648 79.4926 182.039 79.5426L182.522 79.6042C182.948 79.6589 183.336 79.3542 183.39 78.9239L183.626 77.0412C183.626 77.0412 184.618 75.5422 186.709 77.3854L188.598 78.1913C189.125 78.4157 189.535 78.8518 189.724 79.3996C190.229 80.8579 191.313 83.7349 192.154 84.2233C193.293 84.8838 197.792 82.6859 198.409 81.6905C199.024 80.6962 200.672 74.0037 201.674 70.8103C202.671 67.6367 202.303 59.7092 192.708 57.4973C183.128 55.289 176.859 59.215 175.483 62.0641Z" fill="#A7797E"/>
<path d="M198.409 81.6905C199.024 80.6962 200.672 74.0037 201.674 70.8103C201.674 70.8103 197.906 73.1954 193.068 73.8374C188.22 74.4816 178.729 68.9159 178.729 68.9159L178.682 71.358C178.672 71.8395 178.805 72.3116 179.061 72.7175L180.857 75.5585C181.203 76.1062 181.384 76.7458 181.377 77.3982L181.36 78.7553C181.357 79.1542 181.648 79.4926 182.039 79.5426L182.522 79.6042C182.948 79.6589 183.336 79.3542 183.39 78.9239L183.626 77.0412C183.626 77.0412 184.618 75.5422 186.709 77.3854L189.442 78.5506C189.442 78.5506 191.017 83.5639 192.154 84.2233C193.293 84.8838 197.792 82.6859 198.409 81.6905" fill="#8E6267"/>
<path d="M198.591 82.0115C198.591 82.0115 202.266 84.3408 200.34 87.5225C198.403 90.7228 184.795 96.2362 184.111 97.0723C184.111 97.0723 183.667 92.2579 185.488 90.66C185.488 90.66 195.87 88.8413 197.53 86.2643C199.182 83.6977 198.591 82.0115 198.591 82.0115" fill="#F4F9FD"/>
<path d="M198.591 82.0115C198.591 82.0115 199.182 83.6978 197.53 86.2643C196.273 88.2145 190.029 89.7286 187.06 90.3519C187.06 90.3519 188.147 90.9834 189.924 94.0941C194.117 92.0393 199.21 89.3902 200.34 87.5225C202.266 84.3408 198.591 82.0115 198.591 82.0115" fill="#C5CCD6"/>
<path d="M200.883 92.3265C200.883 92.3265 194.808 95.6222 191.85 97.1072C188.884 98.5969 185.644 100.585 185.644 100.585L184.54 99.4655L183.136 102.36C183.136 102.36 178.475 105.013 176.278 107.248C174.069 109.491 172.387 112.435 172.143 113.109C172.143 113.109 178.026 105.786 182.603 103.65L183.834 103.062L184.568 100.766L185.66 101.941C185.66 101.941 199.011 94.3162 200.883 92.3265" fill="#262864"/>
<path d="M103.447 93.0324C103.447 93.0324 105.711 93.4138 106.54 92.9952C107.368 92.5765 109.533 92.294 112.039 93.1813C114.549 94.0697 114.34 93.9336 115.33 94.0302C116.32 94.1267 117.93 94.2278 118.452 94.5558C118.975 94.8837 119.97 95.5094 119.048 96.8118C118.126 98.1166 114.679 96.8898 114.118 96.7874C113.557 96.6839 112.943 97.6689 113.222 98.555C113.501 99.4423 118.699 105.077 119.513 105.637C120.329 106.198 123.841 108.526 123.993 109.445C124.145 110.364 123.949 110.495 123.949 110.495C123.949 110.495 124.973 111.413 124.612 112.265C124.249 113.117 122.655 111.811 122.36 112.008C122.36 112.008 122.62 112.954 122.23 113.129C121.841 113.302 119.562 112.425 119.288 112.153C119.288 112.153 119.024 112.881 117.721 112.127C116.421 111.376 111.437 108.568 110.853 108.037C110.269 107.508 108.307 105.708 107.499 105.228C106.691 104.748 105.299 103.11 104.604 102.466C103.91 101.823 100.816 100.27 99.6342 100.045C98.4527 99.8191 103.447 93.0324 103.447 93.0324" fill="#FBC9C2"/>
<path d="M107.419 103.214C106.275 101.141 102.434 99.5354 102.434 99.5354C102.693 97.848 105.141 93.1894 105.141 93.1894C104.294 93.1743 103.447 93.0324 103.447 93.0324C103.447 93.0324 98.4527 99.8191 99.6342 100.045C100.816 100.27 103.91 101.823 104.604 102.466C105.299 103.11 106.691 104.748 107.499 105.228C108.307 105.708 110.269 107.508 110.853 108.037C111.437 108.568 116.422 111.376 117.721 112.127C119.024 112.881 119.288 112.153 119.288 112.153C119.562 112.425 121.841 113.302 122.23 113.129C122.62 112.954 122.36 112.008 122.36 112.008C122.36 112.008 120.759 111.106 119.11 110.532C117.463 109.959 108.567 105.293 107.419 103.214" fill="#E2A79F"/>
<path d="M99.7163 85.5607C99.7163 85.5607 100.206 88.0924 100.027 90.153C99.8501 92.2207 95.6697 89.5181 95.827 89.1611C95.983 88.804 97.8109 85.6909 97.8109 85.6909L99.7163 85.5607" fill="#FBC9C2"/>
<path d="M81.485 23.2718C81.485 23.2718 83.8022 23.1672 86.6239 27.7583C89.3412 32.1797 94.1199 48.0011 96.6248 54.0691C96.8465 54.6076 97.0108 55.1657 97.1105 55.7414C97.9247 60.4756 101.74 82.7488 101.915 85.4258C101.915 85.4258 99.0053 87.3446 97.1363 87.8179L93.0287 86.4678L88.9833 46.0939L82.4306 24.7743L81.485 23.2718" fill="#262864"/>
<path d="M76.6675 144.167C76.7027 143.947 76.8623 143.577 76.8905 143.422C77.1005 142.285 76.9022 137.669 76.9022 137.669L75.8814 139.052C75.8814 139.052 76.5995 143.676 77.9945 150.905C78.3476 152.738 79.3168 154.631 79.4599 155.669C79.8834 158.765 78.0297 159.368 78.0297 159.368C74.2659 162.178 71.0488 160.481 69.892 159.579C68.7375 158.676 68.3456 157.226 66.7417 152.015C65.1496 146.841 63.7652 135.91 64.1089 133.311C64.4116 131.019 65.2529 124.617 65.2118 120.215C65.1696 115.842 61.7765 101.864 61.7765 101.864L75.8111 99.1621L85.3919 94.2441L92.7037 95.3373C92.7037 95.3373 93.6294 92.2765 94.5938 101.807C95.5723 111.471 89.6638 128.576 89.6638 128.576C88.1057 137.045 87.7079 146.784 86.8221 148.104C85.9363 149.426 82.4412 152.542 79.2076 150.12C78.6128 149.674 77.9358 149.209 77.5803 148.731L76.6675 144.167" fill="#262864"/>
<path d="M75.8815 139.052C75.8815 139.052 80.4983 126.599 82.6864 114.528C84.8358 102.667 88.5633 100.998 90.112 98.869C90.112 98.869 92.4444 99.9296 93.6799 100.138C93.83 100.163 93.965 100.176 94.0764 100.173C95.1054 100.14 88.9164 107.777 87.8042 109.736C86.6896 111.702 80.2894 128.508 79.8448 130.828C79.3977 133.155 78.9437 149.367 79.4623 150.298C79.982 151.228 77.6918 149.596 77.6918 149.596C77.6918 149.596 76.2792 146.011 75.8815 139.052" fill="#202152"/>
<path d="M87.8616 94.6139L85.3919 94.2441L75.8111 99.1621L61.7765 101.864C61.7765 101.864 65.1696 115.842 65.2118 120.215C65.2529 124.617 64.4128 131.019 64.1089 133.311C63.7675 135.887 65.1496 146.841 66.7417 152.015C67.4363 154.273 67.9044 155.825 68.3057 156.933C68.9381 159.876 71.1825 160.349 71.1825 160.349C71.1825 160.349 65.6799 143.455 66.1621 133.574C66.6385 123.832 68.0488 115.723 67.7953 113.839C67.7953 113.839 83.7787 108.968 86.774 98.7434C87.241 97.1479 87.5953 95.7826 87.8616 94.6139" fill="#202152"/>
<path d="M60.1762 25.4442C60.1762 25.4442 59.0393 26.3919 58.7941 27.3572C58.5489 28.3247 57.1445 31.7576 57.1445 31.7576C57.1445 31.7576 50.4616 40.548 49.2578 43.2413C48.0505 45.9451 47.661 47.9651 47.661 47.9651L65.3573 69.5649C65.3573 69.5649 59.1625 90.7403 60.8907 98.4644C62.6401 106.278 64.9162 109.186 67.7015 110.031C70.4904 110.876 85.3767 104.805 86.4045 97.07C87.4217 89.4239 87.0076 88.4529 87.0076 88.4529C87.0076 88.4529 93.9591 90.2914 94.3932 88.5343C94.8273 86.7818 93.518 74.1596 93.1601 72.3536C92.8035 70.5534 91.7334 50.6397 91.7334 50.6397C91.7334 50.6397 87.498 32.2693 87.2563 31.3657C87.0146 30.461 84.3841 23.5591 81.0004 23.1707C77.6179 22.7834 73.4012 28.1165 73.4012 28.1165L60.1762 25.4442" fill="#42399B"/>
<path d="M60.9704 24.7801C60.9704 24.7801 60.2712 25.2441 60.1233 26.0093C59.9743 26.7733 59.3959 28.2851 60.6548 29.8643C61.9172 31.447 72.1082 39.6897 76.2346 46.6207C80.4043 53.6272 85.5644 61.4373 85.9985 63.0561C85.9985 63.0561 87.878 51.9677 86.1791 46.8637C84.492 41.8004 79.0891 31.4831 77.9475 30.7156C76.8071 29.9492 69.7957 29.2933 69.7957 29.2933L60.9704 24.7801" fill="#F4F9FD"/>
<path d="M71.4981 35.9289C71.4981 35.9289 70.9455 36.8325 70.7824 37.5302C70.7824 37.5302 67.8223 36.0324 66.5845 35.48L71.1285 38.6106C71.1285 38.6106 71.3972 36.972 71.6236 36.7267C71.6236 36.7267 74.2166 38.692 74.5826 39.5642C74.9498 40.4387 79.7414 52.3748 79.7414 52.3748L82.2593 56.4508L82.9081 55.4635L78.7876 44.3425L76.4352 40.7585L74.8325 36.9162L71.4981 35.9289" fill="#C5CCD6"/>
<path d="M71.4982 35.9289C71.4982 35.9289 73.0058 33.1379 75.9237 33.2449C75.9237 33.2449 76.7626 36.6906 76.9984 38.0896C76.9984 38.0896 75.1153 38.8932 74.3562 38.2408C73.5983 37.5895 71.4982 35.9289 71.4982 35.9289" fill="#202152"/>
<path d="M76.5561 37.3454C76.5561 37.3454 84.0579 46.5137 86.6767 57.5811L86.1299 63.2899L82.1831 56.3171C82.1831 56.3171 75.7184 40.3073 74.2154 37.3744C72.7195 34.4555 76.5561 37.3454 76.5561 37.3454" fill="#202152"/>
<path d="M64.1254 74.1212C63.6232 76.0795 63.0319 78.5135 62.4769 81.1254C62.4816 81.1312 73.5842 95.4954 84.4228 101.346C85.4787 100.009 86.205 98.5713 86.4045 97.07C86.9418 93.0289 87.0802 90.8566 87.0908 89.703L74.4853 80.2299L64.1254 74.1212Z" fill="#262864"/>
<path d="M63.371 53.0178C63.371 53.0178 66.5798 57.3578 67.4363 57.752C68.2916 58.1451 75.2338 70.2103 76.6394 72.4838C78.0508 74.7654 81.7912 77.9599 81.7912 77.9599L78.2562 78.3006L64.4187 59.9081L63.371 53.0178Z" fill="#262864"/>
<path d="M65.3338 56.845C63.9423 53.3714 61.7601 50.3199 58.9524 47.9929C55.76 45.345 51.5738 42.7622 49.3563 45.0857C45.4587 49.1698 47.1166 56.8601 52.5347 64.0585C58.0115 71.336 66.6432 81.6975 68.6811 83.4407C70.6381 85.113 87.3806 97.5968 96.979 102.262C97.6936 102.61 98.5277 102.345 98.9536 101.648C100.278 99.4819 103.021 94.9651 104.003 93.108C104.203 92.73 104.083 92.2486 103.729 92.023C100.221 89.7902 82.7004 78.624 77.5134 75.155C76.7203 74.6247 76.0715 73.8932 75.6233 73.028C74.1063 70.0952 70.2087 62.8782 66.7781 59.1929C66.1656 58.537 65.6975 57.7567 65.3608 56.9136L65.3338 56.845Z" fill="#4641A1"/>
<path d="M78.2186 27.0873L84.3478 33.2275L82.765 33.7717L84.7842 34.9358C84.7842 34.9358 89.6873 46.4149 88.6184 59.4173C88.6184 59.4173 91.0529 49.193 85.7791 34.6985L84.1483 33.8787L85.2488 33.5321L78.2186 27.0873Z" fill="#262864"/>
<path d="M60.8425 23.7393C60.954 23.9765 61.015 24.2358 60.9927 24.4998C60.9469 25.0441 60.8824 25.9628 60.9329 26.3558C61.0068 26.9315 64.848 33.3449 72.7019 33.4019C72.7019 33.4019 73.6428 32.0111 73.8305 31.7389C73.8305 31.7389 77.0077 31.5924 78.33 30.4435C79.6511 29.2968 78.838 27.2896 78.838 27.2896L79.0293 24.8859C79.0527 24.5952 79.1818 24.3242 79.3942 24.1254C79.6746 23.8626 80.0418 23.4741 80.1098 23.1916C80.1779 22.9043 79.9913 22.4043 79.84 22.0659C79.7356 21.8344 79.6922 21.5844 79.7215 21.3309C79.7919 20.7239 79.8529 19.4307 79.42 17.8189C79.2944 17.3549 79.2909 16.8653 79.4094 16.399C79.6053 15.6327 79.8822 14.5011 79.9139 14.0976C79.9644 13.4673 78.8861 11.7916 78.838 11.131C78.7899 10.4717 77.863 8.23653 77.863 8.23653C77.863 8.23653 72.0261 -2.50641 62.6012 2.14406C53.106 6.82942 58.056 16.8851 59.2293 19.7354C59.2293 19.7354 60.3627 22.0554 60.5621 22.5717C60.7287 23.0032 60.6079 23.2381 60.8425 23.7393" fill="#FBC9C2"/>
<path d="M78.6961 9.36696C78.7782 10.1287 78.4873 10.8764 77.9089 11.3834C76.7685 12.3847 74.4923 14.0267 71.4888 14.4221C69.3734 14.7001 68.2189 14.8059 67.5912 14.8396C67.1676 14.8628 66.8309 15.2024 66.8075 15.6269C66.7652 16.4072 66.6866 17.5945 66.574 18.3946C66.5294 18.7144 66.4344 19.0237 66.2947 19.3179L65.626 20.7251C65.4594 21.074 65.0968 21.2868 64.7155 21.2577L64.5607 21.2461C64.1348 21.2135 63.7933 20.8891 63.7358 20.4634L63.7276 20.403C63.5798 19.3017 62.9286 18.3179 61.9349 17.8527C61.4327 17.619 60.8625 17.5143 60.2947 17.7457C58.6697 18.4074 59.3432 19.9715 59.3432 19.9715C59.3432 19.9715 57.3709 17.6248 56.4816 14.5C55.5969 11.3904 55.8023 5.76659 59.9052 2.8256C63.9881 -0.101443 69.3218 -1.28762 73.8728 1.88479C77.6331 4.50483 78.5119 7.66562 78.6961 9.36696" fill="#A7797E"/>
<path d="M63.1621 22.5391C62.9556 22.2926 63.2185 24.4394 60.9928 24.4998C60.947 25.0441 60.8825 25.9628 60.9329 26.3558C61.0069 26.9315 64.8481 33.3449 72.7019 33.4019C72.7019 33.4019 73.6429 32.0111 73.8306 31.7389C73.8306 31.7389 66.6233 28.27 65.3456 26.6942C64.0726 25.1232 63.3686 22.7868 63.1621 22.5391Z" fill="#E2A79F"/>
<path d="M75.9237 33.2449C75.9237 33.2449 78.0614 33.4879 79.0598 34.0159C79.0598 34.0159 79.3426 32.9181 78.7724 31.7308C78.7724 31.7308 79.4118 32.2401 79.4048 34.7695C79.4048 34.7695 76.2675 33.7589 76.0317 33.6926L75.9237 33.2449Z" fill="#C5CCD6"/>
<path d="M99.8019 99.9424C99.8019 99.9424 81.621 89.5844 75.4602 85.4549C69.3382 81.351 52.1135 63.9352 48.5878 57.2311C49.4924 59.4697 50.8264 61.7885 52.5347 64.0585C58.0115 71.336 66.6432 81.6975 68.6811 83.4407C70.6381 85.113 87.3806 97.5968 96.9802 102.262C97.6936 102.61 98.5278 102.345 98.9536 101.648C99.2106 101.229 99.5215 100.718 99.8629 100.158C99.8254 100.025 99.8019 99.9424 99.8019 99.9424Z" fill="#262864"/>
<path d="M57.9893 32.3018L66.2948 44.0088L68.4313 43.2564L68.5486 45.4904C68.5486 45.4904 78.4885 52.8295 85.9223 68.0752C85.9223 68.0752 76.0833 52.3725 68.2494 47.1463L67.5373 44.9031L65.8712 45.2822L57.9893 32.3018" fill="#262864"/>
<path d="M57.243 16.013L56.9837 15.9362C57.9563 18.3155 59.3431 19.9715 59.3431 19.9715C59.3431 19.9715 58.6697 18.4074 60.2946 17.7457C60.8625 17.5143 61.4327 17.619 61.9349 17.8527C62.9286 18.3179 63.5798 19.3017 63.7276 20.403L63.7358 20.4634C63.7933 20.8891 64.1347 21.2135 64.5606 21.2461L64.7155 21.2577C65.0968 21.2868 65.4593 21.074 65.6259 20.7251L66.2947 19.3179C66.4343 19.0237 66.5294 18.7144 66.574 18.3946C66.6866 17.5945 66.7652 16.4072 66.8074 15.6269C66.8074 15.6269 61.2661 17.4038 57.243 16.013" fill="#8E6267"/>
<defs>
<radialGradient id="paint0_radial_72_62" cx="0" cy="0" r="1" gradientUnits="userSpaceOnUse" gradientTransform="translate(241.95 -536.195) rotate(90) scale(1174.22 1184.68)">
<stop stop-color="#2D2F7D"/>
<stop offset="1" stop-color="#212354"/>
</radialGradient>
<radialGradient id="paint1_radial_72_62" cx="0" cy="0" r="1" gradientUnits="userSpaceOnUse" gradientTransform="translate(241.95 -536.195) rotate(90) scale(1174.22 1184.68)">
<stop stop-color="#32328E"/>
<stop offset="1" stop-color="#2A2C70"/>
</radialGradient>
<linearGradient id="paint2_linear_72_62" x1="159.295" y1="155.878" x2="390.622" y2="255.369" gradientUnits="userSpaceOnUse">
<stop stop-color="#C5BAE3"/>
<stop offset="1" stop-color="#EDE9F6"/>
</linearGradient>
<linearGradient id="paint3_linear_72_62" x1="-126.438" y1="8.6389" x2="183.353" y2="135.023" gradientUnits="userSpaceOnUse">
<stop stop-color="#9D91D0"/>
<stop offset="1" stop-color="#BFB7DC"/>
</linearGradient>
<linearGradient id="paint4_linear_72_62" x1="313.049" y1="342.203" x2="228.482" y2="149.788" gradientUnits="userSpaceOnUse">
<stop stop-color="#9D91D0"/>
<stop offset="1" stop-color="#BFB7DC"/>
</linearGradient>
</defs>
</svg>
