<svg width="610" height="564" viewBox="0 0 610 564" fill="none" xmlns="http://www.w3.org/2000/svg">
<path d="M261.825 189.913C245.873 207.376 261.758 230.057 263.319 277.336C263.319 277.336 256.31 301.987 252.053 324.234C247.795 346.481 241.581 366.821 241.581 366.821L252.451 371.457C252.451 371.457 283.61 308.75 287.45 279.627L281.375 201.68L261.825 189.913Z" fill="#F57559"/>
<path d="M260.364 115.031C278.765 93.9812 320.081 98.9416 333.021 114.027C348.67 132.27 335.936 172.08 335.936 172.08C335.936 172.08 291.39 151.527 264.514 185.508C264.514 185.508 239.782 138.574 260.364 115.031Z" fill="#CF2548"/>
<path d="M310.285 148.719C310.285 148.719 310.481 164.3 320.032 177.534C320.032 177.534 314.414 187.708 295.694 183.065C295.694 183.065 297.234 169.683 283.512 154.886C274.322 144.976 310.285 148.719 310.285 148.719Z" fill="#EF5640"/>
<path d="M271.416 141.101C271.416 141.101 263.237 136.037 263.321 142.811C263.415 150.658 272.88 152.972 274.278 150.346C275.673 147.722 271.416 141.101 271.416 141.101Z" fill="#F57559"/>
<path d="M322.843 136.883C322.843 136.883 329.337 130.497 331.224 137.109C333.412 144.768 324.865 148.702 322.743 146.393C320.62 144.086 322.843 136.883 322.843 136.883Z" fill="#F57559"/>
<path d="M300.459 166.944C284.183 168.409 273.774 160.921 270.104 135.984C268.212 123.12 275.42 114.477 293.651 112.837C311.882 111.195 320.72 118.393 322.612 131.259C326.555 158.055 317.274 165.432 300.459 166.944Z" fill="#F57559"/>
<path d="M318.532 140.639C319.005 141.892 317.763 143.285 315.759 143.747C313.753 144.21 311.744 143.569 311.271 142.315C310.798 141.061 312.038 139.669 314.044 139.206C316.048 138.743 318.057 139.385 318.532 140.639Z" fill="#DC4B44"/>
<path d="M285.155 144.347C285.239 145.654 283.612 146.778 281.524 146.858C279.436 146.938 277.677 145.945 277.593 144.64C277.512 143.334 279.138 142.209 281.226 142.129C283.314 142.049 285.073 143.042 285.155 144.347Z" fill="#DC4B44"/>
<path d="M309.57 128.25C309.272 128.42 308.857 128.416 308.563 128.225C306.04 126.579 302.081 127.013 302.041 127.017C301.594 127.069 301.177 126.827 301.111 126.477C301.044 126.127 301.351 125.803 301.801 125.75C301.995 125.728 306.531 125.232 309.612 127.241C309.959 127.467 310.006 127.871 309.717 128.143C309.673 128.185 309.621 128.221 309.57 128.25Z" fill="#CF2548"/>
<path d="M285.509 128.422C285.392 128.489 285.253 128.531 285.099 128.542C285.059 128.546 281.072 128.83 279.096 130.878C278.821 131.162 278.309 131.215 277.948 131.002C277.589 130.789 277.517 130.388 277.789 130.106C280.206 127.598 284.768 127.277 284.961 127.266C285.411 127.235 285.805 127.498 285.844 127.851C285.87 128.081 285.735 128.296 285.509 128.422Z" fill="#CF2548"/>
<path d="M308.771 135.248C309.004 136.83 308.282 138.193 307.159 138.293C306.036 138.395 304.938 137.196 304.705 135.614C304.472 134.034 305.194 132.669 306.318 132.569C307.438 132.469 308.538 133.668 308.771 135.248Z" fill="#22434D"/>
<path d="M286.08 137.291C286.313 138.873 285.593 140.236 284.47 140.336C283.346 140.438 282.247 139.239 282.014 137.657C281.783 136.075 282.503 134.712 283.626 134.612C284.749 134.51 285.849 135.711 286.08 137.291Z" fill="#22434D"/>
<path d="M291.337 152.351C291.337 152.351 301.636 152.548 306.539 149.949C306.539 149.949 304.453 156.085 298.84 156.058C293.224 156.028 291.337 152.351 291.337 152.351Z" fill="#22434D"/>
<path d="M303.183 134.957C303.183 134.957 304.094 130.929 306.089 131.033C308.086 131.137 310.06 134.337 310.06 134.337L312.774 132.881L309.927 133.437C309.927 133.437 307.911 130.093 305.977 130.26C303.223 130.499 303.183 134.957 303.183 134.957Z" fill="#22434D"/>
<path d="M287.45 136.855C287.45 136.855 285.395 133.096 283.479 133.55C281.564 134.005 280.574 137.473 280.574 137.473L277.507 136.536L280.441 136.573C280.441 136.573 281.434 132.957 283.365 132.777C286.117 132.52 287.45 136.855 287.45 136.855Z" fill="#22434D"/>
<path d="M298.561 145.109C298.239 145.291 297.873 145.448 297.463 145.575L296.811 144.291C298.209 143.855 298.421 143.13 298.353 142.598C298.258 141.847 297.573 141.198 297.023 141.12C296.701 141.074 296.403 141.267 296.132 141.694L294.55 141.078C295.452 139.656 296.801 139.684 297.342 139.76C298.728 139.959 299.942 141.145 300.11 142.461C300.248 143.532 299.679 144.473 298.561 145.109Z" fill="#DC4B44"/>
<path d="M298.937 114.896C298.937 114.896 276.465 119.895 274.557 142.071C272.649 164.247 257.202 167.121 257.202 167.121C257.202 167.121 234.793 93.7443 300.13 101.054C300.13 101.054 314.058 99.7689 325.59 110.185C337.122 120.602 323.397 142.071 323.397 142.071C323.397 142.071 322.367 132.099 320.032 130.255C320.032 130.255 306.974 126.594 298.937 114.896Z" fill="#CF2548"/>
<path d="M391.608 309.493C381.682 282.607 362.045 262.679 362.045 262.679L332.392 266.524L332.094 266.103L329.691 266.479L329.346 266.473L329.353 266.532L298.733 271.319C298.733 271.319 285.553 290.514 276.79 317.647C268.026 344.779 294.245 413.318 294.245 413.318C294.245 413.318 279.486 445.477 313.66 529.304H329.763C329.763 529.304 323.759 424.893 326.089 413.318C328.1 403.333 330.684 366.75 329.363 338.74C331.22 339.052 333.165 339.179 335.197 339.074L335.2 339.072C335.092 367.092 339.242 403.528 341.68 413.445C344.506 424.955 342.996 529.527 342.996 529.527L359.091 529.102C389.641 444.423 373.505 412.609 373.505 412.609C373.505 412.609 401.532 336.38 391.608 309.493Z" fill="#F57559"/>
<path d="M365.133 263.323C332.86 282.366 298.677 272.945 298.677 272.945C298.677 272.945 289.753 261.318 277.496 238.411C269.62 233.436 267.919 226.201 268.175 220.279C262.21 208.033 254.241 199.486 258.319 193.217C261.721 188.005 273.115 184.652 284.23 181.809C285.139 181.59 286.071 181.353 286.98 181.135C293.854 179.404 300.378 177.855 304.502 176.142C311.609 173.171 316.899 170.438 321 167.631C322.724 166.465 324.239 165.28 325.59 164.078C331.742 158.592 334.888 152.433 339.641 143.594C341.552 140.004 368.139 129.562 369.747 194.274C370.329 217.709 365.739 220.133 364.574 237.773C363.618 252.37 365.133 263.323 365.133 263.323Z" fill="#91C1DF"/>
<path d="M366.316 539.792C365.333 534.552 367.807 530.826 366.057 528.299C363.352 524.392 360.495 529.332 360.495 529.332C360.267 523.382 347.521 523.393 346.244 526.115C345.904 526.844 345.515 527.498 345.114 528.126C344.322 526.691 342.982 525.299 341.237 526.115C334.426 529.304 342.893 537.538 336.698 543.537C328.81 551.173 333.666 562.715 333.666 562.715H371.442C375.865 546.529 367.299 545.011 366.316 539.792Z" fill="#91C1DF"/>
<path d="M342.984 537.837C342.984 537.837 351.916 534.165 363.762 539.025L361.432 535.683C361.432 535.683 353.587 531.858 344.073 534.713L342.984 537.837Z" fill="#D2DADC"/>
<path d="M341.428 543.388C341.428 543.388 354.143 539.935 365.988 544.793L363.762 541.252C363.762 541.252 352.498 537.439 342.984 540.293L341.428 543.388Z" fill="#D2DADC"/>
<path d="M305.93 539.792C306.914 534.552 304.439 530.826 306.189 528.299C308.894 524.392 311.751 529.332 311.751 529.332C311.979 523.382 324.725 523.393 326.002 526.115C326.342 526.844 326.731 527.498 327.132 528.126C327.922 526.691 329.264 525.299 331.01 526.115C337.821 529.304 329.353 537.538 335.549 543.537C343.436 551.173 338.58 562.715 338.58 562.715H300.804C296.379 546.529 304.947 545.011 305.93 539.792Z" fill="#91C1DF"/>
<path d="M329.262 537.837C329.262 537.837 320.331 534.165 308.484 539.025L310.815 535.683C310.815 535.683 318.66 531.858 328.174 534.713L329.262 537.837Z" fill="#D2DADC"/>
<path d="M330.819 543.388C330.819 543.388 318.103 539.935 306.259 544.793L308.484 541.252C308.484 541.252 319.748 537.439 329.262 540.293L330.819 543.388Z" fill="#D2DADC"/>
<path d="M226.004 373.226C238.358 371.034 238.456 362.635 249.044 364.025C251.23 364.313 252.642 365.168 253.556 366.183C255.303 368.12 255.196 370.71 253.702 372.772C250.275 377.507 247.29 384.284 246.169 387.796C244.862 391.809 243.466 390.005 243.466 390.005C243.384 390.384 243.333 390.746 243.28 391.109C242.846 393.862 243.056 395.942 241.012 394.462C238.694 392.804 239.463 384.946 239.463 384.946C234.893 395.956 237.722 398.052 235.436 396.725C232.309 394.919 234.427 384.94 234.49 384.641C230.326 390.843 230.261 394.692 228.667 392.944C227.055 391.173 232.552 379.502 234.651 375.224C235.119 374.259 235.432 373.665 235.432 373.665C225.519 375.974 226.004 373.226 226.004 373.226Z" fill="#F57559"/>
<path d="M234.651 375.224C235.119 374.26 235.432 373.665 235.432 373.665C235.432 373.665 239.598 374.54 243.452 371.375C243.452 371.375 241.558 376.049 234.651 375.224Z" fill="#EF5640"/>
<path d="M244.568 381.82C244.284 382.768 242.597 388.188 243.466 390.005C243.385 390.384 243.333 390.746 243.28 391.109C240.721 390.322 244.037 382.941 244.568 381.82Z" fill="#EF5640"/>
<path d="M336.698 543.537C336.698 543.537 329.125 550.977 332.187 562.715H338.581C338.581 562.715 340.053 552.166 336.698 543.537Z" fill="#6296AE"/>
<path d="M341.262 16.679C341.262 16.679 341.262 16.679 345.047 26.352C348.807 36.0396 350.613 35.0027 357.177 36.8633C363.313 38.6091 368.625 30.1972 369.595 26.2682C370.443 22.9533 378.333 16.9743 378.081 14.0858C377.983 12.9195 376.93 13.4972 374.765 15.6221C372.214 18.1114 368.793 19.7114 368.793 19.7114C367.029 16.4385 377.396 8.14498 374.835 4.8684C373.582 3.27932 367.358 16.3036 364.587 16.4421C364.587 16.4421 363.804 15.3013 366.2 8.72082C367.57 4.94128 369.024 1.05972 367.821 0.192284C365.629 -1.37675 364.51 6.92401 358.85 15.3031C358.85 15.3031 359.403 11.0425 360.253 7.12084C361.05 3.54358 362.271 0.265171 360.202 0.139427C358.503 0.0300865 357.459 5.64108 356.618 9.19465C355.038 15.8189 352.042 20.3966 350.275 22.6672C349.446 23.7625 348.866 24.3128 348.866 24.3128C343.968 14.6999 341.262 16.679 341.262 16.679Z" fill="#F57559"/>
<path d="M351.485 30.642C351.485 30.642 342.343 78.4785 339.14 97.061C337.224 108.179 340.747 163.917 340.747 163.917C340.747 163.917 349.203 188.781 358.477 187.464C365.354 186.487 366.81 178.78 367.393 165.76C367.975 152.739 357.809 123.91 359.16 109.888C361.858 81.8954 359.093 68.6834 362.441 33.3755L351.485 30.642Z" fill="#F57559"/>
<path d="M396.963 384.162C396.52 388.736 396.147 391.506 396.147 391.506C396.147 391.506 351.268 412.39 338.569 395.534C338.569 395.534 336.495 395.005 334.421 385.274C334.398 385.201 334.375 385.146 334.375 385.11C334.375 385.092 334.375 385.092 334.375 385.092C333.373 380.445 332.371 373.738 331.602 364.062C331.742 366.686 332.627 378.148 332.324 387.461C332.231 390.504 331.998 393.329 331.578 395.534C331.578 395.534 314.895 411.024 274.56 393.784C274.56 393.784 274.024 391.543 273.371 387.57C271.344 375.142 268.222 345.765 277.029 315.186C281.154 300.826 287.935 286.211 298.677 272.945C298.677 272.945 301.449 272.908 305.923 272.708C310.374 272.507 316.549 272.161 323.4 271.523C325.31 271.341 327.244 271.159 329.225 270.94C336.495 270.12 344.208 268.99 351.268 267.423C356.348 266.311 361.101 264.944 365.133 263.323C365.133 263.323 382.166 280.161 391.58 301.665C393.467 306.002 395.075 310.539 396.147 315.15C401.04 336.143 398.477 369.492 396.963 384.162Z" fill="#2A5A9F"/>
<path d="M391.58 301.665C368.745 298.056 356.628 278.995 351.268 267.423C356.348 266.311 361.102 264.944 365.133 263.323C365.133 263.323 382.166 280.161 391.58 301.665Z" fill="#234E7E"/>
<path d="M305.924 272.708C302.382 281.382 296.393 295.906 293.621 302.284C291.826 306.421 284.579 311.159 277.03 315.186C281.154 300.826 287.935 286.211 298.677 272.945C298.677 272.945 301.45 272.908 305.924 272.708Z" fill="#234E7E"/>
<path d="M331.579 363.971C324.076 338.002 323.353 291.587 323.4 271.523C325.311 271.341 327.245 271.159 329.225 270.94C336.822 314.148 327.501 311.615 327.501 311.615C326.452 327.032 331.322 362.002 331.579 363.971Z" fill="#234E7E"/>
<path d="M332.324 387.461C332.231 390.504 331.998 393.329 331.579 395.534C331.579 395.534 314.895 411.023 274.56 393.784C274.56 393.784 274.024 391.543 273.372 387.57C282.203 391.543 295.252 396.682 305.924 397.793C319.229 399.16 328.456 391.506 332.324 387.461Z" fill="#234E7E"/>
<path d="M396.962 384.162C396.519 388.736 396.147 391.506 396.147 391.506C396.147 391.506 351.268 412.39 338.569 395.534C338.569 395.534 336.471 395.005 334.374 385.11C334.491 385.584 336.285 392.108 352.992 396.099C364.969 398.978 385.451 389.994 396.962 384.162Z" fill="#234E7E"/>
<path d="M365.669 265.783C363.921 272.671 306.763 277.628 296.836 275.277C296.836 275.277 295.322 272.015 294.669 269.628C294.343 268.407 294.226 267.423 294.646 267.222C294.646 267.222 329.342 269.482 364.527 256.416C364.527 256.416 365.25 257.035 365.762 258.53C366.252 260.006 366.531 262.338 365.669 265.783Z" fill="#2A5A9F"/>
<path d="M365.669 265.783C363.921 272.671 306.762 277.628 296.836 275.277C296.836 275.277 295.321 272.015 294.669 269.628C294.669 269.628 327.804 272.343 365.762 258.53C366.251 260.006 366.531 262.338 365.669 265.783Z" fill="#1F436B"/>
<path d="M318.693 269.021C318.693 269.021 319.014 274.674 320.492 275.27C321.971 275.866 332.205 274.229 332.205 274.229C332.205 274.229 333.566 270.016 332.205 267.514L318.693 269.021Z" fill="#91C1DF"/>
<path d="M343.136 263.322C343.136 263.322 345.466 267.058 345.856 273.436H349.157C349.157 273.436 349.544 266.198 347.021 262.679L343.136 263.322Z" fill="#2A5A9F"/>
<path d="M305.625 268.923L309.12 268.928C309.12 268.928 309.509 272.788 311.646 277.95H308.636C308.636 277.95 304.267 274.472 305.625 268.923Z" fill="#2A5A9F"/>
<path d="M325.59 164.078C318.483 176.251 305.364 200.707 302.265 220.552L301.916 222.702L300.191 221.008C299.213 220.024 277.892 198.83 284.23 181.809C285.139 181.59 286.071 181.353 286.979 181.135C280.711 194.784 295.228 212.497 300.331 218.092C303.64 200.616 313.916 180.224 321 167.631C322.724 166.465 324.239 165.28 325.59 164.078Z" fill="#D2DADC"/>
<path d="M306.369 224.082C306.369 227.604 303.976 230.46 301.021 230.46C298.069 230.46 295.673 227.604 295.673 224.082C295.673 220.559 298.069 217.704 301.021 217.704C303.976 217.704 306.369 220.559 306.369 224.082Z" fill="#D2DADC"/>
<path d="M303.738 224.082C303.738 226.458 302.123 228.383 300.131 228.383C298.138 228.383 296.524 226.458 296.524 224.082C296.524 221.705 298.138 219.779 300.131 219.779C302.123 219.779 303.738 221.705 303.738 224.082Z" fill="#1F436B"/>
<path d="M407.561 382.427C407.116 381.641 406.826 381.157 406.826 381.157C406.826 381.157 403.799 382.181 400.612 379.756C400.612 379.756 402.483 383.592 407.561 382.427Z" fill="#EF5640"/>
<path d="M400.794 388.689C401.097 389.474 402.885 393.957 402.411 395.557C402.509 395.873 402.582 396.177 402.658 396.482C404.493 395.64 401.298 389.604 400.794 388.689Z" fill="#EF5640"/>
<path d="M588.867 138.808C587.712 147.757 582.358 158.849 575.691 169.724C574.012 172.489 572.227 175.239 570.407 177.926C568.115 181.344 565.753 184.653 563.443 187.807C561.256 190.774 559.103 193.586 557.074 196.18C549.182 206.278 542.935 213.223 542.935 213.223L524.23 163.276L538.036 146.234L542.096 141.201L546.12 136.229L550.215 131.165L554.537 125.836C555.621 99.7521 551.334 59.3755 562.393 56.8277C562.393 56.8277 575.989 55.4917 580.783 57.3093C590.984 61.1932 593.364 103.76 588.867 138.808Z" fill="#234E7E"/>
<path d="M584.918 28.6124C583.52 30.0277 581.207 35.5288 581.207 35.5288C580.236 40.1521 579.672 42.7045 577.847 44.8267C576.04 46.9473 576.991 50.6913 576.991 50.6913C576.991 50.6913 569.921 53.9164 563.977 49.9316C563.977 49.9316 564.598 46.2233 563.977 45.1716C562.752 43.0665 558.827 41.9448 557.487 37.7037C556.146 33.4423 552.125 28.6994 552.125 28.6994C552.125 28.6994 553.271 26.4918 555.369 27.8371C557.487 29.1996 558.827 32.5972 559.973 32.9421C560.208 33.012 560.44 33.0632 560.673 33.0803C560.673 33.0803 560.692 33.0803 560.731 33.0974C561.606 33.1999 562.5 33.0291 563.044 32.563C563.082 32.5459 563.14 32.5102 563.179 32.4589C565.102 30.475 565.55 24.6461 565.471 22.0409C565.355 18.4196 565.511 13.4172 567.998 14.2623C570.484 15.1074 568.211 17.1255 570.134 25.1107L571.067 25.2148C571.242 25.7849 572.951 20.3677 573.359 15.2798C573.651 11.7782 576.234 13.0723 576.797 14.1753C577.38 15.2799 576.507 18.7644 576.332 21.2998C576.195 22.973 576.04 24.7145 575.943 25.7492L577.03 26.2852C580.955 20.2124 579.614 17.6941 581.907 17.5729C584.18 17.4533 583.364 22.5753 582.139 24.525C581.616 25.3701 581.11 27.1288 580.703 28.8547C584.724 24.7316 584.278 22.5753 586.122 22.8348C588.026 23.1113 586.316 27.1987 584.918 28.6124Z" fill="#F57559"/>
<path d="M563.443 187.807C561.256 190.774 559.103 193.586 557.074 196.18C555.481 162.375 542.953 149.869 538.036 146.234L542.096 141.201C547.765 145.271 560.188 157.497 563.443 187.807Z" fill="#D2DADC"/>
<path d="M575.692 169.723C574.012 172.489 572.227 175.239 570.407 177.926C564.983 148.766 549.375 138.14 546.12 136.229L550.215 131.165C554.694 133.821 568.955 144.09 575.692 169.723Z" fill="#D2DADC"/>
<path d="M434.555 341.996C428.535 340.334 402.079 305.581 399.209 285.478C397.757 275.194 404.038 254.05 412.892 232.782C413.89 230.374 414.922 227.95 415.989 225.558C417.512 222.125 419.086 218.722 420.696 215.382C421.869 212.943 423.059 210.535 424.266 208.189C429.9 197.159 435.709 187.403 440.784 180.816L447.87 239.85L449.095 249.964L450.163 258.912L450.023 259.114L446.331 264.412L434.555 281.299C434.555 281.299 446.82 320.402 450.163 324.115C453.522 327.828 440.574 343.658 434.555 341.996Z" fill="#234E7E"/>
<path d="M449.095 249.964C437.179 240.037 426.401 224.424 420.696 215.382C421.869 212.943 423.059 210.535 424.266 208.189C427.836 214.124 437.127 228.836 447.87 239.85L449.095 249.964Z" fill="#D2DADC"/>
<path d="M450.023 259.114L446.331 264.412C431.807 255.883 419.909 242.134 412.892 232.782C413.89 230.374 414.922 227.95 415.989 225.558C422.026 234.04 434.642 250.011 450.023 259.114Z" fill="#D2DADC"/>
<path d="M444.49 327.501C444.49 327.501 436.199 330.712 437.074 337.573L450.169 348.125L453.26 337.573L444.49 327.501Z" fill="#F57559"/>
<path d="M609.086 560.399C609.086 562.089 608.892 563.279 608.892 563.279H553.854C553.854 562.313 553.873 561.349 553.933 560.399C554.554 547.618 559.1 536.527 559.1 536.527L572.853 531.284C574.04 537.579 577.09 541.598 580.916 544.221C581.926 544.927 582.976 545.515 584.064 546.013C584.568 546.255 585.074 546.479 585.599 546.686C586.745 547.152 587.929 547.532 589.114 547.842C593.971 549.153 598.886 549.429 602.325 549.895C608.192 550.705 609.086 556.725 609.086 560.399Z" fill="#EF294D"/>
<path d="M609.086 560.399C609.086 562.089 608.892 563.279 608.892 563.279H553.854C553.854 562.313 553.873 561.349 553.933 560.399H609.086Z" fill="#ACBFC3"/>
<path d="M511.391 560.399C511.254 562.055 510.769 563.279 510.769 563.279H474.11C473.644 562.332 473.314 561.382 473.081 560.399C469.468 544.823 493.828 525.764 493.828 525.764L501.56 534.924C501.56 534.924 500.666 549.585 507.214 552.638C511.139 554.466 511.643 557.915 511.391 560.399Z" fill="#EF294D"/>
<path d="M473.081 560.399H511.391C511.254 562.055 510.77 563.279 510.77 563.279H474.11C473.645 562.332 473.314 561.382 473.081 560.399Z" fill="#ACBFC3"/>
<path d="M505.538 551.469C505.538 551.469 490.094 548.344 483.051 552.392V550.127C483.051 550.127 496.043 544.522 505.538 551.469Z" fill="#ACBFC3"/>
<path d="M502.479 547.991C502.479 547.991 492.617 543.988 483.051 547.991L484.143 545.707C484.143 545.707 495.569 541.873 502.479 547.991Z" fill="#ACBFC3"/>
<path d="M450.169 308.64C450.169 339.602 453.603 371.134 454.483 379.133C455.365 387.131 464.693 476.486 466.005 511.052C466.677 528.758 473.081 550.191 473.081 550.191C473.081 550.191 492.08 536.557 502.841 546.686L505.538 532.87L500.495 521.992C500.495 521.992 505.884 512.994 501.475 506.003C497.063 499.012 495.713 349.577 495.713 349.577L504.199 349.094L548.428 521.992V531.841C548.428 531.841 553.777 544.383 553.854 552.392L582.668 544.221L578.257 532.87L579.439 516.665L571.361 495.532C571.361 495.532 541.482 330.259 543.77 311.713L450.169 308.64Z" fill="#872B39"/>
<path d="M453.259 327.501C453.259 327.501 444.904 339.776 444.49 348.125L456.759 365.019L453.259 327.501Z" fill="#872B39"/>
<path d="M535.936 156.654C535.936 156.654 531.474 167.249 499.191 168.69C469.63 170.011 446.029 176.45 440.78 180.824C435.531 185.197 449.198 330.321 449.198 330.321C474.033 328.78 501.438 353.467 547.516 344.047C547.516 344.047 540.517 276.081 541.683 241.772C542.85 207.464 535.936 156.654 535.936 156.654Z" fill="#EF294D"/>
<path d="M504.624 156.654C504.624 156.654 501.917 164.594 506.202 168.69C506.202 168.69 499.109 181.038 483.294 170.924C483.294 170.924 486.304 164.173 483.294 159.789L504.624 156.654Z" fill="#EF5640"/>
<path d="M473.669 136.675C473.669 136.675 467.725 131.409 466.993 137.565C466.145 144.698 473.441 147.57 474.867 145.302C476.294 143.032 473.669 136.675 473.669 136.675Z" fill="#F57559"/>
<path d="M515.287 137.046C515.287 137.046 521.231 131.78 521.963 137.937C522.811 145.069 515.515 147.941 514.089 145.673C512.663 143.405 515.287 137.046 515.287 137.046Z" fill="#F57559"/>
<path d="M493.853 162.509C480.665 162.509 473.221 154.861 473.221 131.921C473.221 120.09 480.001 112.833 494.773 112.833C509.545 112.833 515.765 120.09 515.765 131.921C515.765 156.57 507.476 162.509 493.853 162.509Z" fill="#F57559"/>
<path d="M511.398 140.104C511.63 141.28 510.472 142.443 508.815 142.7C507.158 142.956 505.627 142.21 505.396 141.033C505.165 139.855 506.322 138.693 507.979 138.437C509.636 138.181 511.167 138.926 511.398 140.104Z" fill="#DC4B44"/>
<path d="M484.273 140.744C484.185 141.937 482.754 142.824 481.074 142.726C479.396 142.63 478.105 141.584 478.192 140.393C478.28 139.2 479.711 138.313 481.391 138.41C483.07 138.507 484.36 139.552 484.273 140.744Z" fill="#DC4B44"/>
<path d="M507.123 128.014C506.951 128.037 506.769 128.002 506.621 127.899C504.523 126.467 501.371 126.975 501.324 126.981C500.972 127.032 500.622 126.832 500.556 126.513C500.486 126.195 500.724 125.89 501.081 125.83C501.219 125.803 504.862 125.224 507.424 126.972C507.713 127.169 507.767 127.537 507.546 127.794C507.438 127.916 507.284 127.992 507.123 128.014Z" fill="#CF2548"/>
<path d="M481.882 128.095C481.721 128.078 481.565 128.006 481.455 127.887C481.224 127.635 481.265 127.267 481.544 127.062C484.045 125.244 487.702 125.726 487.844 125.748C488.204 125.799 488.449 126.097 488.393 126.416C488.337 126.736 487.987 126.948 487.641 126.905C487.618 126.897 484.409 126.49 482.383 127.968C482.236 128.073 482.055 128.115 481.882 128.095Z" fill="#CF2548"/>
<path d="M505.76 134.623C505.76 136.077 505.021 137.256 504.111 137.256C503.202 137.256 502.465 136.077 502.465 134.623C502.465 133.169 503.202 131.99 504.111 131.99C505.021 131.99 505.76 133.169 505.76 134.623Z" fill="#22434D"/>
<path d="M488.148 134.623C488.148 136.077 487.41 137.256 486.5 137.256C485.59 137.256 484.853 136.077 484.853 134.623C484.853 133.169 485.59 131.99 486.5 131.99C487.41 131.99 488.148 133.169 488.148 134.623Z" fill="#22434D"/>
<path d="M480.827 116.892C480.827 116.892 488.248 117.883 508.397 116.597C508.397 116.597 509.909 122.665 513.307 125.351C513.307 125.351 515.44 133.896 515.244 140.186C515.244 140.186 528.063 105.965 492.6 106.86C456.555 107.768 473.674 139.517 473.674 139.517C473.674 139.517 473.888 134.671 475.064 129.294C475.064 129.294 479.846 123.83 480.827 116.892Z" fill="#CF2548"/>
<path d="M494.686 142.232L493.699 141.35L496.308 139.049C493.778 135.874 493.792 128.525 493.793 128.197L495.195 128.205C495.195 128.283 495.181 136.189 497.764 138.675L498.222 139.114L494.686 142.232Z" fill="#DC4B44"/>
<path d="M485.933 146.062C485.933 146.062 498.913 146.548 505.466 145.01C505.466 145.01 506.624 153.39 496.565 153.806C485.933 154.246 485.933 146.062 485.933 146.062Z" fill="#22434D"/>
<path d="M535.455 149.416C525.875 161.505 512.493 165.106 512.493 165.106C512.493 165.106 515.457 177.087 497.471 178.206C480.819 179.242 477.043 169.52 477.043 169.52C477.043 169.52 451.072 173.416 442.761 178.335C434.449 183.255 432.262 286.685 437.074 296.917C441.886 307.15 460.682 317.947 504.215 315.267C547.747 312.587 550.372 300.044 549.497 294.664C548.622 289.284 552.405 222.047 549.621 198.01C545.182 159.681 535.455 149.416 535.455 149.416Z" fill="#2A5A9F"/>
<path d="M444.49 305.224V316.077C444.49 316.077 510.351 322.732 547.203 309.309L545.453 304.455C545.453 304.455 478.631 310.894 444.49 305.224Z" fill="#234E7E"/>
<path d="M477.042 169.52C477.042 169.52 480.071 167.629 481.111 167.966C481.111 167.966 486.941 178.31 497.711 176.652C508.481 174.995 509.432 166.049 509.432 166.049C509.432 166.049 510.921 163.659 512.493 165.106C514.064 166.554 514.603 179.759 497.711 180.536C480.818 181.313 476.766 172.228 477.042 169.52Z" fill="#234E7E"/>
<path d="M530.782 187.804L514.999 191.287L517.543 202.193C517.543 202.193 525.329 197.9 528.619 202.385C530.57 205.045 527.992 214.751 517.543 210.997V214.565C517.543 214.565 528.965 216.884 532.465 208.18C535.964 199.474 529.978 195.167 520.071 197.92L519.296 194.111L531.152 191.111L530.782 187.804Z" fill="#D2DADC"/>
<path d="M199.35 351.996C189.746 350.821 188.842 342.677 180.933 344.844C179.302 345.292 178.312 346.232 177.718 347.286C176.584 349.301 176.921 351.806 178.259 353.692C181.33 358.024 184.268 364.371 185.466 367.692C186.856 371.486 187.738 369.628 187.738 369.628C187.838 369.989 187.913 370.337 187.989 370.686C188.591 373.324 188.637 375.358 190.043 373.765C191.641 371.976 190.28 364.408 190.28 364.408C194.839 374.742 192.897 376.995 194.502 375.532C196.7 373.537 194.106 364.014 194.027 363.729C197.805 369.427 198.234 373.157 199.272 371.338C200.323 369.494 194.994 358.593 192.976 354.602C192.524 353.702 192.228 353.15 192.228 353.15C199.989 354.625 199.35 351.996 199.35 351.996Z" fill="#F57559"/>
<path d="M38.775 369.77C53.9634 362.954 162.515 391.103 162.515 391.103C162.515 391.103 134.144 266.919 137.949 219.541C141.753 172.163 60.1526 193.459 60.1526 193.459L38.775 369.77Z" fill="#451B23"/>
<path d="M124.538 418.184C124.538 418.184 139.631 454.806 118.828 536.353H106.529C106.529 536.353 102.739 429.438 100.212 418.184C98.2384 409.295 94.5014 378.86 93.2735 352.886V352.78C93.1668 350.344 93.076 347.962 93.0066 345.633C92.3108 345.793 91.5829 345.882 90.8337 345.953C90.2305 345.989 89.6237 346.006 88.983 345.971C88.8585 345.971 88.7179 345.953 88.5755 345.953C89.3407 357.26 89.6415 369.953 89.6415 381.651C89.6415 398.166 89.0382 412.655 88.3264 418.309C86.885 429.509 94.6615 536.566 94.6615 536.566L82.3294 536.157C53.6432 453.775 63.9645 417.491 63.9645 417.491C63.9645 417.491 37.7341 343.34 43.6243 317.171C49.495 291.02 63.2349 271.642 63.2349 271.642L86.1376 275.375L86.3333 274.967L88.1822 275.322H88.451V275.375L112.137 280.033C112.137 280.033 117.562 289.029 123.704 303.358C123.987 304.051 124.291 304.744 124.593 305.455C127.012 311.287 129.523 317.918 131.818 325.118C140.234 351.5 124.538 418.184 124.538 418.184Z" fill="#D2DADC"/>
<path d="M87.5238 333.1C88.362 337.331 89.4475 341.651 90.8338 345.953C90.2305 345.989 89.6237 346.006 88.9831 345.971C79.4643 315.731 84.1445 285.029 84.2157 284.709L85.9578 284.993C85.924 285.26 82.6497 306.771 87.1857 331.358C87.7035 331.198 88.362 330.878 88.9314 330.149C89.8372 328.975 90.638 326.433 89.2518 321.046C86.2443 309.366 89.0382 286.38 89.1628 285.42L90.9245 285.633C90.9067 285.864 88.0577 309.26 90.9761 320.602C92.2414 325.509 92.01 329.1 90.2999 331.286C89.4101 332.406 88.3264 332.886 87.5238 333.1Z" fill="#B5C5C7"/>
<path d="M124.593 305.455C110.782 302.291 103.664 285.953 103.363 285.207L104.999 284.495C105.07 284.673 111.585 299.624 123.704 303.358C123.987 304.051 124.291 304.744 124.593 305.455Z" fill="#B5C5C7"/>
<path d="M107.937 111.386C130.071 114.449 136.267 131.162 135.822 146.478C135.377 161.793 133.598 242.576 133.598 242.576C133.598 242.576 91.7378 255.656 77.7435 222.28C63.7509 188.904 62.1938 170.254 71.5115 158.569C73.4174 156.177 74.4673 148.961 75.5404 139.623C77.715 120.677 88.1715 108.652 107.937 111.386Z" fill="#1F436B"/>
<path d="M170.819 314.389C171.116 323.274 164.432 346.214 162.515 342.243C156.116 328.986 170.819 314.389 170.819 314.389Z" fill="#451B23"/>
<path d="M7.10104 242.575C5.91586 238.238 20.1913 216.195 24.1757 219.237C24.1757 219.237 22.8215 251.274 18.3726 252.163C13.9238 253.052 7.10104 242.575 7.10104 242.575Z" fill="#451B23"/>
<path d="M56.6076 173.216L15.0393 251.391C15.0393 251.391 16.148 266.735 23.711 268.46C31.274 270.184 60.8589 239.127 60.8589 239.127L56.6076 173.216Z" fill="#61242F"/>
<path d="M146.727 300.47C150.231 312.886 168.516 341.487 179.832 352.278L185.671 347.347C185.671 347.347 168.649 314.213 166.391 302.017C164.133 289.82 158.15 282.789 149.621 283.196C141.093 283.605 145.989 297.859 146.727 300.47Z" fill="#F57559"/>
<path d="M13.1924 246.291C8.96064 234.104 7.58685 200.197 10.6922 184.878L18.305 185.587C18.305 185.587 23.3091 222.494 28.4395 233.788C33.5699 245.084 32.6855 254.271 25.457 258.808C18.2267 263.347 14.0839 248.856 13.1924 246.291Z" fill="#F57559"/>
<path d="M144.661 185.404C144.661 185.404 154.078 213.349 155.479 261.052C155.479 261.052 157.769 263.423 157.472 265.201C157.177 266.979 159.846 270.727 159.252 271.519C158.659 272.312 170.819 314.389 170.819 314.389C170.819 314.389 160.736 323.868 162.515 342.243L142.346 300.46C142.346 300.46 136.299 195.976 144.661 185.404Z" fill="#61242F"/>
<path d="M60.8591 280.682C60.8591 280.682 67.2726 287.996 85.0858 289.895C102.901 291.793 113.929 284.499 112.863 279.591C111.798 274.682 64.0196 273.902 64.0196 273.902L60.8591 280.682Z" fill="#61242F"/>
<path d="M111.354 280.906C111.354 280.906 85.2477 290.097 60.6189 271.52C60.6189 271.52 56.0455 177.6 64.7474 171.306C68.5557 168.551 76.0653 170.755 83.3081 174.115C92.6506 178.453 101.584 184.693 101.584 184.693C101.584 184.693 117.796 182.4 130.573 183.804C138.705 184.675 145.432 187.057 145.734 192.444C146.535 206.328 111.354 280.906 111.354 280.906Z" fill="#F57559"/>
<path d="M131.267 184.017C125.786 183.448 124.771 187.591 119.29 189.582C113.792 191.591 107.207 193.137 104.716 193.368C102.225 193.6 100.908 196.693 100.908 196.693C100.908 196.693 100.018 192.515 98.6655 192.16C97.3486 191.822 85.7283 180.142 83.3081 174.115C92.6507 178.453 101.584 184.693 101.584 184.693C101.584 184.693 117.796 182.4 130.573 183.804C131.018 183.946 131.267 184.017 131.267 184.017Z" fill="#EF5640"/>
<path d="M99.4875 153.626C99.4875 153.626 101.566 178.702 94.5813 182.288C94.5813 182.288 99.742 191.792 113.576 186.007C113.576 186.007 111.24 173.111 120.39 157.799C126.517 147.544 99.4875 153.626 99.4875 153.626Z" fill="#EF5640"/>
<path d="M124.698 145.016C124.698 145.016 129.895 138.984 131.087 145.484C132.466 153.016 125.798 156.599 124.264 154.286C122.732 151.975 124.698 145.016 124.698 145.016Z" fill="#F57559"/>
<path d="M85.3544 148.409C85.3544 148.409 79.304 143.23 79.1118 149.836C78.8893 157.489 86.0253 160.023 87.1891 157.505C88.3547 154.988 85.3544 148.409 85.3544 148.409Z" fill="#F57559"/>
<path d="M107.7 173.969C120.176 173.02 126.597 164.343 124.736 139.925C123.776 127.331 116.772 120.092 102.799 121.155C88.8245 122.218 83.5268 130.391 84.4878 142.988C86.488 169.224 94.8126 174.951 107.7 173.969Z" fill="#F57559"/>
<path d="M89.2836 151.383C89.1591 152.652 90.3478 153.806 91.9369 153.96C93.5261 154.113 94.9141 153.208 95.0369 151.939C95.1615 150.67 93.9727 149.516 92.3836 149.363C90.7945 149.208 89.4064 150.113 89.2836 151.383Z" fill="#DC4B44"/>
<path d="M114.996 150.112C115.176 151.376 116.603 152.216 118.183 151.992C119.764 151.768 120.901 150.563 120.721 149.299C120.541 148.037 119.114 147.194 117.534 147.42C115.954 147.644 114.816 148.849 114.996 150.112Z" fill="#DC4B44"/>
<path d="M93.7128 138.222C93.9655 138.339 94.2751 138.277 94.4602 138.051C96.0493 136.11 99.0977 135.953 99.1279 135.952C99.4731 135.937 99.7401 135.644 99.7259 135.301C99.7116 134.956 99.4215 134.689 99.0727 134.704C98.925 134.711 95.4318 134.892 93.4921 137.26C93.275 137.527 93.3142 137.921 93.5811 138.14C93.622 138.174 93.6665 138.2 93.7128 138.222Z" fill="#1F436B"/>
<path d="M111.786 134.91C111.886 134.956 111.998 134.976 112.115 134.963C112.145 134.962 115.187 134.659 117.05 136.334C117.306 136.567 117.701 136.544 117.932 136.288C118.162 136.03 118.142 135.637 117.886 135.404C115.61 133.353 112.129 133.705 111.982 133.722C111.638 133.758 111.393 134.066 111.428 134.409C111.451 134.634 111.594 134.819 111.786 134.91Z" fill="#1F436B"/>
<path d="M95.6045 144.81C95.7237 146.357 96.5174 147.559 97.3769 147.493C98.2382 147.427 98.8397 146.12 98.7223 144.572C98.6048 143.024 97.8111 141.822 96.9498 141.888C96.0885 141.953 95.487 143.262 95.6045 144.81Z" fill="#22434D"/>
<path d="M113.201 143.543C113.318 145.089 114.112 146.291 114.973 146.225C115.833 146.16 116.436 144.853 116.317 143.304C116.199 141.758 115.406 140.556 114.544 140.62C113.685 140.686 113.081 141.994 113.201 143.543Z" fill="#22434D"/>
<path d="M111.843 158.672C111.843 158.672 104.154 160.348 99.9984 158.568C99.9984 158.568 102.696 164.144 106.901 163.306C111.106 162.467 111.843 158.672 111.843 158.672Z" fill="#22434D"/>
<path d="M99.7402 143.722C99.7402 143.722 98.3131 139.996 96.8361 140.384C95.3573 140.771 94.4693 144.122 94.4693 144.122L92.1665 143.12L94.4016 143.241C94.4016 143.241 95.2967 139.745 96.7773 139.626C98.8879 139.457 99.7402 143.722 99.7402 143.722Z" fill="#22434D"/>
<path d="M111.891 143.267C111.891 143.267 112.736 139.368 114.256 139.528C115.776 139.687 117.162 142.865 117.162 142.865L119.287 141.525L117.094 141.984C117.094 141.984 115.682 138.664 114.199 138.771C112.087 138.922 111.891 143.267 111.891 143.267Z" fill="#22434D"/>
<path d="M105.086 152.778C105.36 152.906 105.664 153.002 105.995 153.066L106.248 151.742C105.118 151.527 104.824 150.862 104.776 150.344C104.71 149.61 105.104 148.89 105.501 148.736C105.734 148.645 105.992 148.787 106.275 149.157L107.348 148.339C106.408 147.107 105.401 147.328 105.011 147.481C104.008 147.87 103.315 149.182 103.433 150.467C103.529 151.511 104.129 152.332 105.086 152.778Z" fill="#DC4B44"/>
<path d="M104.716 122.974C104.716 122.974 89.5543 150.213 81.5535 146.494C81.5535 146.494 79.427 117.349 102.582 117.349C125.738 117.349 130.324 130.369 130.254 143.267C130.254 143.267 127.019 148.037 124.154 147.36C124.154 147.36 127.749 123.521 104.716 122.974Z" fill="#1F436B"/>
<path d="M145.752 202.753C142.495 222.238 132.085 294.682 87.4541 285.349C87.2583 285.313 87.0448 285.26 86.8473 285.224C86.244 285.1 85.6568 284.975 85.0855 284.851C43.3037 275.855 55.7427 271.518 55.7427 271.518C55.7427 271.518 38.7748 167.127 72.1839 170.327C72.1839 170.327 96.7593 201.064 97.311 213.296C97.3661 213.971 97.311 214.611 97.1864 215.162C97.2932 214.824 97.8448 213.349 99.8931 210.735C103.719 205.864 112.864 197.011 134.343 184.353C134.343 184.353 149.007 183.251 145.752 202.753Z" fill="#F9AD63"/>
<path d="M131.266 182.238C131.266 182.238 117.762 223.872 117.859 252.316C117.956 280.76 155.479 396.437 155.479 396.437C155.479 396.437 159.846 394.659 162.515 391.103C162.515 391.103 145.885 264.904 145.747 251.571C145.61 238.238 148.612 193.264 144.661 185.404C144.661 185.404 142.723 182.892 131.266 182.238Z" fill="#872B39"/>
<path d="M76.444 171.384C76.444 171.384 77.7787 222.154 76.444 232.472C75.1094 242.792 64.6741 300.102 58.9245 319.718C53.1765 339.334 45.9552 379.548 45.9552 379.548L38.7747 369.77C38.7747 369.77 34.2636 330.238 38.7747 310.238C43.2859 290.238 48.4768 275.912 48.9946 271.519C49.5143 267.127 45.9054 202.86 56.6075 173.216C56.6075 173.216 65.9448 166.865 76.444 171.384Z" fill="#872B39"/>
<path d="M99.8935 210.736C99.1461 214.06 97.4555 217.971 95.7116 222.06C93.6117 226.931 91.4406 231.962 90.9246 235.98C90.6381 238.291 90.6577 241.847 90.6755 246.344C90.711 256.638 90.7822 271.642 86.8477 285.224C86.2444 285.1 85.6572 284.976 85.0859 284.851C88.9831 271.482 88.9315 256.567 88.8959 246.344C88.8781 241.793 88.8585 238.184 89.1628 235.749C89.7145 231.5 91.9212 226.344 94.0726 221.349C95.2827 218.522 96.4768 215.767 97.3114 213.296C97.3665 213.971 97.3114 214.611 97.1868 215.162C97.2936 214.824 97.8452 213.349 99.8935 210.736Z" fill="#F29B53"/>
<path d="M24.1758 219.237C24.1758 219.237 13.3295 248.988 7.10107 242.575C7.10107 242.575 14.8136 267.274 23.7113 268.46C32.609 269.646 36.7696 234.09 36.7696 234.09C36.7696 234.09 29.0499 221.137 28.1601 222.28C27.2704 223.423 26.9732 226.239 26.9732 226.239L24.1758 219.237Z" fill="#61242F"/>
<path d="M88.1945 290.202C95.7824 293.127 106.905 328.582 105.792 354.854C105.792 354.854 106.015 357.694 108.684 354.854C108.684 354.854 104.34 291.032 88.3831 285.523L88.1945 290.202Z" fill="#61242F"/>
<path d="M90.0489 285.523C90.0489 285.523 91.0739 291.793 85.0858 291.349C79.0994 290.904 78.6509 286.247 81.322 284.021C83.9931 281.793 90.0489 285.523 90.0489 285.523Z" fill="#451B23"/>
<path d="M73.9834 157.646C65.6409 164.904 65.0857 173.066 73.5385 187.875C81.9913 202.682 80.2118 220.872 80.2118 220.872C80.2118 220.872 97.0801 204.193 85.086 173.216L73.9834 157.646Z" fill="#1F436B"/>
<path d="M78.2523 533.372C78.2523 533.372 82.3702 542.506 81.0996 548.63C80.3326 552.33 76.3553 557.075 79.5425 563.001H104.545C104.545 563.001 107.442 556.335 101.57 550.113C98.3238 546.673 95.9303 530.705 95.9303 530.705C93.1346 531.149 93.8536 533.372 93.8536 533.372C93.8536 533.372 93.939 525.843 87.6252 526.852C80.0568 528.063 81.8417 534.705 81.8417 534.705C81.8417 534.705 80.9572 532.282 78.2523 533.372Z" fill="#451B23"/>
<path d="M80.5267 553.816C80.5267 553.816 87.3477 544.968 101.289 552.038C101.289 552.038 101.881 558.26 95.3557 557.075C88.8319 555.89 84.9756 560.63 80.5267 553.816Z" fill="#61242F"/>
<path d="M121.285 533.372C121.285 533.372 119.486 543.563 121.999 546.852C124.923 550.682 139.604 551.127 132.457 563.001H107.456C107.456 563.001 103.607 560.46 105.09 550.113C106.364 541.215 103.607 530.705 103.607 530.705C106.401 531.149 107.463 533.372 107.463 533.372C107.463 533.372 107.38 525.843 113.692 526.852C121.26 528.063 119.475 534.705 119.475 534.705C119.475 534.705 120.271 533.103 121.285 533.372Z" fill="#451B23"/>
<path d="M110.698 553.816C110.698 553.816 119.002 545.645 132.113 553.445C132.113 553.445 132.053 558.26 125.529 557.075C119.004 555.89 115.147 560.63 110.698 553.816Z" fill="#61242F"/>
<path d="M27.6386 169.989C27.6386 169.989 27.6386 169.989 23.6169 179.002C19.6129 188.033 18.3672 186.86 13.171 188.051C8.31282 189.171 5.28762 180.531 5.02069 176.638C4.77155 173.349 -0.495887 166.824 0.0379746 164.051C0.251519 162.931 0.981126 163.589 2.36917 165.847C4.00634 168.496 6.40872 170.362 6.40872 170.362C8.13487 167.358 1.26586 158.362 3.59705 155.429C4.73596 154.007 7.90352 167.198 9.98559 167.589C9.98559 167.589 10.7152 166.558 9.68307 159.962C9.09583 156.176 8.4552 152.282 9.46954 151.553C11.3203 150.238 11.1779 158.38 14.47 167.02C14.47 167.02 14.559 162.842 14.3811 158.967C14.2031 155.429 13.6693 152.14 15.253 152.211C16.5521 152.264 16.6767 157.793 16.8902 161.313C17.2995 167.873 19.0257 172.584 20.0934 174.949C20.5917 176.087 20.9654 176.673 20.9654 176.673C25.8235 167.82 27.6386 169.989 27.6386 169.989Z" fill="#F57559"/>
<path d="M20.9654 176.673C20.9654 176.673 16.819 178.007 15.6979 181.136C15.6979 181.136 14.8082 176.176 20.0934 174.949C20.5917 176.087 20.9654 176.673 20.9654 176.673Z" fill="#EF5640"/>
</svg>
