<?xml version="1.0" encoding="UTF-8" standalone="no"?>
<svg
   xmlns:dc="http://purl.org/dc/elements/1.1/"
   xmlns:cc="http://creativecommons.org/ns#"
   xmlns:rdf="http://www.w3.org/1999/02/22-rdf-syntax-ns#"
   xmlns:svg="http://www.w3.org/2000/svg"
   xmlns="http://www.w3.org/2000/svg"
   xmlns:sodipodi="http://sodipodi.sourceforge.net/DTD/sodipodi-0.dtd"
   xmlns:inkscape="http://www.inkscape.org/namespaces/inkscape"
   version="1.1"
   id="svg2"
   xml:space="preserve"
   width="1000"
   height="666.66669"
   viewBox="0 0 1000 666.66669"
   sodipodi:docname="3186534.eps"><metadata
     id="metadata8"><rdf:RDF><cc:Work
         rdf:about=""><dc:format>image/svg+xml</dc:format><dc:type
           rdf:resource="http://purl.org/dc/dcmitype/StillImage" /></cc:Work></rdf:RDF></metadata><defs
     id="defs6" /><sodipodi:namedview
     pagecolor="#ffffff"
     bordercolor="#666666"
     borderopacity="1"
     objecttolerance="10"
     gridtolerance="10"
     guidetolerance="10"
     inkscape:pageopacity="0"
     inkscape:pageshadow="2"
     inkscape:window-width="640"
     inkscape:window-height="480"
     id="namedview4" /><g
     id="g10"
     inkscape:groupmode="layer"
     inkscape:label="ink_ext_XXXXXX"
     transform="matrix(1.3333333,0,0,-1.3333333,0,666.66667)"><g
       id="g12"
       transform="scale(0.1)"><path
         d="M 7500,5000 V 0 H 0 v 5000 h 7500"
         style="fill:#ffffff;fill-opacity:1;fill-rule:nonzero;stroke:none"
         id="path14" /><path
         d="m 5909.37,3736.9 c 7.71,-9.35 19.82,-45.16 19.82,-45.16 4.63,-29.91 7.35,-46.43 17.35,-60.4 9.9,-13.97 -10.16,-121.94 -10.16,-121.94 0,0 49,0.41 83.75,25 0,0 1.82,85.62 5.58,92.27 7.41,13.33 30.05,19.85 38.55,46.91 8.5,27.18 32.41,56.99 32.41,56.99 0,0 -6.11,14.4 -18.36,6.12 -12.36,-8.4 -20.7,-30.02 -27.31,-32.04 -1.35,-0.4 -2.69,-0.7 -4.02,-0.77 0,0 -0.11,0.01 -0.34,-0.1 -5.01,-0.51 -10.09,0.76 -13.1,3.85 -0.22,0.12 -0.54,0.35 -0.76,0.69 -10.59,13.1 -11.98,50.69 -11.02,67.43 1.38,23.29 1.49,55.5 -12.89,50.5 -14.37,-5 -1.79,-18.39 -14.36,-69.43 l -5.34,-0.5 c -1.12,-3.63 -9.81,31.52 -11.13,64.32 -0.97,22.58 -15.98,14.71 -19.42,7.71 -3.55,-7 0.76,-29.57 1.25,-45.91 0.44,-10.79 0.99,-22.03 1.34,-28.7 l -6.33,-3.25 c -21.21,39.75 -13.05,55.72 -26.12,56.9 -12.96,1.18 -9.32,-31.92 -2.71,-44.68 2.83,-5.53 5.36,-16.94 7.35,-28.11 -22.15,27.23 -19.17,41.02 -29.77,39.69 -10.93,-1.44 -1.97,-28.05 5.74,-37.39"
         style="fill:#f57559;fill-opacity:1;fill-rule:nonzero;stroke:none"
         id="path16" /><path
         d="m 6006.69,3672.69 c 8.43,21.18 36.48,30.09 39.95,31.09 -5.01,-0.51 -10.09,0.76 -13.1,3.85 -27.56,-11.37 -26.85,-34.94 -26.85,-34.94"
         style="fill:#ef5640;fill-opacity:1;fill-rule:nonzero;stroke:none"
         id="path18" /><path
         d="m 6280.83,3243.76 -125.7,-36.39 -18.37,-13.95 -121.63,-6.51 8.33,265.29 11.67,10.6 -8.33,110.77 -141.68,-47.4 1.66,-98.37 -11.67,-43.56 c 0,0 -28.35,-300.2 -30.02,-318.36 -1.67,-18.15 46.67,-56.76 46.67,-56.76 l 353.02,26.11 10.66,-42.67 42.83,155.13 -17.44,96.07"
         style="fill:#61242f;fill-opacity:1;fill-rule:nonzero;stroke:none"
         id="path20" /><path
         d="m 6444.31,3274.18 c 0,0 94.98,-79.32 354.12,-42.6 v -83.89 c 0,0 -151.67,-97.35 -231.67,-76.99 -80,20.37 -136.66,116.21 -136.66,116.21 l 14.21,87.27"
         style="fill:#451b23;fill-opacity:1;fill-rule:nonzero;stroke:none"
         id="path22" /><path
         d="m 6998.03,696.879 h -258.91 c -18.1,102.922 10.77,205.953 10.77,205.953 l 118.35,20.316 c 10.77,-65.058 23.76,-90.707 41.75,-103.918 0.11,0 0.11,0 0.11,0 13.1,-9.55 28.75,-12.648 48.3,-19.429 22.31,-7.77 34.08,-21.871 39.96,-37.192 11.66,-30.418 -0.33,-65.73 -0.33,-65.73"
         style="fill:#61242f;fill-opacity:1;fill-rule:nonzero;stroke:none"
         id="path24" /><path
         d="m 6998.36,762.609 c -63.84,-7.988 -204.06,-21.648 -195.51,15.321 7.1,30.871 66.28,39.191 107.14,41.3 0.11,0 0.11,0 0.11,0 13.1,-9.55 28.75,-12.648 48.3,-19.429 22.31,-7.77 34.08,-21.871 39.96,-37.192"
         style="fill:#872b39;fill-opacity:1;fill-rule:nonzero;stroke:none"
         id="path26" /><path
         d="m 6461.13,696.879 h -258.91 c 0,0 -8.22,24.211 -4.44,49.851 3.11,20.879 14.21,42.75 44.07,53.071 22.43,7.781 39.64,10.66 53.74,23.871 15.32,14.437 26.76,41.078 36.42,99.476 l 118.35,-20.316 c 0,0 28.76,-103.031 10.77,-205.953"
         style="fill:#61242f;fill-opacity:1;fill-rule:nonzero;stroke:none"
         id="path28" /><path
         d="m 6197.78,746.73 c 3.11,20.879 14.21,42.75 44.07,53.071 22.43,7.781 39.64,10.66 53.74,23.871 32.75,-10.102 78.61,-28.641 92.82,-56.731 19.76,-38.531 -131.57,-32.421 -190.63,-20.211"
         style="fill:#872b39;fill-opacity:1;fill-rule:nonzero;stroke:none"
         id="path30" /><path
         d="m 6884.63,1101.85 c 20.5,23.51 0,483.27 0,483.27 0,0 16.18,84.46 11.8,210.91 -4.37,126.45 -12.3,343.87 -12.85,366.34 -0.54,22.48 -17.93,285.28 -17.93,285.28 l -266.86,-12.22 -266.87,12.22 c 0,0 -17.39,-262.8 -17.93,-285.28 -0.55,-22.47 -8.48,-239.89 -12.85,-366.34 -4.38,-126.45 11.8,-210.91 11.8,-210.91 0,0 -20.5,-459.76 0,-483.27 20.49,-23.52 -26.4,-243.631 -11.8,-244.229 14.6,-0.59 112.86,-17.301 165.91,-71.301 l 23.05,228.18 c 0,0 -10,178.05 0,198.21 10,20.15 70,802.89 80,812.97 5.58,5.62 18.42,10.66 28.69,14.01 10.26,-3.35 23.1,-8.39 28.68,-14.01 10,-10.08 70,-792.82 80,-812.97 10,-20.16 0,-198.21 0,-198.21 l 23.05,-228.18 c 53.05,54 151.31,70.711 165.91,71.301 14.61,0.598 -32.29,220.709 -11.8,244.229"
         style="fill:#91c1df;fill-opacity:1;fill-rule:nonzero;stroke:none"
         id="path32" /><path
         d="m 6320.07,3243.22 c 0,0 436.69,-34.05 606.69,-95.6 0,0 -49.93,-635.09 -38.3,-983.32 0,0 -243.96,-34.88 -574.49,78.45 0,0 -78.48,846.98 6.1,1000.47"
         style="fill:#2a5a9f;fill-opacity:1;fill-rule:nonzero;stroke:none"
         id="path34" /><path
         d="m 6539.29,3285.03 c 0,0 20.69,-65.09 0,-90.17 0,0 21.49,-45.09 60.12,-47.09 44.63,-2.3 60.11,47.09 60.11,47.09 0,0 -23.6,62.87 0,84.96 l -120.23,5.21"
         style="fill:#ef5640;fill-opacity:1;fill-rule:nonzero;stroke:none"
         id="path36" /><path
         d="m 6481.15,3402.18 c 0,0 -32.47,32.4 -36.47,-5.48 -4.63,-43.88 35.23,-61.56 43.02,-47.6 7.79,13.96 -6.55,53.08 -6.55,53.08"
         style="fill:#f57559;fill-opacity:1;fill-rule:nonzero;stroke:none"
         id="path38" /><path
         d="m 6708.54,3399.89 c 0,0 32.47,32.41 36.46,-5.47 4.64,-43.89 -35.23,-61.57 -43.02,-47.61 -7.78,13.96 6.56,53.08 6.56,53.08"
         style="fill:#f57559;fill-opacity:1;fill-rule:nonzero;stroke:none"
         id="path40" /><path
         d="m 6591.42,3243.22 c -72.05,0 -112.71,47.05 -112.71,188.21 0,72.81 37.04,117.47 117.74,117.47 80.7,0 114.7,-44.66 114.7,-117.47 0,-151.67 -45.3,-188.21 -119.73,-188.21"
         style="fill:#f57559;fill-opacity:1;fill-rule:nonzero;stroke:none"
         id="path42" /><path
         d="m 6687.28,3381.08 c 1.27,-7.24 -5.05,-14.39 -14.11,-15.97 -9.05,-1.58 -17.42,3.01 -18.68,10.25 -1.27,7.25 5.05,14.4 14.11,15.98 9.05,1.58 17.42,-3.01 18.68,-10.26"
         style="fill:#dc4b44;fill-opacity:1;fill-rule:nonzero;stroke:none"
         id="path44" /><path
         d="m 6539.09,3377.14 c -0.48,-7.34 -8.3,-12.8 -17.48,-12.2 -9.17,0.6 -16.22,7.03 -15.74,14.37 0.48,7.33 8.3,12.79 17.47,12.2 9.18,-0.6 16.23,-7.03 15.75,-14.37"
         style="fill:#dc4b44;fill-opacity:1;fill-rule:nonzero;stroke:none"
         id="path46" /><path
         d="m 6654.33,3454.33 c -0.95,0 -1.89,0.37 -2.6,1.11 -9.99,10.47 -27.47,10.02 -27.73,10.02 -1.95,-0.01 -3.65,1.5 -3.71,3.49 -0.07,1.99 1.49,3.65 3.48,3.71 0.77,0.05 20.99,0.53 33.16,-12.25 1.38,-1.44 1.33,-3.72 -0.11,-5.09 -0.7,-0.67 -1.6,-0.99 -2.49,-0.99"
         style="fill:#1b3540;fill-opacity:1;fill-rule:nonzero;stroke:none"
         id="path48" /><path
         d="m 6518.67,3454.33 c -0.89,0 -1.78,0.32 -2.48,0.99 -1.44,1.37 -1.49,3.65 -0.13,5.09 12.17,12.78 32.37,12.29 33.16,12.25 1.99,-0.06 3.54,-1.72 3.48,-3.71 -0.06,-1.99 -1.8,-3.52 -3.7,-3.49 -0.14,0.03 -17.85,0.36 -27.72,-10.02 -0.72,-0.74 -1.66,-1.11 -2.61,-1.11"
         style="fill:#1b3540;fill-opacity:1;fill-rule:nonzero;stroke:none"
         id="path50" /><path
         d="m 6648.11,3416.1 c 0,-8.95 -4.03,-16.21 -9,-16.21 -4.97,0 -9.01,7.26 -9.01,16.21 0,8.94 4.04,16.2 9.01,16.2 4.97,0 9,-7.25 9,-16.2"
         style="fill:#22434d;fill-opacity:1;fill-rule:nonzero;stroke:none"
         id="path52" /><path
         d="m 6551.89,3416.1 c 0,-8.95 -4.03,-16.21 -9,-16.21 -4.97,0 -9,7.26 -9,16.21 -0.01,8.94 4.03,16.2 9,16.2 4.97,0 9,-7.26 9,-16.2"
         style="fill:#22434d;fill-opacity:1;fill-rule:nonzero;stroke:none"
         id="path54" /><path
         d="m 6551.89,3320.37 c 0,0 63.53,-8.18 96.22,7.5 0,0 -18.48,-43.26 -53.18,-39.38 -34.7,3.88 -43.04,31.88 -43.04,31.88"
         style="fill:#22434d;fill-opacity:1;fill-rule:nonzero;stroke:none"
         id="path56" /><path
         d="m 6603.98,3343 c -7,0 -14.11,1.82 -16.27,2.41 l 2.05,7.37 c 7.56,-2.08 19.42,-3.33 22,-0.28 0.9,1.07 0.54,3.53 -0.99,6.75 -10.41,22.15 -12.58,78.22 -12.66,80.59 l 7.65,0.28 c 0.02,-0.56 2.19,-56.87 11.94,-77.6 2.98,-6.33 2.95,-11.36 -0.09,-14.95 -2.95,-3.5 -8.26,-4.57 -13.63,-4.57"
         style="fill:#dc4b44;fill-opacity:1;fill-rule:nonzero;stroke:none"
         id="path58" /><path
         d="m 6481.1,3377.47 c 0,0 2.75,38.63 8.92,62.65 0,0 -10.75,50.13 17.79,77.83 0,0 41.95,-6.05 87.12,-6.05 45.17,0 75.96,6.05 75.96,6.05 0,0 21.71,-19.43 19.21,-70.24 0,0 10.14,-34.51 18.8,-69.49 0,0 58.7,209.93 -126.3,209.93 -187.5,0 -101.5,-210.68 -101.5,-210.68"
         style="fill:#1b3540;fill-opacity:1;fill-rule:nonzero;stroke:none"
         id="path60" /><path
         d="m 6745.38,3206.89 c 0,0 -36.52,-450.5 -34.23,-505.66 2.28,-55.16 72.28,-931.83 72.28,-931.83 0,0 100,-10 190,0 0,0 -36.67,504.09 -46.67,607.04 -10,102.96 -13.33,123.56 -13.33,123.56 l 13.33,166.07 v 481.55 c 0,0 -127.46,66.02 -181.38,59.27"
         style="fill:#872b39;fill-opacity:1;fill-rule:nonzero;stroke:none"
         id="path62" /><path
         d="m 6716,2811 c 0,0 67.43,313.88 94.1,337.8 26.66,23.93 61.63,19.58 66.66,38.11 7.09,26.04 -57.43,68.3 -80.38,72.06 -22.95,3.76 -78.63,-15.75 -78.63,-15.75 0,0 -32.51,-210.61 -1.75,-432.22"
         style="fill:#61242f;fill-opacity:1;fill-rule:nonzero;stroke:none"
         id="path64" /><path
         d="m 6444.31,3243.76 c 0,0 -77.55,-163.23 -77.55,-257.13 0,-93.9 -30,-1157.23 -30,-1157.23 h -73.33 c 0,0 -51.87,995.37 17.4,1414.36 h 163.48"
         style="fill:#872b39;fill-opacity:1;fill-rule:nonzero;stroke:none"
         id="path66" /><path
         d="m 6364.69,2874.76 c 0,0 -20.7,207.45 -20.15,221.04 0.56,13.6 28.89,127.68 28.89,127.68 l -43.33,20.28 c 0,0 28.33,45 55,44.49 26.66,-0.52 93.18,-13.75 104.92,-28.8 11.74,-15.05 -82.4,-74.33 -125.33,-384.69"
         style="fill:#61242f;fill-opacity:1;fill-rule:nonzero;stroke:none"
         id="path68" /><path
         d="m 6926.76,3147.62 c 0,0 123.34,-166.76 123.34,-184.99 0,-18.23 0,-18.23 0,-18.23 0,0 130,-332.67 130,-351.34 0,-18.66 -143.34,-334.5 -166.67,-330.33 -23.33,4.18 -66.82,-132.63 -66.82,-132.63 0,0 -23.1,134.53 -47.31,184.41 l 50.8,93.22 3.33,39.92 86.27,142.1 -132.6,264.77 c -20.34,191.55 19.66,293.1 19.66,293.1"
         style="fill:#61242f;fill-opacity:1;fill-rule:nonzero;stroke:none"
         id="path70" /><path
         d="m 6580.1,3601.5 c 31,2.08 90.97,7.49 142.42,-27.93 51.45,-35.42 -29.91,-94.85 -92.42,-90.76 0,0 9.76,0.34 18.01,12.84 0,0 -49.93,-20.68 -105.22,-12.84 0,0 36.87,1.59 52.04,9.09 0,0 -72.97,2.66 -116.22,7.5 -22.36,2.5 -66.85,90.85 101.39,102.1"
         style="fill:#1b3540;fill-opacity:1;fill-rule:nonzero;stroke:none"
         id="path72" /><path
         d="m 6547.76,3243.22 c 0,0 27.94,-27.44 101.39,0 0,0 13.77,8.81 21.74,0 7.96,-8.82 22.96,-56.32 22.96,-56.32 0,0 -48.52,-81.25 -106.14,-72.5 -57.61,8.75 -80.11,87.33 -80.11,87.33 0,0 16.04,51.94 40.16,41.49"
         style="fill:#234e7e;fill-opacity:1;fill-rule:nonzero;stroke:none"
         id="path74" /><path
         d="m 1928.1,1784.53 c 85.35,38.34 695.35,-120 695.35,-120 0,0 -159.43,698.54 -138.05,965.04 21.38,266.5 -437.17,146.71 -437.17,146.71 L 1928.1,1784.53"
         style="fill:#451b23;fill-opacity:1;fill-rule:nonzero;stroke:none"
         id="path76" /><path
         d="m 2410.04,1512.2 c 0,0 84.81,-206 -32.09,-664.7 h -69.11 c 0,0 -21.3,601.4 -35.5,664.7 -11.09,50 -32.09,221.2 -38.99,367.3 v 0.6 c -0.6,13.7 -1.11,27.1 -1.5,40.2 -3.91,-0.9 -8,-1.4 -12.21,-1.8 -3.39,-0.2 -6.8,-0.3 -10.4,-0.1 -0.7,0 -1.49,0.1 -2.29,0.1 4.3,-63.6 5.99,-135 5.99,-200.8 0,-92.9 -3.39,-174.4 -7.39,-206.2 -8.1,-63 35.6,-665.199 35.6,-665.199 l -69.3,2.301 c -161.2,463.398 -103.2,667.498 -103.2,667.498 0,0 -147.4,417.1 -114.3,564.3 32.99,147.1 110.2,256.1 110.2,256.1 l 128.7,-21 1.1,2.3 10.39,-2 h 1.51 v -0.3 l 133.1,-26.2 c 0,0 30.49,-50.6 65,-131.2 1.59,-3.9 3.3,-7.8 5,-11.8 13.59,-32.8 27.7,-70.1 40.6,-110.6 47.29,-148.4 -40.91,-523.5 -40.91,-523.5"
         style="fill:#d2dadc;fill-opacity:1;fill-rule:nonzero;stroke:none"
         id="path78" /><path
         d="m 2202.04,1990.8 c 4.71,-23.8 10.81,-48.1 18.6,-72.3 -3.39,-0.2 -6.8,-0.3 -10.4,-0.1 -53.49,170.1 -27.19,342.8 -26.79,344.6 l 9.79,-1.6 c -0.19,-1.5 -18.59,-122.5 6.9,-260.8 2.91,0.9 6.61,2.7 9.81,6.8 5.09,6.6 9.59,20.9 1.8,51.2 -16.9,65.7 -1.2,195 -0.5,200.4 l 9.9,-1.2 c -0.1,-1.3 -16.11,-132.9 0.29,-196.7 7.11,-27.6 5.81,-47.8 -3.8,-60.1 -5,-6.3 -11.09,-9 -15.6,-10.2"
         style="fill:#b5c5c7;fill-opacity:1;fill-rule:nonzero;stroke:none"
         id="path80" /><path
         d="m 2410.35,2146.3 c -77.61,17.8 -117.61,109.7 -119.3,113.9 l 9.19,4 c 0.4,-1 37.01,-85.1 105.11,-106.1 1.59,-3.9 3.3,-7.8 5,-11.8"
         style="fill:#b5c5c7;fill-opacity:1;fill-rule:nonzero;stroke:none"
         id="path82" /><path
         d="m 2316.75,3237.94 c 124.38,-17.23 159.2,-111.24 156.7,-197.39 -2.5,-86.15 -12.5,-540.55 -12.5,-540.55 0,0 -235.23,-73.58 -313.87,114.16 -78.63,187.74 -87.38,292.65 -35.02,358.38 10.71,13.45 16.61,54.04 22.64,106.57 12.22,106.57 70.98,174.21 182.05,158.83"
         style="fill:#1f436b;fill-opacity:1;fill-rule:nonzero;stroke:none"
         id="path84" /><path
         d="m 2670.11,2096.05 c 1.67,-49.98 -35.89,-179.02 -46.66,-156.68 -35.96,74.57 46.66,156.68 46.66,156.68"
         style="fill:#451b23;fill-opacity:1;fill-rule:nonzero;stroke:none"
         id="path86" /><path
         d="m 1750.11,2500 c -6.66,24.4 73.56,148.39 95.95,131.28 0,0 -7.61,-180.21 -32.61,-185.21 -25,-5 -63.34,53.93 -63.34,53.93"
         style="fill:#451b23;fill-opacity:1;fill-rule:nonzero;stroke:none"
         id="path88" /><path
         d="m 2028.31,2890.15 -233.59,-439.74 c 0,0 6.23,-86.31 48.73,-96.01 42.5,-9.7 208.75,165 208.75,165 l -23.89,370.75"
         style="fill:#61242f;fill-opacity:1;fill-rule:nonzero;stroke:none"
         id="path90" /><path
         d="m 2534.73,2174.34 c 19.69,-69.84 122.44,-230.72 186.03,-291.42 l 32.81,27.74 c 0,0 -95.65,186.38 -108.34,254.98 -12.69,68.61 -46.31,108.16 -94.24,105.87 -47.92,-2.3 -20.41,-82.48 -16.26,-97.17"
         style="fill:#f57559;fill-opacity:1;fill-rule:nonzero;stroke:none"
         id="path92" /><path
         d="m 1784.34,2479.1 c -23.78,68.55 -31.5,259.28 -14.05,345.45 l 42.78,-3.99 c 0,0 28.12,-207.6 56.95,-271.13 28.83,-63.54 23.86,-115.22 -16.76,-140.74 -40.63,-25.53 -63.91,55.98 -68.92,70.41"
         style="fill:#f57559;fill-opacity:1;fill-rule:nonzero;stroke:none"
         id="path94" /><path
         d="m 2523.12,2821.59 c 0,0 52.92,-157.19 60.79,-425.52 0,0 12.87,-13.34 11.2,-23.34 -1.66,-10 13.34,-31.08 10,-35.54 -3.33,-4.46 65,-241.14 65,-241.14 0,0 -56.66,-53.32 -46.66,-156.68 l -113.34,235.03 c 0,0 -33.98,587.72 13.01,647.19"
         style="fill:#61242f;fill-opacity:1;fill-rule:nonzero;stroke:none"
         id="path96" /><path
         d="m 2052.2,2285.65 c 0,0 36.04,-41.14 136.14,-51.82 100.11,-10.68 162.08,30.35 156.09,57.96 -5.98,27.61 -274.47,32 -274.47,32 l -17.76,-38.14"
         style="fill:#61242f;fill-opacity:1;fill-rule:nonzero;stroke:none"
         id="path98" /><path
         d="m 2335.95,2284.39 c 0,0 -146.7,-51.7 -285.1,52.8 0,0 -25.7,528.3 23.2,563.7 21.4,15.5 63.6,3.1 104.3,-15.8 52.5,-24.4 102.7,-59.5 102.7,-59.5 0,0 91.1,12.9 162.9,5 45.7,-4.9 83.5,-18.3 85.2,-48.6 4.5,-78.1 -193.2,-497.6 -193.2,-497.6"
         style="fill:#f57559;fill-opacity:1;fill-rule:nonzero;stroke:none"
         id="path100" /><path
         d="m 2447.85,2829.39 c -30.8,3.2 -36.5,-20.1 -67.3,-31.3 -30.9,-11.3 -67.9,-20 -81.9,-21.3 -14,-1.3 -21.4,-18.7 -21.4,-18.7 0,0 -5,23.5 -12.6,25.5 -7.4,1.9 -72.7,67.6 -86.3,101.5 52.5,-24.4 102.7,-59.5 102.7,-59.5 0,0 91.1,12.9 162.9,5 2.5,-0.8 3.9,-1.2 3.9,-1.2"
         style="fill:#ef5640;fill-opacity:1;fill-rule:nonzero;stroke:none"
         id="path102" /><path
         d="m 2269.27,3000.34 c 0,0 11.68,-141.05 -27.57,-161.22 0,0 29,-53.46 106.74,-20.92 0,0 -13.13,72.54 38.29,158.67 34.43,57.68 -117.46,23.47 -117.46,23.47"
         style="fill:#ef5640;fill-opacity:1;fill-rule:nonzero;stroke:none"
         id="path104" /><path
         d="m 2410.94,3048.77 c 0,0 29.2,33.93 35.9,-2.63 7.75,-42.37 -29.72,-62.52 -38.34,-49.51 -8.61,13 2.44,52.14 2.44,52.14"
         style="fill:#f57559;fill-opacity:1;fill-rule:nonzero;stroke:none"
         id="path106" /><path
         d="m 2189.85,3029.69 c 0,0 -34,29.13 -35.08,-8.03 -1.25,-43.05 38.85,-57.3 45.39,-43.14 6.55,14.16 -10.31,51.17 -10.31,51.17"
         style="fill:#f57559;fill-opacity:1;fill-rule:nonzero;stroke:none"
         id="path108" /><path
         d="m 2315.42,2885.91 c 70.11,5.34 106.19,54.15 95.73,191.5 -5.39,70.84 -44.75,111.56 -123.27,105.58 -78.53,-5.98 -108.3,-51.95 -102.9,-122.81 11.24,-147.58 58.02,-179.79 130.44,-174.27"
         style="fill:#f57559;fill-opacity:1;fill-rule:nonzero;stroke:none"
         id="path110" /><path
         d="m 2211.93,3012.96 c -0.7,-7.14 5.98,-13.63 14.91,-14.5 8.93,-0.86 16.73,4.23 17.42,11.37 0.7,7.14 -5.98,13.63 -14.91,14.49 -8.93,0.87 -16.73,-4.22 -17.42,-11.36"
         style="fill:#dc4b44;fill-opacity:1;fill-rule:nonzero;stroke:none"
         id="path112" /><path
         d="m 2356.42,3020.11 c 1.01,-7.11 9.03,-11.84 17.91,-10.58 8.88,1.26 15.27,8.04 14.26,15.15 -1.01,7.1 -9.03,11.84 -17.91,10.57 -8.88,-1.26 -15.27,-8.04 -14.26,-15.14"
         style="fill:#dc4b44;fill-opacity:1;fill-rule:nonzero;stroke:none"
         id="path114" /><path
         d="m 2236.82,3086.99 c 1.42,-0.66 3.16,-0.31 4.2,0.96 8.93,10.92 26.06,11.8 26.23,11.81 1.94,0.08 3.44,1.73 3.36,3.66 -0.08,1.94 -1.71,3.44 -3.67,3.36 -0.83,-0.04 -20.46,-1.06 -31.36,-14.38 -1.22,-1.5 -1,-3.72 0.5,-4.95 0.23,-0.19 0.48,-0.34 0.74,-0.46"
         style="fill:#1f436b;fill-opacity:1;fill-rule:nonzero;stroke:none"
         id="path116" /><path
         d="m 2338.38,3105.62 c 0.56,-0.26 1.19,-0.37 1.85,-0.3 0.17,0.01 17.26,1.71 27.73,-7.71 1.44,-1.31 3.66,-1.18 4.96,0.26 1.29,1.45 1.18,3.66 -0.26,4.97 -12.79,11.54 -32.35,9.56 -33.18,9.46 -1.93,-0.2 -3.31,-1.93 -3.11,-3.86 0.13,-1.27 0.93,-2.31 2.01,-2.82"
         style="fill:#1f436b;fill-opacity:1;fill-rule:nonzero;stroke:none"
         id="path118" /><path
         d="m 2247.45,3049.93 c 0.67,-8.7 5.13,-15.46 9.96,-15.09 4.84,0.37 8.22,7.72 7.56,16.43 -0.66,8.71 -5.12,15.47 -9.96,15.1 -4.84,-0.37 -8.22,-7.73 -7.56,-16.44"
         style="fill:#22434d;fill-opacity:1;fill-rule:nonzero;stroke:none"
         id="path120" /><path
         d="m 2346.33,3057.06 c 0.66,-8.7 5.12,-15.46 9.96,-15.09 4.83,0.37 8.22,7.72 7.55,16.43 -0.66,8.7 -5.12,15.46 -9.96,15.1 -4.83,-0.37 -8.22,-7.73 -7.55,-16.44"
         style="fill:#22434d;fill-opacity:1;fill-rule:nonzero;stroke:none"
         id="path122" /><path
         d="m 2338.7,2971.96 c 0,0 -43.21,-9.43 -66.56,0.58 0,0 15.16,-31.36 38.79,-26.65 23.63,4.72 27.77,26.07 27.77,26.07"
         style="fill:#22434d;fill-opacity:1;fill-rule:nonzero;stroke:none"
         id="path124" /><path
         d="m 2270.69,3056.05 c 0,0 -8.02,20.96 -16.32,18.78 -8.31,-2.18 -13.3,-21.03 -13.3,-21.03 l -12.94,5.64 12.56,-0.68 c 0,0 5.03,19.66 13.35,20.33 11.86,0.95 16.65,-23.04 16.65,-23.04"
         style="fill:#22434d;fill-opacity:1;fill-rule:nonzero;stroke:none"
         id="path126" /><path
         d="m 2338.97,3058.61 c 0,0 4.75,21.93 13.29,21.03 8.54,-0.89 16.33,-18.77 16.33,-18.77 l 11.94,7.54 -12.32,-2.58 c 0,0 -7.94,18.67 -16.27,18.07 -11.87,-0.85 -12.97,-25.29 -12.97,-25.29"
         style="fill:#22434d;fill-opacity:1;fill-rule:nonzero;stroke:none"
         id="path128" /><path
         d="m 2300.73,3005.11 c 1.54,-0.72 3.25,-1.26 5.11,-1.62 l 1.42,7.45 c -6.35,1.21 -8,4.95 -8.27,7.86 -0.37,4.13 1.84,8.18 4.07,9.05 1.31,0.51 2.76,-0.29 4.35,-2.37 l 6.03,4.6 c -5.28,6.93 -10.94,5.69 -13.13,4.83 -5.64,-2.19 -9.53,-9.57 -8.87,-16.8 0.54,-5.87 3.91,-10.49 9.29,-13"
         style="fill:#dc4b44;fill-opacity:1;fill-rule:nonzero;stroke:none"
         id="path130" /><path
         d="m 2298.65,3172.76 c 0,0 -85.2,-153.22 -130.16,-132.3 0,0 -11.95,163.94 118.17,163.94 130.12,0 155.89,-73.24 155.5,-145.79 0,0 -18.18,-26.83 -34.28,-23.02 0,0 20.2,134.09 -109.23,137.17"
         style="fill:#1f436b;fill-opacity:1;fill-rule:nonzero;stroke:none"
         id="path132" /><path
         d="m 2830.44,1884.51 c -53.97,6.61 -59.05,52.42 -103.49,40.23 -9.17,-2.52 -14.73,-7.81 -18.07,-13.74 -6.37,-11.33 -4.48,-25.42 3.04,-36.03 17.26,-24.37 33.77,-60.07 40.5,-78.75 7.81,-21.34 12.77,-10.89 12.77,-10.89 0.56,-2.03 0.98,-3.99 1.41,-5.95 3.38,-14.84 3.64,-26.28 11.54,-17.32 8.98,10.06 1.33,52.63 1.33,52.63 25.62,-58.13 14.71,-70.8 23.73,-62.57 12.35,11.22 -2.23,64.79 -2.67,66.39 21.23,-32.05 23.64,-53.03 29.47,-42.8 5.91,10.37 -24.04,71.69 -35.38,94.14 -2.54,5.06 -4.2,8.17 -4.2,8.17 43.61,-8.3 40.02,6.49 40.02,6.49"
         style="fill:#f57559;fill-opacity:1;fill-rule:nonzero;stroke:none"
         id="path134" /><path
         d="m 2794.62,1869.85 c -2.54,5.06 -4.2,8.17 -4.2,8.17 0,0 -17.3,-6.59 -35.51,9.02 0,0 10.69,-24.69 39.71,-17.19"
         style="fill:#ef5640;fill-opacity:1;fill-rule:nonzero;stroke:none"
         id="path136" /><path
         d="m 2755.95,1829.54 c 1.73,-5.05 11.95,-33.91 9.24,-44.21 0.56,-2.03 0.98,-3.99 1.41,-5.95 10.49,5.42 -7.77,44.27 -10.65,50.16"
         style="fill:#ef5640;fill-opacity:1;fill-rule:nonzero;stroke:none"
         id="path138" /><path
         d="m 2529.25,2724 c -18.3,-109.6 -76.8,-517.1 -327.6,-464.6 -1.1,0.2 -2.3,0.5 -3.41,0.7 -3.39,0.7 -6.69,1.4 -9.9,2.1 -234.79,50.6 -164.89,75 -164.89,75 0,0 -95.35,587.2 92.39,569.2 0,0 138.1,-172.9 141.2,-241.7 0.31,-3.8 0,-7.4 -0.7,-10.5 0.6,1.9 3.7,10.2 15.21,24.9 21.5,27.4 72.89,77.2 193.59,148.4 0,0 82.4,6.2 64.11,-103.5"
         style="fill:#f9ad63;fill-opacity:1;fill-rule:nonzero;stroke:none"
         id="path140" /><path
         d="m 2447.85,2839.4 c 0,0 -75.89,-234.19 -75.34,-394.19 0.54,-160 211.4,-810.68 211.4,-810.68 0,0 24.54,10 39.54,30 0,0 -93.45,709.87 -94.23,784.87 -0.77,75 16.1,327.98 -6.1,372.19 0,0 -10.89,14.13 -75.27,17.81"
         style="fill:#872b39;fill-opacity:1;fill-rule:nonzero;stroke:none"
         id="path142" /><path
         d="m 2139.78,2900.45 c 0,0 7.5,-285.58 0,-343.62 -7.5,-58.05 -66.14,-380.42 -98.45,-490.76 -32.3,-110.34 -72.88,-336.54 -72.88,-336.54 l -40.35,55 c 0,0 -25.35,222.37 0,334.87 25.35,112.5 54.52,193.08 57.43,217.79 2.92,24.71 -17.36,386.21 42.78,552.96 0,0 52.47,35.72 111.47,10.3"
         style="fill:#872b39;fill-opacity:1;fill-rule:nonzero;stroke:none"
         id="path144" /><path
         d="m 2271.55,2679.1 c -4.2,-18.7 -13.7,-40.7 -23.5,-63.7 -11.8,-27.4 -24,-55.7 -26.9,-78.3 -1.61,-13 -1.5,-33 -1.4,-58.3 0.2,-57.9 0.6,-142.3 -21.51,-218.7 -3.39,0.7 -6.69,1.4 -9.9,2.1 21.9,75.2 21.61,159.1 21.41,216.6 -0.1,25.6 -0.21,45.9 1.5,59.6 3.1,23.9 15.5,52.9 27.59,81 6.8,15.9 13.51,31.4 18.2,45.3 0.31,-3.8 0,-7.4 -0.7,-10.5 0.6,1.9 3.7,10.2 15.21,24.9"
         style="fill:#f29b53;fill-opacity:1;fill-rule:nonzero;stroke:none"
         id="path146" /><path
         d="m 1846.06,2631.28 c 0,0 -60.95,-167.35 -95.95,-131.28 0,0 43.34,-138.93 93.34,-145.6 50,-6.67 73.38,193.33 73.38,193.33 0,0 -43.38,72.86 -48.38,66.43 -5,-6.43 -6.67,-22.27 -6.67,-22.27 l -15.72,39.39"
         style="fill:#61242f;fill-opacity:1;fill-rule:nonzero;stroke:none"
         id="path148" /><path
         d="m 2205.81,2232.1 c 42.64,-16.45 105.14,-215.89 98.89,-363.67 0,0 1.25,-15.97 16.25,0 0,0 -24.41,359 -114.08,389.99 l -1.06,-26.32"
         style="fill:#61242f;fill-opacity:1;fill-rule:nonzero;stroke:none"
         id="path150" /><path
         d="m 2216.23,2258.42 c 0,0 5.76,-35.27 -27.89,-32.77 -33.64,2.5 -36.16,28.7 -21.15,41.22 15.01,12.53 49.04,-8.45 49.04,-8.45"
         style="fill:#451b23;fill-opacity:1;fill-rule:nonzero;stroke:none"
         id="path152" /><path
         d="m 2125.95,2977.73 c -46.88,-40.83 -50,-86.74 -2.5,-170.04 47.5,-83.29 37.5,-185.61 37.5,-185.61 0,0 94.79,93.82 27.39,268.07 l -62.39,87.58"
         style="fill:#1f436b;fill-opacity:1;fill-rule:nonzero;stroke:none"
         id="path154" /><path
         d="m 2149.94,864.27 c 0,0 23.14,-51.379 16,-85.829 -4.31,-20.812 -26.66,-47.5 -8.75,-80.839 h 140.5 c 0,0 16.28,37.5 -16.72,72.5 -18.24,19.347 -31.69,109.168 -31.69,109.168 -15.71,-2.5 -11.67,-15 -11.67,-15 0,0 0.48,42.351 -35,36.671 -42.53,-6.812 -32.5,-44.171 -32.5,-44.171 0,0 -4.97,13.628 -20.17,7.5"
         style="fill:#451b23;fill-opacity:1;fill-rule:nonzero;stroke:none"
         id="path156" /><path
         d="m 2162.72,749.27 c 0,0 38.33,49.769 116.67,10 0,0 3.33,-35 -33.34,-28.329 -36.66,6.661 -58.33,-20 -83.33,18.329"
         style="fill:#61242f;fill-opacity:1;fill-rule:nonzero;stroke:none"
         id="path158" /><path
         d="m 2391.76,864.27 c 0,0 -10.11,-57.329 4.01,-75.829 16.43,-21.543 98.93,-24.043 58.77,-90.839 h -140.49 c 0,0 -21.63,14.296 -13.3,72.5 7.16,50.05 -8.33,109.168 -8.33,109.168 15.7,-2.5 21.67,-15 21.67,-15 0,0 -0.47,42.351 35,36.671 42.53,-6.812 32.5,-44.171 32.5,-44.171 0,0 4.47,9.011 10.17,7.5"
         style="fill:#451b23;fill-opacity:1;fill-rule:nonzero;stroke:none"
         id="path160" /><path
         d="m 2332.27,749.27 c 0,0 46.66,45.96 120.34,2.089 0,0 -0.34,-27.089 -37,-20.418 -36.67,6.661 -58.34,-20 -83.34,18.329"
         style="fill:#61242f;fill-opacity:1;fill-rule:nonzero;stroke:none"
         id="path162" /><path
         d="m 1865.52,2908.3 c 0,0 0,0 -22.6,-50.7 -22.5,-50.8 -29.5,-44.2 -58.7,-50.9 -27.3,-6.3 -44.3,42.3 -45.8,64.2 -1.4,18.5 -31,55.2 -28,70.8 1.2,6.3 5.3,2.6 13.1,-10.1 9.2,-14.9 22.7,-25.4 22.7,-25.4 9.7,16.9 -28.9,67.5 -15.8,84 6.4,8 24.2,-66.2 35.9,-68.4 0,0 4.1,5.8 -1.7,42.9 -3.3,21.3 -6.9,43.2 -1.2,47.3 10.4,7.4 9.6,-38.4 28.1,-87 0,0 0.5,23.5 -0.5,45.3 -1,19.9 -4,38.4 4.9,38 7.3,-0.3 8,-31.4 9.2,-51.2 2.3,-36.9 12,-63.4 18,-76.7 2.8,-6.4 4.9,-9.7 4.9,-9.7 27.3,49.8 37.5,37.6 37.5,37.6"
         style="fill:#f57559;fill-opacity:1;fill-rule:nonzero;stroke:none"
         id="path164" /><path
         d="m 1828.02,2870.7 c 0,0 -23.3,-7.5 -29.6,-25.1 0,0 -5,27.9 24.7,34.8 2.8,-6.4 4.9,-9.7 4.9,-9.7"
         style="fill:#ef5640;fill-opacity:1;fill-rule:nonzero;stroke:none"
         id="path166" /><path
         d="m 5189.55,2743.33 c -68.46,-95.83 -0.29,-220.29 6.41,-479.73 0,0 -30.08,-135.27 -48.35,-257.35 -18.27,-122.08 -44.94,-233.69 -44.94,-233.69 l 46.65,-25.44 c 0,0 133.72,344.1 150.2,503.91 l -26.07,427.73 -83.9,64.57"
         style="fill:#f57559;fill-opacity:1;fill-rule:nonzero;stroke:none"
         id="path168" /><path
         d="m 5183.28,3154.24 c 78.97,115.51 256.28,88.29 311.81,5.51 67.16,-100.11 12.51,-318.56 12.51,-318.56 0,0 -191.17,112.78 -306.51,-73.69 0,0 -106.14,257.55 -17.81,386.74"
         style="fill:#cf2548;fill-opacity:1;fill-rule:nonzero;stroke:none"
         id="path170" /><path
         d="m 5397.52,2969.38 c 0,0 0.84,-85.5 41.83,-158.12 0,0 -24.11,-55.83 -104.45,-30.35 0,0 6.61,73.43 -52.28,154.63 -39.44,54.38 114.9,33.84 114.9,33.84"
         style="fill:#ef5640;fill-opacity:1;fill-rule:nonzero;stroke:none"
         id="path172" /><path
         d="m 5230.71,3011.18 c 0,0 -35.1,27.79 -34.74,-9.38 0.4,-43.06 41.02,-55.76 47.02,-41.35 5.99,14.4 -12.28,50.73 -12.28,50.73"
         style="fill:#f57559;fill-opacity:1;fill-rule:nonzero;stroke:none"
         id="path174" /><path
         d="m 5451.41,3034.33 c 0,0 27.87,35.04 35.97,-1.24 9.39,-42.03 -27.29,-63.62 -36.4,-50.95 -9.11,12.66 0.43,52.19 0.43,52.19"
         style="fill:#f57559;fill-opacity:1;fill-rule:nonzero;stroke:none"
         id="path176" /><path
         d="m 5355.35,2869.37 c -69.85,-8.04 -114.52,33.05 -130.27,169.89 -8.12,70.59 22.81,118.02 101.05,127.02 78.24,9.01 116.17,-30.49 124.29,-101.09 16.92,-147.04 -22.91,-187.52 -95.07,-195.82"
         style="fill:#f57559;fill-opacity:1;fill-rule:nonzero;stroke:none"
         id="path178" /><path
         d="m 5432.91,3013.72 c 2.03,-6.88 -3.3,-14.52 -11.9,-17.06 -8.61,-2.54 -17.23,0.98 -19.26,7.86 -2.03,6.88 3.29,14.52 11.9,17.06 8.6,2.54 17.22,-0.98 19.26,-7.86"
         style="fill:#dc4b44;fill-opacity:1;fill-rule:nonzero;stroke:none"
         id="path180" /><path
         d="m 5289.67,2993.37 c 0.36,-7.17 -6.62,-13.34 -15.58,-13.78 -8.96,-0.44 -16.51,5.01 -16.87,12.17 -0.35,7.17 6.63,13.34 15.59,13.78 8.96,0.44 16.51,-5.01 16.86,-12.17"
         style="fill:#dc4b44;fill-opacity:1;fill-rule:nonzero;stroke:none"
         id="path182" /><path
         d="m 5394.45,3081.7 c -1.28,-0.93 -3.06,-0.91 -4.32,0.14 -10.83,9.03 -27.82,6.65 -27.99,6.63 -1.92,-0.29 -3.71,1.04 -3.99,2.96 -0.29,1.92 1.03,3.7 2.96,3.99 0.83,0.12 20.3,2.84 33.52,-8.18 1.49,-1.24 1.69,-3.46 0.45,-4.95 -0.19,-0.23 -0.41,-0.43 -0.63,-0.59"
         style="fill:#cf2548;fill-opacity:1;fill-rule:nonzero;stroke:none"
         id="path184" /><path
         d="m 5291.19,3080.76 c -0.5,-0.37 -1.1,-0.6 -1.76,-0.66 -0.17,-0.02 -17.28,-1.58 -25.76,-12.82 -1.18,-1.56 -3.38,-1.85 -4.93,-0.68 -1.54,1.17 -1.85,3.37 -0.68,4.92 10.37,13.76 29.95,15.52 30.78,15.58 1.93,0.17 3.62,-1.27 3.79,-3.21 0.11,-1.26 -0.47,-2.44 -1.44,-3.13"
         style="fill:#cf2548;fill-opacity:1;fill-rule:nonzero;stroke:none"
         id="path186" /><path
         d="m 5391.02,3043.3 c 1,-8.68 -2.1,-16.16 -6.92,-16.71 -4.82,-0.56 -9.53,6.02 -10.53,14.7 -1,8.67 2.1,16.16 6.92,16.71 4.81,0.55 9.53,-6.03 10.53,-14.7"
         style="fill:#22434d;fill-opacity:1;fill-rule:nonzero;stroke:none"
         id="path188" /><path
         d="m 5293.64,3032.09 c 1,-8.68 -2.09,-16.16 -6.91,-16.71 -4.82,-0.56 -9.54,6.02 -10.54,14.7 -0.99,8.68 2.1,16.16 6.92,16.71 4.82,0.56 9.54,-6.03 10.53,-14.7"
         style="fill:#22434d;fill-opacity:1;fill-rule:nonzero;stroke:none"
         id="path190" /><path
         d="m 5316.2,2949.45 c 0,0 44.2,-1.08 65.24,13.18 0,0 -8.95,-33.67 -33.04,-33.52 -24.1,0.16 -32.2,20.34 -32.2,20.34"
         style="fill:#22434d;fill-opacity:1;fill-rule:nonzero;stroke:none"
         id="path192" /><path
         d="m 5367.04,3044.9 c 0,0 3.91,22.1 12.47,21.53 8.57,-0.57 17.04,-18.13 17.04,-18.13 l 11.65,7.99 -12.22,-3.05 c 0,0 -8.65,18.35 -16.95,17.43 -11.82,-1.31 -11.99,-25.77 -11.99,-25.77"
         style="fill:#22434d;fill-opacity:1;fill-rule:nonzero;stroke:none"
         id="path194" /><path
         d="m 5299.52,3034.48 c 0,0 -8.82,20.63 -17.04,18.14 -8.22,-2.5 -12.47,-21.53 -12.47,-21.53 l -13.16,5.14 12.59,-0.2 c 0,0 4.26,19.84 12.55,20.83 11.81,1.41 17.53,-22.38 17.53,-22.38"
         style="fill:#22434d;fill-opacity:1;fill-rule:nonzero;stroke:none"
         id="path196" /><path
         d="m 5347.2,2989.19 c -1.38,-1 -2.95,-1.86 -4.71,-2.56 l -2.8,7.05 c 6,2.39 6.91,6.37 6.62,9.29 -0.41,4.12 -3.35,7.68 -5.71,8.11 -1.38,0.25 -2.66,-0.81 -3.82,-3.15 l -6.79,3.38 c 3.87,7.8 9.66,7.65 11.98,7.23 5.95,-1.09 11.16,-7.6 11.88,-14.82 0.59,-5.88 -1.85,-11.04 -6.65,-14.53"
         style="fill:#dc4b44;fill-opacity:1;fill-rule:nonzero;stroke:none"
         id="path198" /><path
         d="m 5348.82,3154.98 c 0,0 -96.44,-27.43 -104.63,-149.12 -8.19,-121.69 -74.48,-137.46 -74.48,-137.46 0,0 -96.17,402.65 184.23,362.54 0,0 59.77,7.05 109.26,-50.11 49.49,-57.16 -9.41,-174.97 -9.41,-174.97 0,0 -4.42,54.72 -14.44,64.84 0,0 -56.04,20.09 -90.53,84.28"
         style="fill:#cf2548;fill-opacity:1;fill-rule:nonzero;stroke:none"
         id="path200" /><path
         d="m 5746.52,2087.14 c -42.6,147.54 -126.87,256.89 -126.87,256.89 l -127.26,-21.1 -1.28,2.31 -10.31,-2.06 -1.48,0.03 0.03,-0.32 -131.41,-26.27 c 0,0 -56.56,-105.33 -94.17,-254.22 -37.61,-148.89 74.91,-524.99 74.91,-524.99 0,0 -63.34,-176.47 83.32,-636.469 h 69.11 c 0,0 -25.77,572.949 -15.77,636.469 8.63,54.79 19.72,255.54 14.05,409.24 7.97,-1.71 16.32,-2.41 25.04,-1.83 l 0.01,0.01 c -0.46,-153.76 17.35,-353.7 27.81,-408.12 12.13,-63.16 5.65,-636.991 5.65,-636.991 l 69.07,2.332 c 131.11,464.669 61.86,639.249 61.86,639.249 0,0 120.28,418.3 77.69,565.84"
         style="fill:#f57559;fill-opacity:1;fill-rule:nonzero;stroke:none"
         id="path202" /><path
         d="m 5632.9,2340.5 c -138.5,-104.5 -285.2,-52.8 -285.2,-52.8 0,0 -38.3,63.8 -90.9,189.5 -33.8,27.3 -41.1,67 -40,99.5 -25.6,67.2 -59.8,114.1 -42.3,148.5 14.6,28.6 63.5,47 111.2,62.6 3.9,1.2 7.9,2.5 11.8,3.7 29.5,9.5 57.5,18 75.2,27.4 30.5,16.3 53.2,31.3 70.8,46.7 7.4,6.4 13.9,12.9 19.7,19.5 26.4,30.1 39.9,63.9 60.3,112.4 8.2,19.7 122.3,77 129.2,-278.1 2.5,-128.6 -17.2,-141.9 -22.2,-238.7 -4.1,-80.1 2.4,-140.2 2.4,-140.2"
         style="fill:#91c1df;fill-opacity:1;fill-rule:nonzero;stroke:none"
         id="path204" /><path
         d="m 5637.98,823.391 c -4.22,28.757 6.4,49.199 -1.11,63.07 -11.61,21.437 -23.87,-5.672 -23.87,-5.672 -0.98,32.652 -55.68,32.59 -61.16,17.652 -1.46,-4 -3.13,-7.589 -4.85,-11.031 -3.4,7.871 -9.15,15.512 -16.64,11.031 -29.23,-17.5 7.11,-62.679 -19.48,-95.601 -33.85,-41.899 -13.01,-105.238 -13.01,-105.238 h 162.12 c 18.98,88.82 -17.78,97.148 -22,125.789"
         style="fill:#91c1df;fill-opacity:1;fill-rule:nonzero;stroke:none"
         id="path206" /><path
         d="m 5537.85,834.121 c 0,0 38.33,20.149 89.17,-6.519 l -10,18.339 c 0,0 -33.67,20.989 -74.5,5.321 l -4.67,-17.141"
         style="fill:#d2dadc;fill-opacity:1;fill-rule:nonzero;stroke:none"
         id="path208" /><path
         d="m 5531.17,803.66 c 0,0 54.57,18.949 105.4,-7.711 l -9.55,19.43 c 0,0 -48.34,20.922 -89.17,5.262 l -6.68,-16.981"
         style="fill:#d2dadc;fill-opacity:1;fill-rule:nonzero;stroke:none"
         id="path210" /><path
         d="m 5378.83,823.391 c 4.22,28.757 -6.4,49.199 1.11,63.07 11.61,21.437 23.87,-5.672 23.87,-5.672 0.98,32.652 55.68,32.59 61.16,17.652 1.46,-4 3.13,-7.589 4.85,-11.031 3.39,7.871 9.15,15.512 16.64,11.031 29.23,-17.5 -7.11,-62.679 19.48,-95.601 33.85,-41.899 13.01,-105.238 13.01,-105.238 h -162.12 c -18.99,88.82 17.78,97.148 22,125.789"
         style="fill:#91c1df;fill-opacity:1;fill-rule:nonzero;stroke:none"
         id="path212" /><path
         d="m 5478.96,834.121 c 0,0 -38.33,20.149 -89.17,-6.519 l 10,18.339 c 0,0 33.67,20.989 74.5,5.321 l 4.67,-17.141"
         style="fill:#d2dadc;fill-opacity:1;fill-rule:nonzero;stroke:none"
         id="path214" /><path
         d="m 5485.64,803.66 c 0,0 -54.57,18.949 -105.4,-7.711 l 9.55,19.43 c 0,0 48.34,20.922 89.17,5.262 l 6.68,-16.981"
         style="fill:#d2dadc;fill-opacity:1;fill-rule:nonzero;stroke:none"
         id="path216" /><path
         d="m 5035.82,1737.41 c 53.02,12.03 53.44,58.12 98.88,50.49 9.38,-1.58 15.44,-6.27 19.36,-11.84 7.5,-10.63 7.04,-24.84 0.63,-36.16 -14.71,-25.98 -27.52,-63.17 -32.33,-82.44 -5.61,-22.02 -11.6,-12.12 -11.6,-12.12 -0.35,-2.08 -0.57,-4.07 -0.8,-6.06 -1.86,-15.11 -0.96,-26.52 -9.73,-18.4 -9.95,9.1 -6.65,52.22 -6.65,52.22 -19.61,-60.42 -7.47,-71.92 -17.28,-64.64 -13.42,9.91 -4.33,64.67 -4.06,66.31 -17.87,-34.03 -18.15,-55.15 -24.99,-45.56 -6.92,9.72 16.67,73.76 25.68,97.24 2.01,5.29 3.35,8.55 3.35,8.55 -42.54,-12.67 -40.46,2.41 -40.46,2.41"
         style="fill:#f57559;fill-opacity:1;fill-rule:nonzero;stroke:none"
         id="path218" /><path
         d="m 5072.93,1726.45 c 2.01,5.29 3.35,8.55 3.35,8.55 0,0 17.88,-4.8 34.42,12.57 0,0 -8.13,-25.65 -37.77,-21.12"
         style="fill:#ef5640;fill-opacity:1;fill-rule:nonzero;stroke:none"
         id="path220" /><path
         d="m 5115.49,1690.25 c -1.22,-5.2 -8.46,-34.94 -4.73,-44.91 -0.35,-2.08 -0.57,-4.07 -0.8,-6.06 -10.98,4.32 3.25,44.82 5.53,50.97"
         style="fill:#ef5640;fill-opacity:1;fill-rule:nonzero;stroke:none"
         id="path222" /><path
         d="m 5510.87,802.84 c 0,0 -32.5,-40.828 -19.36,-105.238 h 27.44 c 0,0 6.32,57.89 -8.08,105.238"
         style="fill:#6296ae;fill-opacity:1;fill-rule:nonzero;stroke:none"
         id="path224" /><path
         d="m 5530.46,3693.94 c 0,0 0,0 16.24,-53.08 16.14,-53.16 23.89,-47.47 52.06,-57.68 26.33,-9.58 49.13,36.58 53.29,58.14 3.64,18.19 37.5,51 36.42,66.85 -0.42,6.4 -4.94,3.23 -14.23,-8.43 -10.95,-13.66 -25.63,-22.44 -25.63,-22.44 -7.57,17.96 36.92,63.47 25.93,81.45 -5.38,8.72 -32.09,-62.75 -43.98,-63.51 0,0 -3.36,6.26 6.92,42.37 5.88,20.74 12.12,42.04 6.96,46.8 -9.41,8.61 -14.21,-36.94 -38.5,-82.92 0,0 2.37,23.38 6.02,44.9 3.42,19.63 8.66,37.62 -0.22,38.31 -7.29,0.6 -11.77,-30.19 -15.38,-49.69 -6.78,-36.35 -19.64,-61.47 -27.22,-73.93 -3.56,-6.01 -6.05,-9.03 -6.05,-9.03 -21.02,52.75 -32.63,41.89 -32.63,41.89"
         style="fill:#f57559;fill-opacity:1;fill-rule:nonzero;stroke:none"
         id="path226" /><path
         d="m 5563.09,3652.05 c 0,0 22.21,-10.29 26.32,-28.53 0,0 8.36,27.09 -20.27,37.56 -3.56,-6.01 -6.05,-9.03 -6.05,-9.03"
         style="fill:#ef5640;fill-opacity:1;fill-rule:nonzero;stroke:none"
         id="path228" /><path
         d="m 5574.33,3617.32 c 0,0 -39.23,-262.5 -52.98,-364.47 -8.22,-61.01 6.9,-366.87 6.9,-366.87 0,0 36.29,-136.44 76.09,-129.21 29.51,5.36 35.76,47.65 38.26,119.1 2.5,71.45 -41.13,229.65 -35.33,306.59 11.58,153.61 -0.29,226.11 14.08,419.86 l -47.02,15"
         style="fill:#f57559;fill-opacity:1;fill-rule:nonzero;stroke:none"
         id="path230" /><path
         d="m 5769.5,1677.4 c -1.9,-25.1 -3.5,-40.3 -3.5,-40.3 0,0 -192.6,-114.6 -247.1,-22.1 0,0 -8.9,2.9 -17.8,56.3 -0.1,0.4 -0.2,0.7 -0.2,0.9 0,0.1 0,0.1 0,0.1 -4.3,25.5 -8.6,62.3 -11.9,115.4 0.6,-14.4 4.4,-77.3 3.1,-128.4 -0.4,-16.7 -1.4,-32.2 -3.2,-44.3 0,0 -71.6,-85 -244.7,9.6 0,0 -2.3,12.3 -5.1,34.1 -8.7,68.2 -22.1,229.4 15.7,397.2 17.7,78.8 46.8,159 92.9,231.8 0,0 11.9,0.2 31.1,1.3 19.1,1.1 45.6,3 75,6.5 8.2,1 16.5,2 25,3.2 31.2,4.5 64.3,10.7 94.6,19.3 21.8,6.1 42.2,13.6 59.5,22.5 0,0 73.1,-92.4 113.5,-210.4 8.1,-23.8 15,-48.7 19.6,-74 21,-115.2 10,-298.2 3.5,-378.7"
         style="fill:#2a5a9f;fill-opacity:1;fill-rule:nonzero;stroke:none"
         id="path232" /><path
         d="m 5746.4,2130.1 c -98,19.8 -150,124.4 -173,187.9 21.8,6.1 42.2,13.6 59.5,22.5 0,0 73.1,-92.4 113.5,-210.4"
         style="fill:#234e7e;fill-opacity:1;fill-rule:nonzero;stroke:none"
         id="path234" /><path
         d="m 5378.8,2289 c -15.2,-47.6 -40.9,-127.3 -52.8,-162.3 -7.7,-22.7 -38.8,-48.7 -71.2,-70.8 17.7,78.8 46.8,159 92.9,231.8 0,0 11.9,0.2 31.1,1.3"
         style="fill:#234e7e;fill-opacity:1;fill-rule:nonzero;stroke:none"
         id="path236" /><path
         d="m 5488.9,1788.2 c -32.2,142.5 -35.3,397.2 -35.1,507.3 8.2,1 16.5,2 25,3.2 32.6,-237.1 -7.4,-223.2 -7.4,-223.2 -4.5,-84.6 16.4,-276.5 17.5,-287.3"
         style="fill:#234e7e;fill-opacity:1;fill-rule:nonzero;stroke:none"
         id="path238" /><path
         d="m 5492.1,1659.3 c -0.4,-16.7 -1.4,-32.2 -3.2,-44.3 0,0 -71.6,-85 -244.7,9.6 0,0 -2.3,12.3 -5.1,34.1 37.9,-21.8 93.9,-50 139.7,-56.1 57.1,-7.5 96.7,34.5 113.3,56.7"
         style="fill:#234e7e;fill-opacity:1;fill-rule:nonzero;stroke:none"
         id="path240" /><path
         d="m 5769.5,1677.4 c -1.9,-25.1 -3.5,-40.3 -3.5,-40.3 0,0 -192.6,-114.6 -247.1,-22.1 0,0 -9,2.9 -18,57.2 0.5,-2.6 8.2,-38.4 79.9,-60.3 51.4,-15.8 139.3,33.5 188.7,65.5"
         style="fill:#234e7e;fill-opacity:1;fill-rule:nonzero;stroke:none"
         id="path242" /><path
         d="m 5635.2,2327 c -7.5,-37.8 -252.8,-65 -295.4,-52.1 0,0 -6.5,17.9 -9.3,31 -1.4,6.7 -1.9,12.1 -0.1,13.2 0,0 148.9,-12.4 299.9,59.3 0,0 3.1,-3.4 5.3,-11.6 2.1,-8.1 3.3,-20.9 -0.4,-39.8"
         style="fill:#2a5a9f;fill-opacity:1;fill-rule:nonzero;stroke:none"
         id="path244" /><path
         d="m 5635.2,2327 c -7.5,-37.8 -252.8,-65 -295.4,-52.1 0,0 -6.5,17.9 -9.3,31 0,0 142.2,-14.9 305.1,60.9 2.1,-8.1 3.3,-20.9 -0.4,-39.8"
         style="fill:#1f436b;fill-opacity:1;fill-rule:nonzero;stroke:none"
         id="path246" /><path
         d="m 5433.6,2309.23 c 0,0 1.38,-31.02 7.72,-34.29 6.35,-3.27 50.27,5.71 50.27,5.71 0,0 5.84,23.12 0,36.85 l -57.99,-8.27"
         style="fill:#91c1df;fill-opacity:1;fill-rule:nonzero;stroke:none"
         id="path248" /><path
         d="m 5538.5,2340.5 c 0,0 10,-20.5 11.67,-55.5 h 14.17 c 0,0 1.66,39.72 -9.17,59.03 l -16.67,-3.53"
         style="fill:#2a5a9f;fill-opacity:1;fill-rule:nonzero;stroke:none"
         id="path250" /><path
         d="m 5377.52,2309.77 15,-0.03 c 0,0 1.67,-21.18 10.84,-49.51 h -12.92 c 0,0 -18.75,19.09 -12.92,49.54"
         style="fill:#2a5a9f;fill-opacity:1;fill-rule:nonzero;stroke:none"
         id="path252" /><path
         d="m 5463.2,2885.1 c -30.5,-66.8 -86.8,-201 -100.1,-309.9 l -1.5,-11.8 -7.4,9.3 c -4.2,5.4 -95.7,121.7 -68.5,215.1 3.9,1.2 7.9,2.5 11.8,3.7 -26.9,-74.9 35.4,-172.1 57.3,-202.8 14.2,95.9 58.3,207.8 88.7,276.9 7.4,6.4 13.9,12.9 19.7,19.5"
         style="fill:#d2dadc;fill-opacity:1;fill-rule:nonzero;stroke:none"
         id="path254" /><path
         d="m 5380.71,2555.83 c 0,-19.33 -10.27,-35 -22.95,-35 -12.67,0 -22.95,15.67 -22.95,35 0,19.33 10.28,35 22.95,35 12.68,0 22.95,-15.67 22.95,-35"
         style="fill:#d2dadc;fill-opacity:1;fill-rule:nonzero;stroke:none"
         id="path256" /><path
         d="m 5369.42,2555.83 c 0,-13.04 -6.93,-23.6 -15.48,-23.6 -8.55,0 -15.48,10.56 -15.48,23.6 0,13.04 6.93,23.61 15.48,23.61 8.55,0 15.48,-10.57 15.48,-23.61"
         style="fill:#1f436b;fill-opacity:1;fill-rule:nonzero;stroke:none"
         id="path258" /><path
         d="m 4822.59,2349.4 c -13.33,-20 -100,66.65 -100,105.83 0,0 78.33,59.17 113.33,37.5 35,-21.66 -13.33,-143.33 -13.33,-143.33"
         style="fill:#b72245;fill-opacity:1;fill-rule:nonzero;stroke:none"
         id="path260" /><path
         d="m 4766.24,2522.73 -71.53,-120 -72.12,-41.66 c 0,0 14.87,-72.03 48.33,-89.47 33.46,-17.43 60,96.13 60,96.13 0,0 106.67,77.76 150,166.38 43.34,88.62 -114.68,-11.38 -114.68,-11.38"
         style="fill:#f57559;fill-opacity:1;fill-rule:nonzero;stroke:none"
         id="path262" /><path
         d="m 4614.28,2918.47 c 0,0 289.98,-186.87 358.31,-243.8 0,0 20,-34.18 0,-93.89 -20,-59.71 -53.33,-111.29 -53.33,-111.29 0,0 1.66,-25.14 -3.34,-27.62 -5,-2.47 -21.66,-9.14 -21.66,-14.14 0,-5 -43.34,-42.23 -71.67,-78.33 0,0 -42.12,92.47 -100,105.83 l 75.29,131.91 c 0,0 -2.6,2.35 -3.62,5.92 -1.64,5.76 3.62,19.67 3.62,19.67 l -153.62,45 -29.98,260.74"
         style="fill:#cf2548;fill-opacity:1;fill-rule:nonzero;stroke:none"
         id="path264" /><path
         d="m 3944.37,2664.91 c -26.78,5.74 -94.28,-76.09 -95.53,-130.8 l 90,-48.32 5.53,179.12"
         style="fill:#b72245;fill-opacity:1;fill-rule:nonzero;stroke:none"
         id="path266" /><path
         d="m 4131.36,2811 c -20.44,-10.65 -216.83,-440.64 -216.83,-440.64 0,0 6.23,-86.31 48.73,-96.01 42.5,-9.7 208.75,165 208.75,165 0,0 42.22,414.87 -40.65,371.65"
         style="fill:#cf2548;fill-opacity:1;fill-rule:nonzero;stroke:none"
         id="path268" /><path
         d="m 3904.16,2399.05 c -23.78,68.55 -31.51,259.28 -14.06,345.45 l 42.78,-3.99 c 0,0 28.13,-207.6 56.95,-271.13 28.83,-63.54 23.87,-115.22 -16.76,-140.74 -40.62,-25.53 -63.91,55.98 -68.91,70.41"
         style="fill:#f57559;fill-opacity:1;fill-rule:nonzero;stroke:none"
         id="path270" /><path
         d="m 3959.64,2834.84 c 0,0 0,0 -6.39,-55.14 -6.25,-55.2 -14.91,-51 -40.76,-66.14 -24.16,-14.18 -54.94,27.1 -62.92,47.54 -6.88,17.24 -46.11,43.39 -47.92,59.17 -0.74,6.37 4.28,4.07 15.53,-5.71 13.23,-11.46 29.26,-17.44 29.26,-17.44 4.19,19.03 -47.79,55.75 -40.23,75.42 3.71,9.54 42.91,-55.92 54.74,-54.52 0,0 2.17,6.76 -14.47,40.42 -9.53,19.34 -19.52,39.16 -15.31,44.78 7.71,10.17 20.66,-33.77 52.86,-74.6 0,0 -6.56,22.57 -14.04,43.07 -6.91,18.69 -15.31,35.44 -6.7,37.73 7.05,1.9 17.03,-27.57 24.11,-46.1 13.24,-34.52 30.43,-56.9 40.14,-67.79 4.58,-5.27 7.58,-7.79 7.58,-7.79 11.13,55.69 24.52,47.1 24.52,47.1"
         style="fill:#f57559;fill-opacity:1;fill-rule:nonzero;stroke:none"
         id="path272" /><path
         d="m 3935.12,2787.74 c 0,0 -19.99,-14.13 -20.73,-32.81 0,0 -13.13,25.12 13.15,40.6 4.58,-5.27 7.58,-7.79 7.58,-7.79"
         style="fill:#ef5640;fill-opacity:1;fill-rule:nonzero;stroke:none"
         id="path274" /><path
         d="m 4369.21,3280.14 c -162.25,8.14 -194.93,-131.2 -177.43,-294.71 17.5,-163.5 -20.13,-371.79 -42.58,-452.65 -22.45,-80.85 10.05,-152.25 10.05,-152.25 0,0 -20,60.61 15,152.25 0,0 -55.97,-186.45 94.52,-221.15 150.48,-34.7 183.88,18.82 227.92,278.91 44.05,260.08 107.47,677.81 -127.48,689.6"
         style="fill:#1b3540;fill-opacity:1;fill-rule:nonzero;stroke:none"
         id="path276" /><path
         d="m 4130.09,2327.1 c 8.33,-43.71 129.17,-40.5 214.17,13.4 85,53.9 353.21,45.94 350.45,114.73 -2.76,68.78 -363.09,280.17 -363.09,280.17 0,0 -229.03,-263.93 -201.53,-408.3"
         style="fill:#b72245;fill-opacity:1;fill-rule:nonzero;stroke:none"
         id="path278" /><path
         d="m 4095.25,890.602 67.3,-15.704 c 0,0 105.2,563.802 129.4,623.402 20.8,51.4 109.7,248 139.2,399 1.4,-0.7 10.6,0.9 23.1,3.3 h 0.1 c 3.1,0.7 6.4,1.4 9.9,2.1 3.1,0.7 6.4,1.4 9.7,2.1 2.5,-150.5 35.2,-336.1 45.2,-388.1 12.1,-63.1 5.6,-637.001 5.6,-637.001 l 69.1,2.301 c 131.1,464.7 61.9,639.3 61.9,639.3 0,0 120.2,418.3 77.6,565.8 -14.1,49.2 -31.5,93.8 -48.3,131.3 -1.4,3.1 -2.7,6.1 -4.2,9 -32,69.8 -61.1,113.1 -61.1,113.1 l -140.5,-17.6 -1.3,2.3 -4.1,-0.8 v -44.1 l -17.8,0.9 -4,0.3 h -0.1 l -58.3,3.1 -8,0.4 -51,2.7 c 0,0 -30.6,-48.7 -74.2,-127 -1.6,-3 -3.3,-6 -4.9,-9 -15.5,-28.1 -32.5,-59.7 -50.3,-94 -70.5,-136.5 -46.4,-528.3 -46.4,-528.3 0,0 -101.8,-157.5 -63.6,-638.798"
         style="fill:#f57559;fill-opacity:1;fill-rule:nonzero;stroke:none"
         id="path280" /><path
         d="m 4573.45,2324.3 c 0.5,-1 36.7,-87.1 111.6,-105.9 -1.4,3.1 -2.7,6.1 -4.2,9 -67.2,20.9 -100,98.8 -100.4,99.7 l -7,-2.8"
         style="fill:#6196b4;fill-opacity:1;fill-rule:nonzero;stroke:none"
         id="path282" /><path
         d="m 4255.55,2151.7 c 83.9,18 126.7,105.8 138.1,132.9 2,4.9 3,7.8 3.1,8 l -7.1,2.5 c -0.1,-0.2 -1.4,-4 -4,-10.1 -12,-27.8 -51.3,-104.7 -125.2,-124.3 -1.6,-3 -3.3,-6 -4.9,-9"
         style="fill:#6196b4;fill-opacity:1;fill-rule:nonzero;stroke:none"
         id="path284" /><path
         d="m 4454.35,1900.6 c 3.1,0.7 6.4,1.4 9.9,2.1 12.2,22.5 34.4,70.9 52.6,151.6 26.2,116.2 -33.4,240 -34,241.2 l -6.8,-3.3 c 0.6,-1.2 59.1,-122.7 33.5,-236.3 -1.1,-4.8 -2.2,-9.5 -3.3,-14 -0.6,-2.5 -1.2,-4.9 -1.8,-7.3 -18.6,-73.9 -40.3,-116.8 -50.1,-134"
         style="fill:#6196b4;fill-opacity:1;fill-rule:nonzero;stroke:none"
         id="path286" /><path
         d="m 4508.29,2034.2 c 0.36,0 0.72,0.01 1.09,0.04 l -0.47,7.48 c -4.03,-0.2 -8.62,2.02 -12.3,6.2 -4.97,5.68 -15.62,23.64 -7.03,67.72 11.53,59.2 -32.31,162.9 -34.18,167.29 l -6.9,-2.94 c 0.45,-1.05 44.81,-105.98 33.71,-162.92 -8.88,-45.64 1.67,-66.01 8.76,-74.09 4.93,-5.62 11.18,-8.78 17.32,-8.78"
         style="fill:#6196b4;fill-opacity:1;fill-rule:nonzero;stroke:none"
         id="path288" /><path
         d="m 4334.64,2287.7 c 0,0 146.7,-51.7 285.1,52.8 0,0 25.7,528.3 -23.2,563.7 -21.4,15.5 -63.6,3.1 -104.3,-15.8 -52.5,-24.4 -102.7,-59.5 -102.7,-59.5 0,0 -91.1,12.9 -162.9,5 -45.7,-4.9 -83.5,-18.3 -85.2,-48.6 -4.5,-78.1 193.2,-497.6 193.2,-497.6"
         style="fill:#f57559;fill-opacity:1;fill-rule:nonzero;stroke:none"
         id="path290" /><path
         d="m 4222.74,2832.7 c 30.8,3.2 36.5,-20.1 67.3,-31.3 30.9,-11.3 67.9,-20 81.9,-21.3 14,-1.3 21.4,-18.7 21.4,-18.7 0,0 5,23.5 12.6,25.5 7.4,1.9 72.7,67.6 86.3,101.5 -52.5,-24.4 -102.7,-59.5 -102.7,-59.5 0,0 -91.1,12.9 -162.9,5 -2.5,-0.8 -3.9,-1.2 -3.9,-1.2"
         style="fill:#ef5640;fill-opacity:1;fill-rule:nonzero;stroke:none"
         id="path292" /><path
         d="m 4624.86,823.391 c -4.22,28.757 6.4,49.199 -1.11,63.07 -11.61,21.437 -23.87,-5.672 -23.87,-5.672 -0.98,32.652 -55.68,32.59 -61.16,17.652 -1.46,-4 -3.13,-7.589 -4.85,-11.031 -3.4,7.871 -9.16,15.512 -16.64,11.031 -29.23,-17.5 7.11,-62.679 -19.48,-95.601 -33.85,-41.899 -13.02,-105.238 -13.02,-105.238 h 162.13 c 18.98,88.82 -17.78,97.148 -22,125.789"
         style="fill:#ef294d;fill-opacity:1;fill-rule:nonzero;stroke:none"
         id="path294" /><path
         d="m 4524.73,834.121 c 0,0 38.33,20.149 89.17,-6.519 l -10,18.339 c 0,0 -33.67,20.989 -74.51,5.321 l -4.66,-17.141"
         style="fill:#acbfc3;fill-opacity:1;fill-rule:nonzero;stroke:none"
         id="path296" /><path
         d="m 4518.05,803.66 c 0,0 54.57,18.949 105.4,-7.711 l -9.55,19.43 c 0,0 -48.34,20.922 -89.17,5.262 l -6.68,-16.981"
         style="fill:#acbfc3;fill-opacity:1;fill-rule:nonzero;stroke:none"
         id="path298" /><path
         d="m 4065.52,823.391 c 4.22,28.757 -6.4,49.199 1.11,63.07 11.61,21.437 23.87,-5.672 23.87,-5.672 0.98,32.652 55.68,32.59 61.16,17.652 1.46,-4 3.13,-7.589 4.85,-11.031 3.39,7.871 9.15,15.512 16.64,11.031 29.23,-17.5 -7.11,-62.679 19.48,-95.601 33.85,-41.899 13.01,-105.238 13.01,-105.238 h -162.12 c -18.98,88.82 17.78,97.148 22,125.789"
         style="fill:#ef294d;fill-opacity:1;fill-rule:nonzero;stroke:none"
         id="path300" /><path
         d="m 4165.65,834.121 c 0,0 -38.33,20.149 -89.17,-6.519 l 10,18.339 c 0,0 33.67,20.989 74.5,5.321 l 4.67,-17.141"
         style="fill:#acbfc3;fill-opacity:1;fill-rule:nonzero;stroke:none"
         id="path302" /><path
         d="m 4172.33,803.66 c 0,0 -54.57,18.949 -105.4,-7.711 l 9.55,19.43 c 0,0 48.34,20.922 89.17,5.262 l 6.68,-16.981"
         style="fill:#acbfc3;fill-opacity:1;fill-rule:nonzero;stroke:none"
         id="path304" /><path
         d="m 4401.32,3003.65 c 0,0 -11.68,-141.05 27.56,-161.22 0,0 -28.99,-53.46 -106.74,-20.92 0,0 13.13,72.55 -38.29,158.68 -34.43,57.67 117.47,23.46 117.47,23.46"
         style="fill:#ef5640;fill-opacity:1;fill-rule:nonzero;stroke:none"
         id="path306" /><path
         d="m 4249.63,3072.09 c 0,0 -29.19,33.94 -35.89,-2.63 -7.75,-42.36 29.72,-62.52 38.34,-49.51 8.61,13.01 -2.45,52.14 -2.45,52.14"
         style="fill:#f57559;fill-opacity:1;fill-rule:nonzero;stroke:none"
         id="path308" /><path
         d="m 4470.72,3053.02 c 0,0 34,29.12 35.09,-8.04 1.25,-43.04 -38.85,-57.29 -45.39,-43.13 -6.55,14.16 10.3,51.17 10.3,51.17"
         style="fill:#f57559;fill-opacity:1;fill-rule:nonzero;stroke:none"
         id="path310" /><path
         d="m 4345.16,2909.23 c -70.11,5.34 -106.2,54.15 -95.74,191.5 5.4,70.85 44.76,111.56 123.28,105.58 78.53,-5.98 108.3,-51.95 102.9,-122.8 -11.24,-147.59 -58.02,-179.79 -130.44,-174.28"
         style="fill:#f57559;fill-opacity:1;fill-rule:nonzero;stroke:none"
         id="path312" /><path
         d="m 4448.65,3036.29 c 0.69,-7.14 -5.99,-13.63 -14.91,-14.5 -8.93,-0.87 -16.73,4.22 -17.43,11.36 -0.69,7.14 5.99,13.63 14.92,14.5 8.93,0.86 16.73,-4.22 17.42,-11.36"
         style="fill:#dc4b44;fill-opacity:1;fill-rule:nonzero;stroke:none"
         id="path314" /><path
         d="m 4304.15,3043.43 c -1,-7.1 -9.02,-11.84 -17.9,-10.58 -8.89,1.27 -15.27,8.05 -14.26,15.15 1.01,7.1 9.03,11.84 17.91,10.57 8.88,-1.25 15.26,-8.04 14.25,-15.14"
         style="fill:#dc4b44;fill-opacity:1;fill-rule:nonzero;stroke:none"
         id="path316" /><path
         d="m 4423.76,3110.32 c -1.42,-0.67 -3.17,-0.32 -4.2,0.96 -8.93,10.91 -26.07,11.8 -26.24,11.8 -1.93,0.09 -3.44,1.73 -3.35,3.67 0.08,1.93 1.71,3.43 3.66,3.35 0.83,-0.03 20.47,-1.05 31.37,-14.38 1.22,-1.5 1,-3.71 -0.5,-4.94 -0.23,-0.19 -0.48,-0.35 -0.74,-0.46"
         style="fill:#1b3540;fill-opacity:1;fill-rule:nonzero;stroke:none"
         id="path318" /><path
         d="m 4322.2,3128.95 c -0.56,-0.26 -1.2,-0.38 -1.86,-0.31 -0.17,0.02 -17.26,1.72 -27.72,-7.7 -1.45,-1.31 -3.67,-1.19 -4.96,0.26 -1.3,1.44 -1.19,3.66 0.26,4.96 12.79,11.54 32.35,9.56 33.18,9.47 1.92,-0.21 3.31,-1.94 3.11,-3.87 -0.14,-1.27 -0.93,-2.31 -2.01,-2.81"
         style="fill:#1b3540;fill-opacity:1;fill-rule:nonzero;stroke:none"
         id="path320" /><path
         d="m 4413.13,3073.26 c -0.67,-8.71 -5.13,-15.47 -9.96,-15.1 -4.84,0.37 -8.23,7.73 -7.56,16.43 0.66,8.71 5.12,15.47 9.96,15.1 4.83,-0.37 8.22,-7.72 7.56,-16.43"
         style="fill:#22434d;fill-opacity:1;fill-rule:nonzero;stroke:none"
         id="path322" /><path
         d="m 4314.25,3081.27 c -0.66,-8.71 -5.12,-15.47 -9.96,-15.1 -4.84,0.37 -8.22,7.72 -7.56,16.43 0.66,8.71 5.12,15.47 9.96,15.1 4.84,-0.37 8.22,-7.73 7.56,-16.43"
         style="fill:#22434d;fill-opacity:1;fill-rule:nonzero;stroke:none"
         id="path324" /><path
         d="m 4321.88,2995.29 c 0,0 43.2,-9.43 66.56,0.58 0,0 -15.17,-31.37 -38.79,-26.65 -23.63,4.71 -27.77,26.07 -27.77,26.07"
         style="fill:#22434d;fill-opacity:1;fill-rule:nonzero;stroke:none"
         id="path326" /><path
         d="m 4389.88,3079.37 c 0,0 8.02,20.97 16.33,18.79 8.31,-2.19 13.29,-21.04 13.29,-21.04 l 12.95,5.65 -12.57,-0.68 c 0,0 -5.02,19.65 -13.35,20.32 -11.85,0.95 -16.65,-23.04 -16.65,-23.04"
         style="fill:#22434d;fill-opacity:1;fill-rule:nonzero;stroke:none"
         id="path328" /><path
         d="m 4321.61,3081.94 c 0,0 -4.75,21.93 -13.29,21.03 -8.55,-0.9 -16.33,-18.78 -16.33,-18.78 l -11.94,7.54 12.32,-2.57 c 0,0 7.94,18.66 16.27,18.07 11.86,-0.85 12.97,-25.29 12.97,-25.29"
         style="fill:#22434d;fill-opacity:1;fill-rule:nonzero;stroke:none"
         id="path330" /><path
         d="m 4359.85,3028.44 c -1.55,-0.73 -3.25,-1.27 -5.11,-1.63 l -1.42,7.45 c 6.35,1.21 8,4.95 8.26,7.87 0.38,4.12 -1.83,8.18 -4.07,9.05 -1.3,0.5 -2.76,-0.29 -4.35,-2.37 l -6.02,4.6 c 5.28,6.92 10.93,5.69 13.13,4.83 5.63,-2.2 9.52,-9.58 8.86,-16.8 -0.54,-5.88 -3.91,-10.49 -9.28,-13"
         style="fill:#dc4b44;fill-opacity:1;fill-rule:nonzero;stroke:none"
         id="path332" /><path
         d="m 4361.93,3200.66 c 0,0 4.2,-49.76 -32.68,-80.63 0,0 15.32,30.63 16.41,50.63 0,0 -30.02,-51.25 -57.59,-56.25 -27.57,-5 -67.57,-19.82 -67.57,-19.82 0,0 17.84,121.07 137.67,128.57 119.83,7.5 146.32,-67.22 124.2,-149.23 0,0 -47.55,20.48 -56.58,67.98 0,0 11.54,-36.23 -51.87,-21.86 0,0 13.19,38.11 -11.99,80.61"
         style="fill:#1b3540;fill-opacity:1;fill-rule:nonzero;stroke:none"
         id="path334" /><path
         d="m 4765.09,1748.2 c -385.2,-80.2 -658.4,21.1 -658.4,21.1 l 153.4,571.1 2.8,10.3 3.4,12.9 2.9,10.8 1.9,6.8 2.9,10.7 2.4,9.1 2.4,9 c -0.3,0.3 -0.7,0.6 -1,0.9 -135.3,117.9 -126.3,394.4 -126.3,394.4 16.3,29.3 50,32.5 50,32.5 80.3,-128.1 197,-204.9 197,-204.9 73.3,73.5 125,278.1 125,278.1 46,20.1 83.1,-6.8 83.1,-6.8 79.7,-126.8 27.8,-388.4 19,-429.2 -0.8,-3.5 -1.2,-5.4 -1.2,-5.4 1.7,-3.5 3.4,-7.1 5,-10.7 1.1,-2.3 2.2,-4.7 3.3,-7.1 3.3,-7.2 6.5,-14.3 9.6,-21.5 2.1,-4.7 4.1,-9.4 6,-14.2 3.9,-9.1 7.6,-18.2 11.2,-27.4 125.4,-319.3 105.6,-640.5 105.6,-640.5"
         style="fill:#f9ad63;fill-opacity:1;fill-rule:nonzero;stroke:none"
         id="path336" /><path
         d="m 4629.39,2458.9 -8.2,6.9 c -5.7,4.7 -7.2,3.9 -10.2,2.2 -6.6,-3.5 -13.6,-5.6 -27.9,8.4 -5.3,5.3 -8.3,6.2 -9.5,6 -2.3,-0.1 -4.8,-2.8 -7.6,-6 -5.5,-6.2 -13,-14.7 -27.4,-11.8 -9.8,1.9 -13,-1.7 -17,-6.3 -4.5,-5.1 -10.7,-12 -24.6,-4.2 -7.1,3.9 -12.8,1.5 -21.6,-2.7 -9.6,-4.6 -21.4,-10.3 -35.8,-0.3 -3.6,2.6 -5,2.3 -5.1,2.3 -1.2,-0.3 -3,-3.8 -4.2,-6.3 -2.7,-5.3 -6.1,-12 -13.6,-14.3 -6,-1.9 -13.3,-0.3 -22.4,4.7 -14.3,8 -18.4,2.3 -25.1,-7.1 -6.6,-9.3 -15.6,-22 -36.9,-13 -13.6,5.7 -17.3,1.8 -23.4,-4.7 -5.4,-5.7 -11.7,-12.4 -24.6,-12.4 -2.4,0 -5,0.2 -7.9,0.7 l 2.4,9 c -0.3,0.3 -0.7,0.6 -1,0.9 13.4,-2.5 18.3,2.7 23.8,8.6 6.5,6.9 14.5,15.5 34.6,7.1 13.9,-5.9 18.3,0.3 24.9,9.6 6.7,9.4 16,22.4 38.1,10 6.3,-3.5 11.4,-4.9 14.6,-3.9 3.4,1.1 5.4,5.1 7.5,9.3 2.4,4.7 5.1,10.1 10.7,11.5 4,1 8.3,-0.3 13.4,-3.8 9.5,-6.6 16.6,-3.2 25.6,1.1 8.9,4.3 18.9,9.1 30.9,2.4 6.9,-3.9 8.1,-2.4 12.2,2.1 4.4,5 11,12.6 26.5,9.5 8.7,-1.7 13,3 17.9,8.6 3.8,4.3 8.2,9.2 14.7,9.4 4.9,0.2 10.6,-2.6 16.9,-8.8 10.2,-10 12.8,-8.6 16.1,-6.8 4.9,2.7 10.5,4.8 19.4,-1.8 -0.8,-3.5 -1.2,-5.4 -1.2,-5.4 1.7,-3.5 3.4,-7.1 5,-10.7"
         style="fill:#f29b53;fill-opacity:1;fill-rule:nonzero;stroke:none"
         id="path338" /><path
         d="m 4608.29,2424.9 c -4.8,-1.8 -10.5,1 -16,3.6 -0.9,0.5 -1.8,0.9 -2.6,1.3 3.6,0.3 7,1.4 10.2,2.5 7,2.5 12.6,4.4 19.7,-1 5,-3.9 9.9,-9.4 14.6,-14.7 1,-1.1 2,-2.2 3,-3.3 -11,8.1 -20.5,14.9 -28.9,11.6 z m -32.5,6.9 c -3.2,-1.2 -5.5,-4 -7,-8.1 -1.2,-3.1 -2.4,-3.6 -11.5,-1.9 -8.1,1.5 -19.3,3.6 -27.1,-6.9 -10.7,-14.6 -17.2,-18 -34.5,-9 -12.3,6.4 -21.6,1.1 -28.3,-2.7 -7,-3.9 -10.3,-5.4 -15.8,-1.2 -4.7,3.6 -8.9,4.9 -12.9,4.3 -5.4,-1 -8.3,-5.7 -10.3,-8.9 -0.1,-0.1 -0.2,-0.3 -0.3,-0.5 -6.5,6.5 -14.2,0.4 -19.3,-3.7 -8.3,-6.7 -14,-10.3 -22,-4.7 -4.3,3 -8.3,4 -11.9,2.9 -6.1,-1.7 -8.8,-8 -11.5,-14.2 -2.3,-5.2 -4.7,-10.7 -8.2,-11.8 -3.1,-0.9 -7.6,1.3 -10.8,3.2 -8.6,5.4 -15.8,7.2 -22,5.5 -6.7,-1.8 -10.8,-7.1 -14.3,-13 1.4,2.8 2.6,5.8 3.7,8.7 2.6,6.6 5.5,14.1 9.6,15.6 2.2,0.7 5.1,0 8.7,-2 16.6,-9.4 29.2,0.4 38.5,7.5 10.1,7.8 14.5,10.3 21,5.3 13.3,-10.1 24.5,0.9 33.5,9.7 10.9,10.7 18.1,16.8 28.6,10.2 17.4,-11.2 28.7,-7 37,-3.9 6.3,2.4 9.1,3.2 13.3,-0.1 11.2,-8.7 19.9,2.4 25.7,9.8 7.8,10 11.3,12.8 16.6,9.8 13,-7.3 20.2,-1.6 24.6,1.8 3.7,2.9 4,3.1 7.2,0.5 0.8,-0.7 1.6,-1.2 2.4,-1.7 -0.9,-0.1 -1.8,-0.1 -2.7,-0.5 z m 72.5,-15.7 c -2,2.1 -4.2,4.5 -6.6,7.2 -5,5.6 -10.2,11.5 -16.1,15.9 -11.3,8.7 -21.5,5.2 -29,2.6 -6.8,-2.4 -10.2,-3.3 -14.2,-0.1 -9.4,7.8 -15.8,2.7 -19.7,-0.3 -4,-3.1 -6.4,-5 -13.5,-1 -13.7,7.8 -23.1,-4.4 -29.4,-12.3 -7.6,-9.8 -9.2,-10 -11.6,-8.1 -8.8,6.9 -16.4,4.1 -23,1.6 -7.7,-2.9 -14.9,-5.6 -28.1,2.9 -8.2,5.2 -15.4,5.2 -21.7,2.8 7.2,5.7 10.7,7.1 16,3.1 12.9,-9.8 23.3,-4.3 31.7,0.2 7.7,4 12.8,6.4 19.6,2.7 7.7,-4.2 13.2,-2 16.4,0.6 3.5,2.8 5.8,7.1 8,11.2 2.1,3.7 4.4,8 6.6,8.5 1.2,0.4 3.4,-0.5 6,-2.4 5.4,-4 10.1,-5.6 14.3,-4.8 5.4,0.9 8.4,5.2 10.5,8.4 1.1,1.5 2.5,3.7 3.4,3.8 0.3,0 2.1,-0.1 6.5,-3.7 14.2,-12 22.9,-7.9 29.4,-4.8 4.5,2.1 7.2,3.4 12.3,0.7 8.4,-4.4 18.6,-13.3 26.2,-20.5 -3.1,7.2 -6.3,14.3 -9.6,21.5 -4,3.1 -8.1,5.9 -11.9,7.9 -9.6,5 -16.4,1.8 -21.3,-0.6 -5.7,-2.6 -9.4,-4.4 -18.7,3.4 -5.5,4.7 -10,6.5 -14.3,6 -5.2,-0.7 -8,-4.8 -10.2,-8.1 -1.4,-2 -2.8,-4 -4,-4.2 -0.4,-0.1 -2.4,-0.1 -6.8,3.1 -5.1,3.7 -9.7,5.1 -14,4.1 -6.7,-1.5 -10.1,-7.9 -13.2,-13.6 -1.7,-3.2 -3.5,-6.6 -5.4,-8.1 -0.8,-0.6 -1.9,-1.5 -5.4,0.4 -11.9,6.4 -21.4,1.4 -29.1,-2.7 -8.6,-4.5 -13.5,-6.7 -21,-1 -12.7,9.5 -22.8,1.2 -31,-5.4 -8.5,-6.9 -15.8,-12.9 -27.2,-6.6 -17.4,9.5 -26.3,0 -33.4,-7.6 -6.5,-6.9 -11.7,-12.3 -23.4,-8.7 -26,8 -35.3,-5.6 -42.8,-16.4 -2.3,-3.4 -4.5,-6.6 -7.1,-9 -1.2,-1.1 -2.4,-1.6 -4.1,-1.4 -4.3,0.3 -9.9,4.4 -14.4,8.6 l -2.9,-10.7 c 4.7,-3.9 10.7,-7.4 16.6,-7.9 h 1.2 c 3.9,0 7.5,1.4 10.4,4.1 3.4,3.1 6,6.9 8.6,10.6 7,10.2 12.6,18.3 31.6,12.5 17.6,-5.4 26.8,4.3 33.5,11.5 6.9,7.4 10.8,11.4 21.4,5.6 10,-5.5 18.2,-4.4 25.1,-1.2 -1.2,-1.2 -2.3,-2.3 -3.4,-3.3 -10.7,-10.5 -14.9,-13.1 -20.5,-8.9 -13.2,10 -24.2,1.5 -33.1,-5.4 -10.4,-8 -17.3,-12.4 -27.4,-6.7 -6.4,3.5 -12.1,4.4 -17,2.7 -8.4,-3 -12.2,-12.8 -15.6,-21.3 -2.4,-6.2 -5.1,-13.3 -8.2,-13.3 -7.8,0 -18,7.6 -25.1,14.2 l -2.9,-10.8 c 7.8,-6.5 18.2,-13.4 28,-13.4 5.7,0 9.4,3.5 12.2,8.2 -0.4,-0.9 -0.9,-1.7 -1.4,-2.6 -3.3,-6.2 -6.5,-12.1 -11.3,-14.4 -8,-3.8 -21.1,2.6 -30.9,9.3 l -2.8,-10.3 c 8.2,-5.2 18.6,-10.1 28.2,-10.1 3.4,0 6.7,0.6 9.8,2.1 7.8,3.7 12,11.7 15.8,18.7 3.4,6.2 6.6,12.1 11.1,13.3 3.3,1 8.1,-0.5 14.1,-4.2 7.4,-4.6 13.6,-6 19.1,-4.3 7.9,2.4 11.5,10.7 14.4,17.3 1.3,3.1 3.5,8.2 5,8.6 0.4,0.1 1.4,-0.1 3.5,-1.5 14.7,-10.3 26.8,-0.7 34,5.1 2,1.6 5.4,3.7 6.2,4.1 0.8,-1 3.4,-4.5 7.6,-3.9 4.1,0.2 6.3,3.8 8,6.6 1.1,1.7 2.5,4 3.6,4.2 0.7,0.1 2.4,-0.4 5,-2.3 10.9,-8.5 19.7,-3.5 26.8,0.4 6.3,3.6 11.3,6.4 18.8,2.5 23.2,-12 34.9,-4.7 47.2,11.9 3.9,5.3 9,4.6 17.2,3 7.3,-1.3 18.3,-3.4 22.7,8.4 0.6,1.6 1.1,2.2 1.3,2.3 1.2,0.5 5.7,-1.7 8.4,-3.1 6.8,-3.2 15.1,-7.3 24,-3.9 3.5,1.4 13.3,-5.9 20.4,-11.2 8,-5.9 17.7,-13 27.2,-15.7 -3.6,9.2 -7.3,18.3 -11.2,27.4"
         style="fill:#f29b53;fill-opacity:1;fill-rule:nonzero;stroke:none"
         id="path340" /><path
         d="m 4478.94,2907.9 c 0,0 -6.35,-68.5 30.44,-137.04 71.48,-133.17 77.24,-290.87 77.24,-290.87 62.64,16.17 108.09,-24.76 108.09,-24.76 0,0 -1.77,261.72 -80.43,463.24 0,0 -68.36,11.23 -135.34,-10.57"
         style="fill:#ef294d;fill-opacity:1;fill-rule:nonzero;stroke:none"
         id="path342" /><path
         d="m 4255.55,2845.6 c 0,0 29.54,-70.92 -16.71,-204.95 -36.06,-104.51 -55.09,-267.98 -55.09,-267.98 -42.39,-13.27 -53.66,-45.57 -53.66,-45.57 -31.25,203.55 42.61,179.82 1.27,483.9 0,0 56.31,45.1 124.19,34.6"
         style="fill:#ef294d;fill-opacity:1;fill-rule:nonzero;stroke:none"
         id="path344" /><path
         d="m 4255.55,2845.6 c 0,0 -46.96,20.63 -79.21,-34.6 0,0 54.13,-54.1 67.69,-112.85 l -61.09,-45.65 c 0,0 15.01,-60.74 17.33,-152.54 0,0 110.74,263.09 55.28,345.64"
         style="fill:#cf2548;fill-opacity:1;fill-rule:nonzero;stroke:none"
         id="path346" /><path
         d="m 4478.94,2907.9 c 0,0 33.7,26.5 94.51,-35.17 0,0 -55.14,-49.03 -47.26,-101.87 0,0 46.4,-3.13 74.73,-28.13 0,0 -23.8,-81.66 -32.73,-123.33 0,0 -41.84,111.25 -68.72,151.46 -26.88,40.21 -20.53,137.04 -20.53,137.04"
         style="fill:#cf2548;fill-opacity:1;fill-rule:nonzero;stroke:none"
         id="path348" /><path
         d="m 3944.37,2664.91 c 0,0 -35.53,-128.59 -95.53,-130.8 0,0 26.3,-250.37 120.03,-260.04 0,0 58.56,103.01 39.26,195.42 -19.29,92.41 -33.04,82.41 -33.04,82.41 l -30.72,113.01"
         style="fill:#cf2548;fill-opacity:1;fill-rule:nonzero;stroke:none"
         id="path350" /><path
         d="m 671.996,3168.59 c -116.578,-72.51 -241.617,-304.42 -284.098,-408.47 -42.484,-104.05 -9.906,-286.4 254.184,-125.24 264.09,161.16 29.914,533.71 29.914,533.71"
         style="fill:#d2dadc;fill-opacity:1;fill-rule:nonzero;stroke:none"
         id="path352" /><path
         d="m 1356.25,3148.8 c 0,0 260,-219.21 290,-404.3 30,-185.1 -139.24,-238.1 -273.37,-9.1 -134.13,229 -16.63,413.4 -16.63,413.4"
         style="fill:#d2dadc;fill-opacity:1;fill-rule:nonzero;stroke:none"
         id="path354" /><path
         d="m 343.543,724.262 c 0,-10.883 1.113,-18.543 1.113,-18.543 h 314.535 c 0,6.222 -0.113,12.429 -0.445,18.543 -3.555,82.269 -29.531,153.66 -29.531,153.66 l -78.61,33.75 c -6.769,-40.524 -24.203,-66.391 -46.074,-83.274 -5.773,-4.546 -11.769,-8.328 -17.984,-11.539 -2.887,-1.558 -5.774,-3 -8.774,-4.328 -6.55,-3 -13.324,-5.449 -20.093,-7.441 -27.758,-8.442 -55.848,-10.219 -75.496,-13.219 -33.532,-5.211 -38.641,-43.961 -38.641,-67.609"
         style="fill:#d2dadc;fill-opacity:1;fill-rule:nonzero;stroke:none"
         id="path356" /><path
         d="m 343.543,724.262 c 0,-10.883 1.113,-18.543 1.113,-18.543 h 314.535 c 0,6.222 -0.113,12.429 -0.445,18.543 H 343.543"
         style="fill:#acbfc3;fill-opacity:1;fill-rule:nonzero;stroke:none"
         id="path358" /><path
         d="m 486.547,816.859 43.633,-13.988 9.215,15.981 -34.864,9.546 c -5.773,-4.546 -11.769,-8.328 -17.984,-11.539"
         style="fill:#acbfc3;fill-opacity:1;fill-rule:nonzero;stroke:none"
         id="path360" /><path
         d="m 457.68,805.09 29.422,-19.539 18.097,7.101 -27.426,19.879 c -6.55,-3 -13.324,-5.449 -20.093,-7.441"
         style="fill:#acbfc3;fill-opacity:1;fill-rule:nonzero;stroke:none"
         id="path362" /><path
         d="m 901.875,724.262 c 0.773,-10.66 3.551,-18.543 3.551,-18.543 h 209.504 c 2.67,6.101 4.55,12.211 5.89,18.543 20.65,100.258 -118.58,222.937 -118.58,222.937 l -44.189,-58.957 c 0,0 5.109,-94.371 -32.309,-114.023 -22.426,-11.77 -25.312,-33.969 -23.867,-49.957"
         style="fill:#d2dadc;fill-opacity:1;fill-rule:nonzero;stroke:none"
         id="path364" /><path
         d="M 1120.82,724.262 H 901.875 c 0.773,-10.66 3.551,-18.543 3.551,-18.543 h 209.504 c 2.67,6.101 4.55,12.211 5.89,18.543"
         style="fill:#acbfc3;fill-opacity:1;fill-rule:nonzero;stroke:none"
         id="path366" /><path
         d="m 935.316,781.742 c 0,0 88.264,20.117 128.514,-5.941 v 14.578 c 0,0 -74.248,36.082 -128.514,-8.637"
         style="fill:#acbfc3;fill-opacity:1;fill-rule:nonzero;stroke:none"
         id="path368" /><path
         d="m 952.805,804.129 c 0,0 56.355,25.769 111.025,0 l -6.24,14.703 c 0,0 -65.293,24.68 -104.785,-14.703"
         style="fill:#acbfc3;fill-opacity:1;fill-rule:nonzero;stroke:none"
         id="path370" /><path
         d="m 1251.75,2344.81 c 0,-199.3 -19.62,-402.27 -24.65,-453.76 -5.03,-51.48 -58.35,-626.65 -65.85,-849.15 -3.84,-113.97 -40.43,-251.931 -40.43,-251.931 0,0 -108.59,87.761 -170.09,22.562 l -15.414,88.93 28.829,70.019 c 0,0 -30.805,57.92 -5.598,102.92 25.203,45 32.93,1006.9 32.93,1006.9 l -48.508,3.11 L 690.207,971.48 v -63.398 c 0,0 -30.574,-80.73 -31.016,-132.281 l -164.668,52.597 25.207,73.063 -6.761,104.309 46.172,136.03 c 0,0 170.757,1063.85 157.683,1183.23 l 534.926,19.78"
         style="fill:#2a5a9f;fill-opacity:1;fill-rule:nonzero;stroke:none"
         id="path372" /><path
         d="m 708.75,3183.57 c 0,0 115.117,60.59 284.223,56.54 169.107,-4.04 282.447,-44.41 312.447,-72.56 30,-28.15 -40,-975.11 -40,-975.11 0,0 -306.67,-20.98 -570.002,39.66 0,0 40,322.29 33.332,543.13 -6.668,220.84 -20,408.34 -20,408.34"
         style="fill:#f9ad63;fill-opacity:1;fill-rule:nonzero;stroke:none"
         id="path374" /><path
         d="m 930.535,3323.13 c 0,0 16.051,-66.12 -8.433,-92.49 0,0 39.957,-64.47 130.338,0.63 0,0 -17.21,43.46 0,71.68 l -121.905,20.18"
         style="fill:#ef5640;fill-opacity:1;fill-rule:nonzero;stroke:none"
         id="path376" /><path
         d="m 1107.45,3441.72 c 0,0 33.97,33.9 38.15,-5.73 4.84,-45.91 -36.85,-64.4 -45,-49.79 -8.15,14.6 6.85,55.52 6.85,55.52"
         style="fill:#f57559;fill-opacity:1;fill-rule:nonzero;stroke:none"
         id="path378" /><path
         d="m 869.594,3439.33 c 0,0 -33.969,33.9 -38.153,-5.73 -4.839,-45.9 36.856,-64.4 45.004,-49.79 8.149,14.6 -6.851,55.52 -6.851,55.52"
         style="fill:#f57559;fill-opacity:1;fill-rule:nonzero;stroke:none"
         id="path380" /><path
         d="m 992.102,3275.44 c 75.368,0 117.908,49.23 117.908,196.88 0,76.16 -38.76,122.88 -123.174,122.88 -84.418,0 -119.973,-46.71 -119.973,-122.88 0,-158.66 47.375,-196.88 125.239,-196.88"
         style="fill:#f57559;fill-opacity:1;fill-rule:nonzero;stroke:none"
         id="path382" /><path
         d="m 891.824,3419.66 c -1.324,-7.58 5.285,-15.06 14.762,-16.71 9.469,-1.65 18.223,3.15 19.543,10.72 1.32,7.58 -5.289,15.06 -14.762,16.71 -9.472,1.65 -18.222,-3.15 -19.543,-10.72"
         style="fill:#dc4b44;fill-opacity:1;fill-rule:nonzero;stroke:none"
         id="path384" /><path
         d="m 1046.84,3415.53 c 0.5,-7.67 8.69,-13.39 18.28,-12.76 9.6,0.63 16.98,7.35 16.48,15.03 -0.51,7.67 -8.69,13.38 -18.29,12.76 -9.59,-0.63 -16.97,-7.35 -16.47,-15.03"
         style="fill:#dc4b44;fill-opacity:1;fill-rule:nonzero;stroke:none"
         id="path386" /><path
         d="m 916.254,3497.47 c 0.984,-0.15 2.016,0.09 2.867,0.74 12,9.22 30,5.96 30.277,5.92 2.008,-0.33 4.008,0.96 4.387,3.01 0.399,2.04 -0.957,4 -3.004,4.39 -0.785,0.17 -21.605,3.91 -36.242,-7.35 -1.648,-1.27 -1.961,-3.63 -0.699,-5.28 0.613,-0.8 1.492,-1.28 2.414,-1.43"
         style="fill:#1f436b;fill-opacity:1;fill-rule:nonzero;stroke:none"
         id="path388" /><path
         d="m 1060.5,3496.95 c 0.93,0.11 1.81,0.57 2.45,1.35 1.32,1.61 1.08,3.98 -0.52,5.3 -14.28,11.7 -35.18,8.6 -36,8.46 -2.05,-0.32 -3.46,-2.24 -3.14,-4.3 0.32,-2.06 2.33,-3.42 4.3,-3.14 0.13,0.04 18.48,2.66 30.06,-6.85 0.84,-0.68 1.87,-0.94 2.85,-0.82"
         style="fill:#1f436b;fill-opacity:1;fill-rule:nonzero;stroke:none"
         id="path390" /><path
         d="m 924.047,3454.93 c 0,-9.36 4.215,-16.95 9.414,-16.94 5.199,0 9.418,7.58 9.418,16.94 0,9.36 -4.219,16.95 -9.418,16.95 -5.199,0 -9.414,-7.59 -9.414,-16.95"
         style="fill:#22434d;fill-opacity:1;fill-rule:nonzero;stroke:none"
         id="path392" /><path
         d="m 1024.7,3454.93 c 0,-9.36 4.21,-16.95 9.41,-16.94 5.2,0 9.42,7.58 9.42,16.94 0,9.36 -4.22,16.95 -9.42,16.95 -5.2,0 -9.41,-7.59 -9.41,-16.95"
         style="fill:#22434d;fill-opacity:1;fill-rule:nonzero;stroke:none"
         id="path394" /><path
         d="m 1076.54,3559.06 c 0,0 -52.41,3.63 -167.563,11.9 0,0 -42.114,-43.86 -39.137,-151.84 0,0 -67.43,194.51 129.41,194.51 196.84,0 108.17,-190.19 108.17,-190.19 0,0 5.74,99.17 -30.88,135.62"
         style="fill:#1f436b;fill-opacity:1;fill-rule:nonzero;stroke:none"
         id="path396" /><path
         d="m 987.336,3405.95 5.637,5.68 -14.907,14.82 c 14.454,20.44 14.379,67.74 14.368,69.84 l -8.008,-0.04 c 0,-0.51 0.078,-51.4 -14.676,-67.39 l -2.621,-2.84 20.207,-20.07"
         style="fill:#dc4b44;fill-opacity:1;fill-rule:nonzero;stroke:none"
         id="path398" /><path
         d="m 1037.35,3381.3 c 0,0 -74.174,-3.13 -111.627,6.78 0,0 -6.621,-53.95 50.871,-56.62 60.756,-2.84 60.756,49.84 60.756,49.84"
         style="fill:#22434d;fill-opacity:1;fill-rule:nonzero;stroke:none"
         id="path400" /><path
         d="m 894.676,3549.23 c 0,0 -33.035,28.63 -27.813,64.4 5.219,35.77 81.887,62.98 148.557,49.37 0,0 35.51,18.7 82.75,-11.61 47.25,-30.32 78.91,-120.27 37.25,-176.13 0,0 9.77,94.86 -44.65,62.78 0,0 -85.17,46.02 -196.094,11.19"
         style="fill:#234e7e;fill-opacity:1;fill-rule:nonzero;stroke:none"
         id="path402" /><path
         d="m 1085.9,3233.88 c 0,0 -77.85,-516.12 0,-765.3 0,0 260.35,8.61 285.35,17.21 25,8.61 50,547.42 -15,663.01 0,0 -106.55,88.31 -270.35,85.08"
         style="fill:#ef294d;fill-opacity:1;fill-rule:nonzero;stroke:none"
         id="path404" /><path
         d="m 1623.09,2614.2 c -23.8,-39.7 -101.6,-85.1 -170.1,-99.7 -30.4,-6.5 -58.9,-7 -80.1,1.7 0,0 -11.2,111 -75.2,172.1 0,0 2.6,8.4 11,19.5 18.4,24.3 64.3,61.4 170.5,50.3 154.6,-16.2 178.2,-86.7 143.9,-143.9"
         style="fill:#d2dadc;fill-opacity:1;fill-rule:nonzero;stroke:none"
         id="path406" /><path
         d="m 1170.95,3227.4 c 0,0 -42.9,-62.7 -97.5,-91.6 0,0 -1.6,8.8 -2.2,22.2 -0.2,3.5 -0.3,7.4 -0.3,11.6 0,6.9 0.3,14.5 1.2,22.4 0.5,4.4 1.1,8.9 2,13.5 5.5,29.7 19.7,60.7 53.2,75 0,0 8.9,-2.1 19,-10.4 2.4,-2 4.8,-4.3 7.2,-7 3.2,-3.7 6.4,-8.1 9.2,-13.4 1.7,-3.1 3.2,-6.4 4.5,-10.1 1.5,-3.7 2.7,-7.8 3.7,-12.2"
         style="fill:#b72245;fill-opacity:1;fill-rule:nonzero;stroke:none"
         id="path408" /><path
         d="m 1167.25,3239.6 c -19.7,-22.7 -51.7,-54.1 -96,-81.6 -0.2,3.5 -0.3,7.4 -0.3,11.6 43.1,27.6 73.6,58.6 91.8,80.1 1.7,-3.1 3.2,-6.4 4.5,-10.1"
         style="fill:#d2dadc;fill-opacity:1;fill-rule:nonzero;stroke:none"
         id="path410" /><path
         d="m 1153.55,3263.1 c -18,-20.2 -45,-46.7 -81.4,-71.1 0.5,4.4 1.1,8.9 2,13.5 32,22.6 56,46.3 72.2,64.6 2.4,-2 4.8,-4.3 7.2,-7"
         style="fill:#d2dadc;fill-opacity:1;fill-rule:nonzero;stroke:none"
         id="path412" /><path
         d="m 1372.85,2450.7 c 0,-3.4 0,-6.8 -0.2,-10 -0.4,-8.8 -1.5,-15.8 -3.9,-16.7 -7.5,-2.8 -270.6,-20.2 -270.6,-20.2 l -3.3,17.4 -1.8,9.8 -2.9,15.5 -1.9,9.8 -2.3,12.3 c 94.6,16.7 285.3,17.2 285.3,17.2 0,0 0.3,-3.7 0.7,-9.2 0.1,-2.9 0.3,-6.3 0.5,-10 0.2,-5 0.4,-10.5 0.4,-15.9"
         style="fill:#b72245;fill-opacity:1;fill-rule:nonzero;stroke:none"
         id="path414" /><path
         d="m 1372.45,2466.6 c -105.8,1.1 -223.4,-12.1 -282.3,-20.1 l -1.9,9.8 c 59.1,8 177.2,21.3 283.7,20.3 0.1,-2.9 0.3,-6.3 0.5,-10"
         style="fill:#d2dadc;fill-opacity:1;fill-rule:nonzero;stroke:none"
         id="path416" /><path
         d="m 1372.85,2450.7 c 0,-3.4 0,-6.8 -0.2,-10 -103.2,1.1 -217.5,-11.4 -277.8,-19.5 l -1.8,9.8 c 60.7,8.1 175.8,20.7 279.8,19.7"
         style="fill:#d2dadc;fill-opacity:1;fill-rule:nonzero;stroke:none"
         id="path418" /><path
         d="m 1200.42,2960.47 8.33,43.02 20.65,-43.02 z m 28.98,80.08 -40.65,-4.96 -42.76,-155.19 h 32.76 l 16.67,54 37.53,1.67 23.92,-45.92 40.86,7.58 -68.33,142.82"
         style="fill:#d2dadc;fill-opacity:1;fill-rule:nonzero;stroke:none"
         id="path420" /><path
         d="m 898.801,3233.88 c 0,0 39.258,-517.52 -36.875,-767.38 0,0 -214.051,8.63 -234.231,17.26 -20.179,8.63 -14.812,568.91 44.301,684.83 0,0 92.027,68.53 226.805,65.29"
         style="fill:#ef294d;fill-opacity:1;fill-rule:nonzero;stroke:none"
         id="path422" /><path
         d="m 807.656,3227.4 c 0,0 42.903,-62.7 97.5,-91.6 0,0 1.602,8.8 2.199,22.2 0.204,3.5 0.301,7.4 0.301,11.6 0,6.9 -0.301,14.5 -1.199,22.4 -0.5,4.4 -1.102,8.9 -2,13.5 -5.5,29.7 -19.699,60.7 -53.199,75 0,0 -8.903,-2.1 -19,-10.4 -2.403,-2 -4.801,-4.3 -7.199,-7 -3.204,-3.7 -6.403,-8.1 -9.204,-13.4 -1.699,-3.1 -3.199,-6.4 -4.5,-10.1 -1.5,-3.7 -2.699,-7.8 -3.699,-12.2"
         style="fill:#b72245;fill-opacity:1;fill-rule:nonzero;stroke:none"
         id="path424" /><path
         d="m 811.355,3239.6 c 19.704,-22.7 51.704,-54.1 96,-81.6 0.204,3.5 0.301,7.4 0.301,11.6 -43.097,27.6 -73.597,58.6 -91.801,80.1 -1.699,-3.1 -3.199,-6.4 -4.5,-10.1"
         style="fill:#d2dadc;fill-opacity:1;fill-rule:nonzero;stroke:none"
         id="path426" /><path
         d="m 825.059,3263.1 c 18,-20.2 45,-46.7 81.398,-71.1 -0.5,4.4 -1.102,8.9 -2,13.5 -32,22.6 -56,46.3 -72.199,64.6 -2.403,-2 -4.801,-4.3 -7.199,-7"
         style="fill:#d2dadc;fill-opacity:1;fill-rule:nonzero;stroke:none"
         id="path428" /><path
         d="m 624.688,2448.57 c -0.165,-3.41 -0.329,-6.82 -0.317,-10.03 -0.094,-8.82 0.473,-15.84 2.406,-16.74 6.043,-2.81 221.938,-20.25 221.938,-20.25 l 3.555,17.44 1.957,9.83 3.132,15.54 2.039,9.83 2.489,12.33 c -77.125,16.75 -234.192,17.25 -234.192,17.25 0,0 -0.425,-3.71 -1.019,-9.23 -0.223,-2.91 -0.551,-6.32 -0.895,-10.02 -0.402,-5.02 -0.832,-10.53 -1.093,-15.95"
         style="fill:#b72245;fill-opacity:1;fill-rule:nonzero;stroke:none"
         id="path430" /><path
         d="m 625.781,2464.52 c 87.207,1.1 183.446,-12.14 231.578,-20.16 l 2.039,9.83 c -48.296,8.02 -144.945,21.36 -232.722,20.35 -0.223,-2.91 -0.551,-6.32 -0.895,-10.02"
         style="fill:#d2dadc;fill-opacity:1;fill-rule:nonzero;stroke:none"
         id="path432" /><path
         d="m 624.688,2448.57 c -0.165,-3.41 -0.329,-6.82 -0.317,-10.03 85.063,1.11 178.617,-11.43 227.899,-19.55 l 1.957,9.83 c -49.614,8.12 -143.821,20.76 -229.539,19.75"
         style="fill:#d2dadc;fill-opacity:1;fill-rule:nonzero;stroke:none"
         id="path434" /><path
         d="m 487.113,3102.44 c 63.266,-16.37 101.637,-338.58 64.969,-414.15 -36.664,-75.56 -89.363,-124.6 -179.684,-53.41 -90.316,71.19 -48.648,439.52 9.684,464.52 27.352,11.72 105.031,3.04 105.031,3.04"
         style="fill:#d2dadc;fill-opacity:1;fill-rule:nonzero;stroke:none"
         id="path436" /><path
         d="m 488.051,3119.4 c 0,-6.8 -0.301,-12.7 -1.102,-17.9 -0.597,-4.9 -1.699,-9.2 -3.097,-12.9 -8.403,-21.7 -29.102,-22.6 -58.403,-24.2 -24.801,-1.3 -38.199,5.8 -42.5,22.1 -1.398,4.8 -1.898,10.3 -1.597,16.6 0,4.1 0.5,8.5 1.199,13.2 0.5,3.8 1.199,7.7 2,11.9 1.597,7.3 3.597,15.2 6.097,23.8 5,17.2 55.602,20.5 55.602,20.5 15.301,1.4 36.699,-1.8 39,-19.2 1.102,-8.4 1.898,-15.9 2.301,-22.7 0.297,-4 0.5,-7.7 0.5,-11.2"
         style="fill:#b72245;fill-opacity:1;fill-rule:nonzero;stroke:none"
         id="path438" /><path
         d="m 358.434,3284.1 c 7.992,-9.11 21.207,-44.53 21.207,-44.53 5.55,-29.75 8.769,-46.18 19.207,-59.84 10.324,-13.66 4.882,-37.75 4.882,-37.75 0,0 40.415,-20.76 74.387,4.89 0,0 -3.551,23.87 0,30.64 6.996,13.54 29.422,20.76 37.082,48.07 7.66,27.43 30.645,57.96 30.645,57.96 0,0 -6.551,14.21 -18.539,5.55 -12.106,-8.77 -19.766,-30.64 -26.317,-32.86 -1.332,-0.45 -2.664,-0.78 -3.996,-0.89 0,0 -0.109,0 -0.332,-0.11 -4.996,-0.67 -10.105,0.44 -13.215,3.44 -0.218,0.11 -0.554,0.33 -0.773,0.67 -10.992,12.76 -13.547,50.29 -13.102,67.06 0.664,23.31 -0.222,55.51 -14.433,50.07 -14.211,-5.44 -1.223,-18.43 -12.215,-69.84 l -5.328,-0.66 c -1,-3.67 -10.77,31.2 -13.102,63.95 -1.664,22.54 -16.429,14.21 -19.652,7.1 -3.328,-7.1 1.668,-29.53 2.668,-45.85 0.773,-10.77 1.664,-21.98 2.219,-28.64 l -6.219,-3.45 c -22.426,39.08 -14.766,55.29 -27.867,56.07 -12.989,0.78 -8.328,-32.2 -1.332,-44.74 3,-5.44 5.886,-16.77 8.214,-27.87 -22.98,26.54 -20.425,40.41 -30.972,38.75 -10.883,-1.78 -1.113,-28.09 6.883,-37.19"
         style="fill:#f57559;fill-opacity:1;fill-rule:nonzero;stroke:none"
         id="path440" /><path
         d="m 457.688,3222.92 c 7.773,21.43 35.531,31.2 38.972,32.31 -4.996,-0.67 -10.105,0.44 -13.215,3.44 -27.199,-12.21 -25.757,-35.75 -25.757,-35.75"
         style="fill:#ef5640;fill-opacity:1;fill-rule:nonzero;stroke:none"
         id="path442" /><path
         d="m 488.051,3119.4 c -19.602,-9.9 -55.5,-11.5 -76.5,-11.5 -2.301,0 -4.403,0 -6.301,0.1 -9.5,0.2 -17,3.5 -22.699,8.3 0.5,3.8 1.199,7.7 2,11.9 4.5,-5.3 11.097,-10 20.898,-10.2 30.5,-0.5 68.602,2.6 82.102,12.6 0.297,-4 0.5,-7.7 0.5,-11.2"
         style="fill:#d2dadc;fill-opacity:1;fill-rule:nonzero;stroke:none"
         id="path444" /><path
         d="m 486.949,3101.5 c -0.597,-4.9 -1.699,-9.2 -3.097,-12.9 -20.204,-8.4 -53,-9.8 -72.704,-9.8 -2.296,0 -4.398,0 -6.3,0.1 -9.098,0.1 -16.297,3.2 -21.899,7.6 -1.398,4.8 -1.898,10.3 -1.597,16.6 3.996,-6.7 11.296,-14 23.699,-14.2 30.398,-0.5 68.398,2.6 81.898,12.6"
         style="fill:#d2dadc;fill-opacity:1;fill-rule:nonzero;stroke:none"
         id="path446" /><path
         d="m 743.125,2714.62 c 0,0 23.387,-23.32 19.871,-35.52 -3.508,-12.2 -86.008,-109.84 -96.008,-139.77 l -27.5,15.07 c 0,0 42.27,130.44 103.637,160.22"
         style="fill:#d2dadc;fill-opacity:1;fill-rule:nonzero;stroke:none"
         id="path448" /><path
         d="m 1452.99,2514.5 c -30.4,-6.5 -58.9,-7 -80.1,1.7 0,0 -11.2,111 -75.2,172.1 0,0 2.6,8.4 11,19.5 36.5,-26.9 164.7,-126.9 144.3,-193.3"
         style="fill:#b5c5c7;fill-opacity:1;fill-rule:nonzero;stroke:none"
         id="path450" /><path
         d="m 1278.75,2714.62 c 0,0 102.4,-94.75 93.7,-204.98 0,0 -44.48,-16.44 -46.59,0 -2.11,16.43 -26.37,112.44 -74.11,169.46 -7.41,8.86 27,35.52 27,35.52"
         style="fill:#d2dadc;fill-opacity:1;fill-rule:nonzero;stroke:none"
         id="path452" /><path
         d="m 3830.79,3438 c -6.6,-57.6 -37.2,-129 -75.3,-199 -9.6,-17.8 -19.8,-35.5 -30.2,-52.8 -13.1,-22 -26.6,-43.3 -39.8,-63.6 -12.5,-19.1 -24.8,-37.2 -36.4,-53.9 -45.1,-65 -80.8,-109.7 -80.8,-109.7 l -106.9,321.5 78.9,109.7 23.2,32.4 23,32 23.4,32.6 24.7,34.3 c 6.2,167.9 -18.3,427.8 44.9,444.2 0,0 77.7,8.6 105.1,-3.1 58.3,-25 71.9,-299 46.2,-524.6"
         style="fill:#234e7e;fill-opacity:1;fill-rule:nonzero;stroke:none"
         id="path454" /><path
         d="m 3678.6,3982.62 c 0,-6.8 0.3,-12.7 1.1,-17.9 0.6,-4.9 1.7,-9.2 3.1,-12.9 8.4,-21.7 29.1,-22.6 58.4,-24.2 24.8,-1.3 38.2,5.8 42.5,22.1 1.4,4.8 1.9,10.3 1.6,16.6 0,4.1 -0.5,8.5 -1.2,13.2 -0.5,3.8 -1.2,7.7 -2,11.9 -1.6,7.3 -3.6,15.2 -6.1,23.8 -5,17.2 -55.6,20.5 -55.6,20.5 -15.3,1.4 -36.7,-1.8 -39,-19.2 -1.1,-8.4 -1.9,-15.9 -2.3,-22.7 -0.3,-4 -0.5,-7.7 -0.5,-11.2"
         style="fill:#2a5a9f;fill-opacity:1;fill-rule:nonzero;stroke:none"
         id="path456" /><path
         d="m 3808.22,4147.32 c -7.99,-9.11 -21.21,-44.52 -21.21,-44.52 -5.55,-29.76 -8.77,-46.19 -19.2,-59.85 -10.33,-13.65 -4.89,-37.75 -4.89,-37.75 0,0 -40.41,-20.76 -74.38,4.89 0,0 3.55,23.87 0,30.64 -7,13.55 -29.43,20.77 -37.09,48.07 -7.66,27.43 -30.64,57.96 -30.64,57.96 0,0 6.55,14.21 18.54,5.55 12.1,-8.77 19.76,-30.64 26.31,-32.86 1.34,-0.45 2.67,-0.78 4,-0.89 0,0 0.11,0 0.33,-0.11 5,-0.66 10.11,0.44 13.22,3.44 0.22,0.11 0.55,0.34 0.77,0.67 10.99,12.77 13.55,50.29 13.1,67.06 -0.66,23.31 0.23,55.51 14.44,50.07 14.21,-5.44 1.22,-18.43 12.21,-69.83 l 5.33,-0.67 c 1,-3.67 10.77,31.2 13.1,63.95 1.67,22.54 16.43,14.21 19.65,7.11 3.33,-7.11 -1.66,-29.54 -2.66,-45.86 -0.78,-10.77 -1.67,-21.98 -2.22,-28.64 l 6.21,-3.45 c 22.43,39.09 14.77,55.3 27.87,56.08 12.99,0.77 8.33,-32.2 1.33,-44.75 -2.99,-5.44 -5.88,-16.76 -8.21,-27.87 22.98,26.54 20.43,40.42 30.97,38.75 10.88,-1.78 1.11,-28.09 -6.88,-37.19"
         style="fill:#f57559;fill-opacity:1;fill-rule:nonzero;stroke:none"
         id="path458" /><path
         d="m 3708.96,4086.14 c -7.77,21.43 -35.52,31.2 -38.97,32.31 5,-0.66 10.11,0.44 13.22,3.44 27.2,-12.21 25.75,-35.75 25.75,-35.75"
         style="fill:#ef5640;fill-opacity:1;fill-rule:nonzero;stroke:none"
         id="path460" /><path
         d="m 3685.49,3122.6 c -12.5,-19.1 -24.8,-37.2 -36.4,-53.9 -9.1,217.6 -80.7,298.1 -108.8,321.5 l 23.2,32.4 c 32.4,-26.2 103.4,-104.9 122,-300"
         style="fill:#d2dadc;fill-opacity:1;fill-rule:nonzero;stroke:none"
         id="path462" /><path
         d="m 3755.49,3239 c -9.6,-17.8 -19.8,-35.5 -30.2,-52.8 -31,187.7 -120.2,256.1 -138.8,268.4 l 23.4,32.6 c 25.6,-17.1 107.1,-83.2 145.6,-248.2"
         style="fill:#d2dadc;fill-opacity:1;fill-rule:nonzero;stroke:none"
         id="path464" /><path
         d="m 2948.89,2130.1 c -34.4,10.7 -185.6,234.4 -202,363.8 -8.3,66.2 27.6,202.3 78.2,339.2 5.7,15.5 11.6,31.1 17.7,46.5 8.7,22.1 17.7,44 26.9,65.5 6.7,15.7 13.5,31.2 20.4,46.3 32.2,71 65.4,133.8 94.4,176.2 l 40.5,-380 7,-65.1 6.1,-57.6 -0.8,-1.3 -21.1,-34.1 -67.3,-108.7 c 0,0 70.1,-251.7 89.2,-275.6 19.2,-23.9 -54.8,-125.8 -89.2,-115.1"
         style="fill:#234e7e;fill-opacity:1;fill-rule:nonzero;stroke:none"
         id="path466" /><path
         d="m 3031.99,2722.5 c -68.1,63.9 -129.7,164.4 -162.3,222.6 6.7,15.7 13.5,31.2 20.4,46.3 20.4,-38.2 73.5,-132.9 134.9,-203.8 l 7,-65.1"
         style="fill:#d2dadc;fill-opacity:1;fill-rule:nonzero;stroke:none"
         id="path468" /><path
         d="m 3037.29,2663.6 -21.1,-34.1 c -83,54.9 -151,143.4 -191.1,203.6 5.7,15.5 11.6,31.1 17.7,46.5 34.5,-54.6 106.6,-157.4 194.5,-216"
         style="fill:#d2dadc;fill-opacity:1;fill-rule:nonzero;stroke:none"
         id="path470" /><path
         d="m 3005.67,2223.4 c 0,0 -47.38,-20.67 -42.38,-64.83 l 74.84,-67.92 17.66,67.92 -50.12,64.83"
         style="fill:#f57559;fill-opacity:1;fill-rule:nonzero;stroke:none"
         id="path472" /><path
         d="m 3946.34,724.262 c 0,-10.883 -1.11,-18.543 -1.11,-18.543 h -314.54 c 0,6.222 0.11,12.429 0.45,18.543 3.55,82.269 29.53,153.66 29.53,153.66 l 78.6,33.75 c 6.78,-40.524 24.21,-66.391 46.08,-83.274 5.77,-4.546 11.77,-8.328 17.99,-11.539 2.88,-1.558 5.77,-3 8.77,-4.328 6.55,-3 13.32,-5.449 20.09,-7.441 27.76,-8.442 55.85,-10.219 75.5,-13.219 33.53,-5.211 38.64,-43.961 38.64,-67.609"
         style="fill:#ef294d;fill-opacity:1;fill-rule:nonzero;stroke:none"
         id="path474" /><path
         d="m 3946.34,724.262 c 0,-10.883 -1.11,-18.543 -1.11,-18.543 h -314.54 c 0,6.222 0.11,12.429 0.45,18.543 h 315.2"
         style="fill:#acbfc3;fill-opacity:1;fill-rule:nonzero;stroke:none"
         id="path476" /><path
         d="m 3803.34,816.859 -43.64,-13.988 -9.21,15.981 34.86,9.546 c 5.77,-4.546 11.77,-8.328 17.99,-11.539"
         style="fill:#acbfc3;fill-opacity:1;fill-rule:nonzero;stroke:none"
         id="path478" /><path
         d="m 3832.2,805.09 -29.42,-19.539 -18.1,7.101 27.43,19.879 c 6.55,-3 13.32,-5.449 20.09,-7.441"
         style="fill:#acbfc3;fill-opacity:1;fill-rule:nonzero;stroke:none"
         id="path480" /><path
         d="m 3388.01,724.262 c -0.78,-10.66 -3.55,-18.543 -3.55,-18.543 h -209.51 c -2.66,6.101 -4.55,12.211 -5.88,18.543 -20.65,100.258 118.57,222.937 118.57,222.937 l 44.19,-58.957 c 0,0 -5.11,-94.371 32.31,-114.023 22.43,-11.77 25.31,-33.969 23.87,-49.957"
         style="fill:#ef294d;fill-opacity:1;fill-rule:nonzero;stroke:none"
         id="path482" /><path
         d="m 3169.07,724.262 h 218.94 c -0.78,-10.66 -3.55,-18.543 -3.55,-18.543 h -209.51 c -2.66,6.101 -4.55,12.211 -5.88,18.543"
         style="fill:#acbfc3;fill-opacity:1;fill-rule:nonzero;stroke:none"
         id="path484" /><path
         d="m 3354.56,781.742 c 0,0 -88.26,20.117 -128.51,-5.941 v 14.578 c 0,0 74.25,36.082 128.51,-8.637"
         style="fill:#acbfc3;fill-opacity:1;fill-rule:nonzero;stroke:none"
         id="path486" /><path
         d="m 3337.08,804.129 c 0,0 -56.36,25.769 -111.03,0 l 6.24,14.703 c 0,0 65.3,24.68 104.79,-14.703"
         style="fill:#acbfc3;fill-opacity:1;fill-rule:nonzero;stroke:none"
         id="path488" /><path
         d="m 3038.13,2344.81 c 0,-199.3 19.62,-402.27 24.65,-453.76 5.04,-51.48 58.35,-626.65 65.85,-849.15 3.84,-113.97 40.44,-251.931 40.44,-251.931 0,0 108.58,87.761 170.08,22.562 l 15.41,88.93 -28.82,70.019 c 0,0 30.8,57.92 5.6,102.92 -25.21,45 -32.93,1006.9 -32.93,1006.9 l 48.5,3.11 252.77,-1112.93 v -63.398 c 0,0 30.57,-80.73 31.01,-132.281 l 164.67,52.597 -25.21,73.063 6.76,104.309 -46.17,136.03 c 0,0 -170.76,1063.85 -157.68,1183.23 l -534.93,19.78"
         style="fill:#872b39;fill-opacity:1;fill-rule:nonzero;stroke:none"
         id="path490" /><path
         d="m 3055.79,2223.4 c 0,0 -47.75,-79.01 -50.12,-132.75 l 70.12,-108.75 -20,241.5"
         style="fill:#872b39;fill-opacity:1;fill-rule:nonzero;stroke:none"
         id="path492" /><path
         d="m 3528.29,3323.13 c 0,0 -25.5,-68.2 -210,-77.48 -168.94,-8.5 -303.82,-49.95 -333.82,-78.1 -30,-28.15 48.11,-962.3 48.11,-962.3 141.93,9.92 298.55,-148.99 561.89,-88.35 0,0 -40,437.49 -33.34,658.33 6.67,220.84 -32.84,547.9 -32.84,547.9"
         style="fill:#ef294d;fill-opacity:1;fill-rule:nonzero;stroke:none"
         id="path494" /><path
         d="m 3349.34,3323.13 c 0,0 -15.47,-51.11 9.02,-77.48 0,0 -40.54,-79.48 -130.92,-14.38 0,0 17.2,43.46 0,71.68 l 121.9,20.18"
         style="fill:#ef5640;fill-opacity:1;fill-rule:nonzero;stroke:none"
         id="path496" /><path
         d="m 3172.43,3451.73 c 0,0 -33.97,33.9 -38.15,-5.73 -4.85,-45.91 36.85,-64.4 45,-49.8 8.15,14.61 -6.85,55.53 -6.85,55.53"
         style="fill:#f57559;fill-opacity:1;fill-rule:nonzero;stroke:none"
         id="path498" /><path
         d="m 3410.28,3449.34 c 0,0 33.97,33.9 38.15,-5.73 4.85,-45.91 -36.85,-64.4 -45,-49.8 -8.15,14.6 6.85,55.53 6.85,55.53"
         style="fill:#f57559;fill-opacity:1;fill-rule:nonzero;stroke:none"
         id="path500" /><path
         d="m 3287.78,3285.44 c -75.37,0 -117.91,49.23 -117.91,196.89 0,76.16 38.75,122.87 123.17,122.87 84.42,0 119.97,-46.71 119.97,-122.87 0,-158.66 -47.37,-196.89 -125.23,-196.89"
         style="fill:#f57559;fill-opacity:1;fill-rule:nonzero;stroke:none"
         id="path502" /><path
         d="m 3388.05,3429.66 c 1.33,-7.57 -5.29,-15.06 -14.76,-16.71 -9.47,-1.65 -18.22,3.15 -19.54,10.73 -1.32,7.58 5.29,15.06 14.76,16.71 9.47,1.65 18.22,-3.15 19.54,-10.73"
         style="fill:#dc4b44;fill-opacity:1;fill-rule:nonzero;stroke:none"
         id="path504" /><path
         d="m 3233.03,3425.54 c -0.5,-7.68 -8.68,-13.39 -18.28,-12.76 -9.59,0.62 -16.97,7.35 -16.47,15.02 0.5,7.68 8.68,13.39 18.28,12.76 9.6,-0.62 16.97,-7.35 16.47,-15.02"
         style="fill:#dc4b44;fill-opacity:1;fill-rule:nonzero;stroke:none"
         id="path506" /><path
         d="m 3363.62,3507.48 c -0.98,-0.15 -2.02,0.08 -2.87,0.74 -11.99,9.22 -30,5.95 -30.27,5.91 -2.01,-0.33 -4.01,0.96 -4.39,3.01 -0.4,2.05 0.96,4.01 3,4.4 0.79,0.17 21.61,3.9 36.25,-7.35 1.65,-1.27 1.96,-3.64 0.7,-5.29 -0.62,-0.79 -1.5,-1.28 -2.42,-1.42"
         style="fill:#cf2548;fill-opacity:1;fill-rule:nonzero;stroke:none"
         id="path508" /><path
         d="m 3219.37,3506.96 c -0.92,0.11 -1.81,0.57 -2.44,1.34 -1.32,1.62 -1.09,3.99 0.51,5.31 14.29,11.7 35.19,8.6 36,8.46 2.06,-0.33 3.46,-2.25 3.14,-4.3 -0.32,-2.06 -2.32,-3.43 -4.3,-3.15 -0.13,0.05 -18.47,2.67 -30.05,-6.84 -0.84,-0.68 -1.87,-0.95 -2.86,-0.82"
         style="fill:#cf2548;fill-opacity:1;fill-rule:nonzero;stroke:none"
         id="path510" /><path
         d="m 3355.83,3464.94 c 0,-9.36 -4.22,-16.95 -9.42,-16.95 -5.2,0 -9.41,7.59 -9.41,16.95 0,9.36 4.21,16.95 9.41,16.95 5.2,0 9.42,-7.59 9.42,-16.95"
         style="fill:#22434d;fill-opacity:1;fill-rule:nonzero;stroke:none"
         id="path512" /><path
         d="m 3255.18,3464.94 c 0,-9.36 -4.22,-16.95 -9.42,-16.95 -5.2,0 -9.41,7.59 -9.41,16.95 0,9.36 4.21,16.95 9.41,16.95 5.2,0 9.42,-7.59 9.42,-16.95"
         style="fill:#22434d;fill-opacity:1;fill-rule:nonzero;stroke:none"
         id="path514" /><path
         d="m 3213.34,3579.07 c 0,0 42.41,-6.38 157.56,1.9 0,0 8.64,-39.06 28.06,-56.35 0,0 12.19,-55 11.07,-95.49 0,0 73.26,220.28 -129.41,214.52 -206,-5.85 -108.16,-210.21 -108.16,-210.21 0,0 1.22,31.19 7.94,65.8 0,0 27.33,35.17 32.94,79.83"
         style="fill:#cf2548;fill-opacity:1;fill-rule:nonzero;stroke:none"
         id="path516" /><path
         d="m 3292.54,3415.96 -5.64,5.68 14.91,14.81 c -14.46,20.44 -14.38,67.74 -14.37,69.85 l 8.01,-0.05 c 0,-0.5 -0.08,-51.39 14.68,-67.39 l 2.62,-2.83 -20.21,-20.07"
         style="fill:#dc4b44;fill-opacity:1;fill-rule:nonzero;stroke:none"
         id="path518" /><path
         d="m 3242.52,3391.31 c 0,0 74.18,-3.13 111.63,6.77 0,0 6.62,-53.94 -50.87,-56.62 -60.76,-2.83 -60.76,49.85 -60.76,49.85"
         style="fill:#22434d;fill-opacity:1;fill-rule:nonzero;stroke:none"
         id="path520" /><path
         d="m 3525.54,3369.72 c -54.75,-77.82 -131.23,-101 -131.23,-101 0,0 16.94,-77.12 -85.85,-84.32 -95.17,-6.67 -116.75,55.91 -116.75,55.91 0,0 -148.42,-25.08 -195.92,-56.74 -47.5,-31.67 -60,-697.44 -32.5,-763.3 27.5,-65.87 134.92,-135.37 383.71,-118.12 248.79,17.25 263.79,97.99 258.79,132.62 -5,34.63 16.62,467.43 0.71,622.15 -25.37,246.72 -80.96,312.8 -80.96,312.8"
         style="fill:#2a5a9f;fill-opacity:1;fill-rule:nonzero;stroke:none"
         id="path522" /><path
         d="m 3005.67,2366.8 v -69.86 c 0,0 376.4,-42.84 587.01,43.56 l -10,31.25 c 0,0 -381.89,-41.45 -577.01,-4.95"
         style="fill:#234e7e;fill-opacity:1;fill-rule:nonzero;stroke:none"
         id="path524" /><path
         d="m 3191.71,3240.31 c 0,0 17.31,12.17 23.25,10 0,0 33.32,-66.58 94.87,-55.91 61.55,10.67 66.99,68.25 66.99,68.25 0,0 8.51,15.39 17.49,6.07 8.98,-9.32 12.06,-94.32 -84.48,-99.32 -96.54,-5 -119.7,53.48 -118.12,70.91"
         style="fill:#234e7e;fill-opacity:1;fill-rule:nonzero;stroke:none"
         id="path526" /><path
         d="m 3498.83,3122.62 -90.2,-22.42 14.54,-70.2 c 0,0 44.5,27.63 63.3,-1.24 11.15,-17.12 -3.58,-79.6 -63.3,-55.43 v -22.97 c 0,0 65.28,-14.93 85.28,41.1 20,56.04 -14.21,83.76 -70.83,66.04 l -4.43,24.52 67.76,19.31 -2.12,21.29"
         style="fill:#d2dadc;fill-opacity:1;fill-rule:nonzero;stroke:none"
         id="path528" /></g></g></svg>
