<svg xmlns="http://www.w3.org/2000/svg" xmlns:xlink="http://www.w3.org/1999/xlink" viewBox="0 0 1621.9 560.72"><defs><style>.cls-1{fill:#202020;}.cls-2{fill:#3be2ab;}.cls-3{fill:#3db1ff;}.cls-4{fill:url(#Dégradé_sans_nom_14);}</style><linearGradient id="Dégradé_sans_nom_14" y1="280.36" x2="560.72" y2="280.36" gradientUnits="userSpaceOnUse"><stop offset="0" stop-color="#3db1ff"/><stop offset="1" stop-color="#3be2ab"/></linearGradient></defs><title>final-couleur</title><g id="Calque_2" data-name="Calque 2"><g id="Calque_1-2" data-name="Calque 1"><path class="cls-1" d="M748.78,117.32a3.28,3.28,0,0,1,3.38,3.16v34.11a3.2,3.2,0,0,1-3.38,3.39H691.4v20.55h45.4a2.71,2.71,0,0,1,2.94,2.94l-3.16,31.62a4,4,0,0,1-3.84,2.94H691.4v54a3.44,3.44,0,0,1-3.39,3.16H648a3.43,3.43,0,0,1-3.16-3.39V120.48a3.23,3.23,0,0,1,3.16-3.16Z"/><path class="cls-1" d="M833.26,148.94a3.09,3.09,0,0,1,3.17,3.16v29.37a3.09,3.09,0,0,1-3.17,3.16h-5.87c-8.58,0-16.26,3.84-19.2,9.49v75.67a3.47,3.47,0,0,1-3.39,3.39H765.05a3.47,3.47,0,0,1-3.39-3.39V152.33a3.44,3.44,0,0,1,3.39-3.16h25.52c1.81,0,2.94,1.58,3.62,3.38l3.38,9.94c6.78-8.36,17.85-13.55,29.82-13.55Z"/><path class="cls-1" d="M951.41,260.53c.45,1.58,0,2.48-1.58,3.39-12,7.9-29.37,12.65-46.76,12.65-40,0-66.64-26.21-66.64-65.28,0-39.31,26.21-65.51,65.51-65.51,37.5,0,59.64,24.17,59.64,65.28a51.5,51.5,0,0,1-.91,10.17q-.33,2.7-3.39,2.7H884.77s0,14.24,19,14.24a85.64,85.64,0,0,0,34.56-7.46,2.42,2.42,0,0,1,3.39,1.81Zm-34.79-60.31c0-9.94-6.1-16.49-15.13-16.49-10.17,0-16.94,6.55-16.94,16.49Z"/><path class="cls-1" d="M1085.6,260.53c.45,1.58,0,2.48-1.58,3.39-12,7.9-29.37,12.65-46.76,12.65-40,0-66.64-26.21-66.64-65.28,0-39.31,26.2-65.51,65.51-65.51,37.5,0,59.63,24.17,59.63,65.28a51.49,51.49,0,0,1-.9,10.17q-.34,2.7-3.39,2.7H1019s0,14.24,19,14.24a85.64,85.64,0,0,0,34.56-7.46,2.41,2.41,0,0,1,3.38,1.81Zm-34.79-60.31c0-9.94-6.1-16.49-15.13-16.49-10.17,0-16.94,6.55-16.94,16.49Z"/><path class="cls-1" d="M1197.2,232.52a3,3,0,0,1,2.94,3.16L1197,270a3.85,3.85,0,0,1-3.61,3.16h-81.55a3.43,3.43,0,0,1-3.38-3.16V120.7a3.46,3.46,0,0,1,3.38-3.38h40a3.47,3.47,0,0,1,3.38,3.38V232.52Z"/><path class="cls-1" d="M1338.84,211.06c0,39.3-26.66,65.51-66.41,65.51S1206,250.36,1206,211.29c0-39.31,26.65-65.51,66.41-65.51S1338.84,172,1338.84,211.06Zm-88.78.23c0,14.68,9,24.62,22.37,24.62s22.36-9.94,22.36-24.85c0-14.68-9-24.62-22.36-24.62S1250.06,196.38,1250.06,211.29Z"/><path class="cls-1" d="M1429.88,256.92c-3.61,7.22-14.45,12-27.1,12-33,0-54.89-23.72-54.89-59.41,0-40,20.33-63.7,54.89-63.7,17.39,0,31.17,4.74,37,12.87l4.07-6.32c1.35-2,3.39-3.39,5.19-3.39h24a3.2,3.2,0,0,1,3.39,3.39V261.66c0,34.11-31,56.92-69.35,56.92-22.37,0-42.24-5.19-53.31-14.23a3.53,3.53,0,0,1-1.36-3.84l11.52-28c.68-1.58,2-2.26,3.39-1.36,9.72,7.91,24.62,12.65,39.76,12.65,14.23,0,22.81-7.45,22.81-20.32Zm0-58.74S1426.5,188,1414.3,188c-11.3,0-17.85,7.9-17.85,21.46s6.55,21.68,17.85,21.68c12.2,0,15.58-10.16,15.58-10.16Z"/><path class="cls-1" d="M1621.9,211.06c0,39.3-26.65,65.51-66.41,65.51s-66.41-26.21-66.41-65.28c0-39.31,26.65-65.51,66.41-65.51S1621.9,172,1621.9,211.06Zm-88.77.23c0,14.68,9,24.62,22.36,24.62s22.36-9.94,22.36-24.85c0-14.68-9-24.62-22.36-24.62S1533.13,196.38,1533.13,211.29Z"/><path class="cls-1" d="M700.43,301.19c47.89,0,79.74,30.95,79.74,77.93,0,46.54-31.85,77.94-79.74,77.94H648a3.44,3.44,0,0,1-3.16-3.39V304.58a3.43,3.43,0,0,1,3.16-3.39Zm2.71,115.21c17.4,0,29.14-14.91,29.14-37.28s-11.74-37.27-29.14-37.27H691.4V416.4Z"/><path class="cls-1" d="M904.2,444.41c.45,1.58,0,2.48-1.58,3.38-12,7.91-29.37,12.65-46.76,12.65-40,0-66.64-26.2-66.64-65.28,0-39.3,26.2-65.51,65.51-65.51,37.49,0,59.63,24.17,59.63,65.29a51.39,51.39,0,0,1-.9,10.16q-.35,2.72-3.39,2.71H837.56s0,14.23,19,14.23a85.6,85.6,0,0,0,34.56-7.45,2.41,2.41,0,0,1,3.39,1.81Zm-34.79-60.32c0-9.94-6.1-16.49-15.14-16.49-10.16,0-16.94,6.55-16.94,16.49Z"/><path class="cls-1" d="M936.06,417.75a1.86,1.86,0,0,1,2.93-.9c8.81,5.19,18.3,9.26,26,9.26,4.74.45,7.91-2.26,7.91-5.65,0-11.52-49.47-7.9-49.47-50.37,0-24.17,20.55-40.44,51.27-40.44,14.69,0,32.31,5.2,44.28,12.88,1.13.9,1.81,2,1.35,3.16l-11.52,26.66a1.86,1.86,0,0,1-2.93.9c-8.81-5.65-18.3-9.26-26-9.26-4.74-.45-7.91,1.81-7.91,5.42,0,12,49.47,7.68,49.47,50.6,0,24.17-19.87,40.43-49.92,40.43-14.68,0-33-5.19-45.63-12.87-1.13-1.13-1.81-2.26-1.35-3.62Z"/><path class="cls-1" d="M1082.44,306.39c0,13.33-9.94,22.36-24.84,22.36s-24.85-9-24.85-22.36c0-14,9.94-23.27,24.85-23.27S1082.44,292.38,1082.44,306.39Zm-4.74,26.43a3.44,3.44,0,0,1,3.39,3.16V453.67a3.48,3.48,0,0,1-3.39,3.39h-39.76a3.48,3.48,0,0,1-3.39-3.39V336a3.44,3.44,0,0,1,3.39-3.16Z"/><path class="cls-1" d="M1175.74,440.79c-3.61,7.23-14.45,12-27.1,12-33,0-54.9-23.71-54.9-59.41,0-40,20.33-63.7,54.9-63.7,17.39,0,31.17,4.75,37,12.88l4.07-6.32c1.35-2,3.39-3.39,5.19-3.39h24a3.19,3.19,0,0,1,3.38,3.39V445.53c0,34.12-30.94,56.93-69.34,56.93-22.37,0-42.24-5.2-53.31-14.23a3.53,3.53,0,0,1-1.36-3.84l11.52-28c.68-1.58,2-2.26,3.39-1.36,9.71,7.91,24.62,12.65,39.76,12.65,14.23,0,22.81-7.45,22.81-20.33Zm0-58.73s-3.39-10.16-15.58-10.16c-11.3,0-17.85,7.9-17.85,21.45s6.55,21.69,17.85,21.69c12.19,0,15.58-10.16,15.58-10.16Z"/><path class="cls-1" d="M1273.56,342.31c7.23-7.91,22.59-12.66,36.37-12.66,30.72,0,47.44,14.23,47.44,49.47v74.55a3.48,3.48,0,0,1-3.39,3.39h-39.76a3.15,3.15,0,0,1-3.16-3.39V386.13c0-9-4.06-14.23-11.07-14.23-12.87,0-14.91,12.65-14.91,12.65v69.12a3.48,3.48,0,0,1-3.39,3.39h-39.75a3.48,3.48,0,0,1-3.39-3.39V336a2.86,2.86,0,0,1,3.16-3.16H1267a3.68,3.68,0,0,1,3.62,2.26Z"/><path class="cls-2" d="M190.24,237H123.62a16.86,16.86,0,1,1,0-33.71h66.62a16.86,16.86,0,1,1,0,33.71Z"/><path class="cls-2" d="M167.24,293.18H123.62a16.86,16.86,0,1,1,0-33.71h43.62a16.86,16.86,0,1,1,0,33.71Z"/><path class="cls-3" d="M330.52,326.74a16.87,16.87,0,0,1-16.85,16.86H247.05a16.86,16.86,0,1,1,0-33.71h66.62A16.87,16.87,0,0,1,330.52,326.74Z"/><path class="cls-3" d="M397.5,236.68h11.43c22.51,0,34.28,18.46,34.28,36.7s-11.77,36.7-34.28,36.7H380.35a17,17,0,0,0-17,17.4,1,1,0,0,0,0,.22,16.85,16.85,0,0,0,11,14.43,18,18,0,0,0,7.1,1.44h27.09c40.9,0,69.37-29.67,69.37-70.17s-28.47-70.16-69.37-70.16H381.43a18.14,18.14,0,0,0-5.83,1,16.82,16.82,0,0,0-12.31,14.87v.06a17.13,17.13,0,0,0,17.17,17.54Z"/><path class="cls-4" d="M280.36,560.72A280.35,280.35,0,0,1,82.12,82.12,280.35,280.35,0,1,1,478.6,478.6,278.52,278.52,0,0,1,280.36,560.72Zm0-530.72C142.31,30,30,142.31,30,280.36S142.31,530.72,280.36,530.72,530.72,418.41,530.72,280.36,418.41,30,280.36,30Z"/><path class="cls-2" d="M263.9,219.87V326.49a16.86,16.86,0,0,1-33.71,0V219.87a16.86,16.86,0,1,1,33.71,0Z"/><path class="cls-2" d="M396.92,219.87V326.49a16.85,16.85,0,0,1-33.7,0V219.87a16.85,16.85,0,1,1,33.7,0Z"/><path class="cls-3" d="M125,343.51c-10,.83-18.25-7.31-18.25-17.36v-108a15.41,15.41,0,0,1,6.29-11.6c13.35-8.57,27.42.88,27.42,13.56V326.72A16.87,16.87,0,0,1,125,343.51Z"/></g></g></svg>